<svg width="26" height="27" viewBox="0 0 26 27" fill="none" xmlns="http://www.w3.org/2000/svg">
<path d="M21.1358 6.6762L14.7008 2.96037C13.65 2.3537 12.35 2.3537 11.2883 2.96037L4.86416 6.6762C3.81333 7.28287 3.16333 8.40954 3.16333 9.6337V17.0437C3.16333 18.257 3.81333 19.3837 4.86416 20.0012L11.2992 23.717C12.35 24.3237 13.65 24.3237 14.7117 23.717L21.1467 20.0012C22.1975 19.3945 22.8475 18.2679 22.8475 17.0437V9.6337C22.8367 8.40954 22.1867 7.2937 21.1358 6.6762ZM13 8.29037C14.3975 8.29037 15.5242 9.41704 15.5242 10.8145C15.5242 12.212 14.3975 13.3387 13 13.3387C11.6025 13.3387 10.4758 12.212 10.4758 10.8145C10.4758 9.42787 11.6025 8.29037 13 8.29037ZM15.9033 18.387H10.0967C9.21916 18.387 8.71 17.412 9.1975 16.6862C9.93416 15.592 11.3642 14.8554 13 14.8554C14.6358 14.8554 16.0658 15.592 16.8025 16.6862C17.29 17.4012 16.77 18.387 15.9033 18.387Z" fill="#FFBB00"/>
</svg>
