<svg width="32" height="32" viewBox="0 0 32 32" fill="none" xmlns="http://www.w3.org/2000/svg">
<path d="M25.4667 25.5467C26.1285 24.5507 26.6912 23.4924 27.1467 22.3867C26.1253 21.9952 25.2365 21.321 24.5843 20.4428C23.932 19.5647 23.5433 18.519 23.4636 17.4281C23.3839 16.3371 23.6164 15.2461 24.1341 14.2824C24.6517 13.3188 25.433 12.5225 26.3867 11.9867C25.8039 11.2027 25.0542 10.558 24.1918 10.0991C23.3294 9.64023 22.3758 9.37869 21.4 9.33337C20.3846 9.3448 19.382 9.56254 18.4533 9.97337C17.8191 10.2608 17.1356 10.4237 16.44 10.4534C15.6642 10.4138 14.9014 10.2378 14.1867 9.93337C13.3198 9.56819 12.3934 9.36483 11.4533 9.33337C10.3441 9.39368 9.26675 9.72555 8.31586 10.2998C7.36498 10.8741 6.56972 11.6731 6 12.6267C4.10667 15.56 4.44 21.0534 7.49467 25.7467C8.588 27.4267 10.0547 29.3067 11.9613 29.3334C12.6219 29.3286 13.2716 29.1639 13.8547 28.8534C14.6596 28.4433 15.5513 28.2329 16.4547 28.24C17.3545 28.2261 18.2436 28.4369 19.0413 28.8534C19.61 29.1639 20.2467 29.3288 20.8947 29.3334C22.828 29.3067 24.3733 27.2267 25.4667 25.5467Z" fill="#F9F9F9"/>
<path d="M21.1193 2.66675C21.1916 3.3673 21.1252 4.07523 20.9239 4.75012C20.7226 5.425 20.3903 6.05362 19.946 6.60008C19.51 7.17697 18.9485 7.64718 18.3041 7.97519C17.6596 8.30319 16.949 8.4804 16.226 8.49341C16.1466 7.80503 16.2124 7.10765 16.4191 6.44625C16.6258 5.78484 16.9688 5.1741 17.426 4.65341C18.3659 3.5533 19.6834 2.84463 21.1193 2.66675Z" fill="#F9F9F9"/>
</svg>
