<svg width="26" height="26" viewBox="0 0 26 26" fill="none" xmlns="http://www.w3.org/2000/svg">
<path d="M20.8434 6.0451H20.4101L16.7484 2.38344C16.4559 2.09094 15.9792 2.09094 15.6759 2.38344C15.3834 2.67594 15.3834 3.1526 15.6759 3.45594L18.2651 6.0451H7.73508L10.3242 3.45594C10.6167 3.16344 10.6167 2.68677 10.3242 2.38344C10.0317 2.09094 9.55508 2.09094 9.25175 2.38344L5.60091 6.0451H5.16758C4.19258 6.0451 2.16675 6.0451 2.16675 8.81844C2.16675 9.86927 2.38341 10.5626 2.83841 11.0176C3.09841 11.2884 3.41258 11.4293 3.74841 11.5051C4.06258 11.5809 4.39841 11.5918 4.72341 11.5918H21.2767C21.6126 11.5918 21.9267 11.5701 22.2301 11.5051C23.1401 11.2884 23.8334 10.6384 23.8334 8.81844C23.8334 6.0451 21.8076 6.0451 20.8434 6.0451Z" fill="#F9F9F9"/>
<path d="M20.6375 13H5.2758C4.60413 13 4.09496 13.5958 4.2033 14.2567L5.1133 19.825C5.41663 21.6883 6.22913 23.8333 9.83663 23.8333H15.9141C19.565 23.8333 20.215 22.0025 20.605 19.955L21.6991 14.2892C21.8291 13.6175 21.32 13 20.6375 13ZM11.4941 19.9875C11.4941 20.41 11.1583 20.7458 10.7466 20.7458C10.3241 20.7458 9.9883 20.41 9.9883 19.9875V16.4125C9.9883 16.0008 10.3241 15.6542 10.7466 15.6542C11.1583 15.6542 11.4941 16.0008 11.4941 16.4125V19.9875ZM16.1308 19.9875C16.1308 20.41 15.795 20.7458 15.3725 20.7458C14.9608 20.7458 14.6141 20.41 14.6141 19.9875V16.4125C14.6141 16.0008 14.9608 15.6542 15.3725 15.6542C15.795 15.6542 16.1308 16.0008 16.1308 16.4125V19.9875Z" fill="#F9F9F9"/>
</svg>
