<svg width="28" height="28" viewBox="0 0 28 28" fill="none" xmlns="http://www.w3.org/2000/svg">
<mask id="mask0_363_3572" style="mask-type:luminance" maskUnits="userSpaceOnUse" x="0" y="0" width="28" height="28">
<path d="M6.32324 0H21.6768C23.3523 0.00483206 24.9579 0.675685 26.1427 1.866C27.3274 3.05632 27.9952 4.66935 28 6.35271V21.6496C27.9946 23.3325 27.3266 24.945 26.1419 26.1348C24.9571 27.3246 23.3519 27.9952 21.6768 28H6.32324C4.64809 27.9952 3.04288 27.3246 1.85815 26.1348C0.673417 24.945 0.00541045 23.3325 0 21.6496V6.35271C0.00480964 4.66935 0.672551 3.05632 1.85735 1.866C3.04215 0.675685 4.64769 0.00483206 6.32324 0Z" fill="white"/>
</mask>
<g mask="url(#mask0_363_3572)">
<mask id="mask1_363_3572" style="mask-type:luminance" maskUnits="userSpaceOnUse" x="0" y="0" width="28" height="28">
<path d="M0 14C0 21.732 6.26801 28 14 28C21.732 28 28 21.732 28 14C28 6.26801 21.732 0 14 0C6.26801 0 0 6.26801 0 14Z" fill="white"/>
</mask>
<g mask="url(#mask1_363_3572)">
<rect width="28.4375" height="28.2404" rx="14.1202" transform="matrix(1 0 0 -1 -0.157227 28.1237)"/>
</g>
<path d="M19.4505 18.0669L20.0703 14.0012H16.1784V11.3617C16.1784 10.2491 16.7207 9.16626 18.457 9.16626H20.2344V5.70489C19.1981 5.53667 18.1509 5.44486 17.1012 5.43018C13.9111 5.43018 11.8125 7.37605 11.8125 10.9015V14.0012H8.25781V18.0669H11.8125V28.0412H16.1784V18.0669H19.4505Z" fill="white"/>
</g>
</svg>
