<svg width="28" height="28" viewBox="0 0 28 28" fill="none" xmlns="http://www.w3.org/2000/svg">
<path d="M6.20562 16.9218L5.23094 20.5604L1.66852 20.6358C0.603882 18.6611 0 16.4018 0 14.001C0 11.6793 0.564614 9.49001 1.56543 7.56226H1.5662L4.73775 8.14371L6.12708 11.2962C5.8363 12.144 5.67781 13.054 5.67781 14.001C5.67792 15.0287 5.86408 16.0134 6.20562 16.9218Z" fill="#FBBB00"/>
<path d="M27.7555 11.3853C27.9163 12.2322 28.0001 13.1068 28.0001 14.0007C28.0001 15.0031 27.8947 15.9808 27.6939 16.9239C27.0124 20.1333 25.2315 22.9357 22.7646 24.9188L22.7638 24.9181L18.7691 24.7142L18.2037 21.1848C19.8406 20.2248 21.1199 18.7225 21.7938 16.9239H14.3074V11.3853H21.903H27.7555Z" fill="#518EF8"/>
<path d="M22.7661 24.9177L22.7668 24.9185C20.3675 26.847 17.3197 28.0009 14.0019 28.0009C8.67018 28.0009 4.03464 25.0208 1.66992 20.6352L6.20702 16.9213C7.38935 20.0767 10.4333 22.323 14.0019 22.323C15.5358 22.323 16.9728 21.9083 18.2059 21.1845L22.7661 24.9177Z" fill="#28B446"/>
<path d="M22.9358 3.22318L18.4002 6.93638C17.124 6.13868 15.6155 5.67786 13.9993 5.67786C10.3499 5.67786 7.24902 8.02716 6.12591 11.2958L1.56497 7.56181H1.56421C3.89431 3.06934 8.58831 0 13.9993 0C17.3963 0 20.5111 1.21006 22.9358 3.22318Z" fill="#F14336"/>
</svg>
