<svg width="26" height="27" viewBox="0 0 26 27" fill="none" xmlns="http://www.w3.org/2000/svg">
<path d="M22.5659 9.01623L15.47 3.33956C14.0834 2.23456 11.9167 2.22372 10.5409 3.32872L3.44504 9.01623C2.42671 9.82873 1.80921 11.4537 2.02587 12.7321L3.39087 20.9004C3.70504 22.7312 5.40587 24.1721 7.25837 24.1721H18.7417C20.5725 24.1721 22.3059 22.6987 22.62 20.8896L23.985 12.7212C24.18 11.4537 23.5625 9.82873 22.5659 9.01623ZM13.8125 19.8387C13.8125 20.2829 13.4442 20.6512 13 20.6512C12.5559 20.6512 12.1875 20.2829 12.1875 19.8387V16.5887C12.1875 16.1446 12.5559 15.7762 13 15.7762C13.4442 15.7762 13.8125 16.1446 13.8125 16.5887V19.8387Z" fill="#FFBB00"/>
</svg>
