<svg width="366" height="428" viewBox="0 0 366 428" fill="none" xmlns="http://www.w3.org/2000/svg">
<g clip-path="url(#clip0_363_4115)">
<path d="M231.157 365.852L282.852 312.252L332.032 362.386L231.157 365.852Z" fill="#EBEBEB"/>
<path d="M290.913 305.342L344.752 252.007C344.752 254.374 344.287 362.651 344.287 362.651L290.913 305.353V305.342Z" fill="#EBEBEB"/>
<path d="M244.818 275.368L275.361 305.913L215.067 368.156L187.197 334.726L244.818 275.368Z" fill="#EBEBEB"/>
<path d="M161.228 354.832L179.009 339.068L203.636 368.155H161.228V357.03" fill="#EBEBEB"/>
<path d="M275.393 124.183C275.393 104.932 255.161 92.7289 234.538 102.386C229.879 104.563 226.023 108.25 223.688 112.793C218.501 122.841 220.793 134.326 225.495 143.856L241.543 184.545C243.857 190.409 252.171 190.377 254.432 184.492L270.174 143.592C275.625 131.135 275.393 124.194 275.393 124.194V124.183ZM256.017 140.94C242.156 149.002 228.104 134.104 235.7 119.397C236.715 117.442 238.257 115.794 240.106 114.727C253.967 106.665 268.029 121.563 260.422 136.27C259.408 138.225 257.866 139.873 256.017 140.94Z" fill="#F1BF37"/>
<path d="M730.458 261.967H105.583V353.663H730.458V261.967Z" fill="#F1BF37"/>
<g opacity="0.5">
<path d="M730.458 261.967H105.583V353.663H730.458V261.967Z" fill="black"/>
</g>
<path d="M193.594 413.174C226.797 410.939 251.902 382.209 249.668 349.004C247.433 315.799 218.706 290.692 185.503 292.927C152.3 295.161 127.195 323.891 129.429 357.096C131.664 390.301 160.391 415.408 193.594 413.174Z" fill="#343F44"/>
<path d="M129.314 352.03C129.314 352.03 129.314 352.132 129.314 352.188C128.829 385.46 155.42 412.83 188.69 413.303C221.96 413.788 249.328 387.195 249.813 353.922C249.813 353.866 249.813 353.821 249.813 353.765L129.336 352.03H129.314Z" fill="#343F44"/>
<path d="M147.255 352.448C146.917 375.808 165.58 395.023 188.938 395.361C212.297 395.699 231.511 377.036 231.849 353.675C232.187 330.315 213.525 311.099 190.166 310.761C166.807 310.424 147.593 329.087 147.255 352.448Z" fill="#FAFAFA"/>
<path d="M190.166 310.75C166.807 310.412 147.593 329.076 147.255 352.436L231.849 353.653C232.187 330.292 213.525 311.077 190.166 310.739V310.75Z" fill="#E0E0E0"/>
<path d="M163.789 352.684C163.586 366.909 174.95 378.612 189.186 378.826C203.411 379.029 215.124 367.664 215.327 353.427C215.529 339.201 204.165 327.487 189.929 327.285C175.705 327.082 164.003 338.447 163.789 352.684Z" fill="#343F44"/>
<path d="M268.531 210.381C268.531 210.381 179.804 216.925 146.917 224.303C123.739 229.506 79.0486 238.472 79.5892 266.597L83.137 286.747C83.137 286.747 66.5584 294.316 66.5584 313.644C66.5584 332.972 62.5151 362.944 101.202 364.138C107.577 364.341 119.696 364.138 119.696 364.138C119.696 364.138 112.262 281.724 187.981 279.302C265.006 276.847 259.893 363.384 259.893 363.384H581.352C581.352 363.384 568.163 279.077 651.079 278.964C733.994 278.84 721.38 363.936 721.38 363.936C721.38 363.936 751.879 366.571 766.07 340.936C780.261 315.3 776.567 297.053 776.567 297.053L776.094 280.845C775.936 275.326 771.521 270.877 766.014 270.663C766.014 270.663 771.555 229.855 763.052 222.793C754.549 215.731 707.955 173.133 707.955 173.133L710.174 171.736C713.891 169.404 713.249 163.795 709.093 162.365C691.399 156.283 656.417 144.242 648.195 141.37C646.957 140.942 645.684 140.671 644.377 140.57C639.467 140.198 625.58 139.309 600.07 139.038C568.997 138.712 445.625 139.038 445.625 139.038C445.625 139.038 403.165 142.53 379.514 152.949C354.646 163.897 268.543 210.381 268.543 210.381H268.531Z" fill="#F1BF37"/>
<g opacity="0.4">
<path d="M89.0498 311.414C85.8287 310.761 80.8956 310.693 78.4404 312.879C76.6158 314.501 76.1315 317.114 75.8612 319.547C75.4783 322.869 75.2868 326.282 76.0865 329.537C76.8748 332.792 78.7782 335.901 81.7178 337.501C84.6573 339.1 88.7006 338.841 90.9869 336.397C93.0818 334.167 93.3183 330.81 93.262 327.746C93.1832 323.399 93.5323 319.716 92.7327 315.447C92.575 314.636 92.147 313.599 91.6289 312.969C90.773 311.932 90.1197 311.493 89.061 311.426" fill="black"/>
</g>
<path d="M83.1368 286.747C92.5524 286.77 101.698 286.229 111.091 285.599C112.104 285.531 113.208 285.418 113.951 284.731C114.852 283.898 114.92 282.524 114.931 281.296C114.976 276.25 114.729 270.506 110.899 267.217C108.557 265.212 105.347 264.581 102.283 264.288C94.7261 263.578 86.7972 264.164 79.5891 266.575L83.1368 286.725V286.747Z" fill="#FAFAFA"/>
<path d="M278.724 360.804C278.724 360.804 278.69 360.534 278.645 360.005C278.612 359.453 278.555 358.664 278.488 357.639C278.375 355.544 278.206 352.481 277.992 348.55C277.767 344.608 277.508 339.776 276.945 334.189C276.359 328.613 275.503 322.261 273.622 315.458C271.73 308.666 268.836 301.435 264.556 294.328C260.253 287.277 254.6 280.226 247.031 274.774C231.827 263.961 211.295 257.845 189.828 257.586C168.294 257.327 147.841 264.13 133.031 275.473C125.552 281.025 119.358 287.513 114.594 294.294C109.784 301.052 106.27 308.001 103.804 314.602C101.304 321.202 99.9859 327.498 99.2426 333.04C98.4316 338.593 98.5555 343.447 98.6907 347.39C98.9948 351.321 99.3439 354.373 99.7944 356.4C99.9746 357.414 100.121 358.191 100.211 358.732C100.301 359.261 100.335 359.532 100.335 359.532C100.335 359.532 100.267 359.273 100.155 358.743C100.042 358.203 99.8845 357.425 99.6705 356.423C99.1863 354.395 98.8033 351.343 98.4542 347.401C98.2852 343.459 98.1276 338.582 98.9047 333.006C99.6255 327.431 100.909 321.112 103.398 314.467C105.865 307.832 109.368 300.827 114.188 294.023C118.963 287.198 125.18 280.654 132.704 275.056C147.593 263.623 168.181 256.753 189.839 257.012C211.43 257.282 232.052 263.432 247.358 274.346C254.994 279.865 260.67 286.984 264.984 294.08C269.275 301.232 272.169 308.519 274.039 315.345C275.909 322.193 276.731 328.568 277.283 334.155C277.823 339.753 278.048 344.585 278.229 348.538C278.398 352.481 278.521 355.533 278.612 357.639C278.657 358.664 278.69 359.453 278.713 360.005C278.735 360.534 278.724 360.816 278.724 360.816V360.804Z" fill="white"/>
<path d="M281.773 362.225C281.773 362.225 281.75 362 281.739 361.549L281.672 359.556C281.615 357.787 281.536 355.174 281.435 351.773C281.244 344.947 280.951 334.945 280.59 322.24C280.241 309.523 279.825 294.081 279.34 276.398C279.216 271.971 279.092 267.409 278.969 262.713C278.811 260.37 279.059 257.971 279.273 255.56C279.442 254.355 279.611 253.15 279.791 251.933C280.039 250.728 280.286 249.523 280.534 248.295C281.672 243.452 283.327 238.598 285.546 233.867C287.776 229.147 290.423 224.484 293.801 220.159L293.824 220.125L293.858 220.103C311.056 209.267 329.752 197.486 349.529 185.029C354.473 181.909 359.485 178.755 364.565 175.556C369.543 172.177 374.926 169.294 380.479 166.669C386.043 164.056 391.82 161.77 397.756 159.765C400.718 158.728 403.748 157.872 406.777 156.971C409.841 156.194 412.893 155.327 416.024 154.696C428.007 152.038 440.081 150.72 451.907 150.168C463.744 149.616 475.355 149.65 486.641 150.281L486.967 150.303L486.9 150.63C481.572 174.463 476.549 196.945 471.943 217.546V217.591L471.909 217.636C469.105 222.254 466.863 227.109 465.197 232.008C463.597 236.919 462.561 241.965 462.922 246.887C463.304 251.832 463.44 256.675 463.563 261.361C463.654 266.058 463.744 270.619 463.834 275.035C464.093 292.718 464.16 308.138 464.205 320.854C464.217 333.56 464.228 343.539 464.239 350.365C464.228 353.766 464.217 356.368 464.205 358.148C464.205 359.026 464.194 359.68 464.183 360.141C464.183 360.592 464.16 360.817 464.16 360.817C464.16 360.817 464.149 360.592 464.138 360.141C464.138 359.68 464.127 359.015 464.115 358.148C464.115 356.379 464.093 353.766 464.07 350.365C464.025 343.539 463.969 333.548 463.901 320.854C463.811 308.149 463.699 292.718 463.406 275.046C463.316 270.631 463.214 266.069 463.113 261.372C462.978 256.675 462.831 251.855 462.448 246.921C462.077 241.909 463.113 236.807 464.724 231.851C466.402 226.906 468.632 222.029 471.47 217.355L471.436 217.433C476.02 196.821 481.032 174.34 486.337 150.506L486.596 150.855C475.344 150.225 463.732 150.202 451.929 150.754C440.126 151.306 428.097 152.624 416.148 155.271C413.028 155.89 409.987 156.769 406.935 157.534C403.916 158.436 400.898 159.28 397.947 160.317C392.034 162.31 386.268 164.585 380.727 167.187C375.197 169.8 369.836 172.673 364.891 176.018C359.812 179.217 354.8 182.37 349.856 185.479C330.056 197.925 311.349 209.696 294.139 220.508L294.196 220.452C290.862 224.71 288.215 229.361 285.996 234.047C283.778 238.744 282.133 243.565 280.996 248.374C278.462 258.027 279.734 267.556 279.757 276.375C280.196 294.059 280.579 309.501 280.894 322.217C281.199 334.923 281.435 344.924 281.593 351.75C281.66 355.152 281.717 357.765 281.762 359.533C281.773 360.412 281.784 361.076 281.795 361.527C281.795 361.977 281.795 362.203 281.795 362.203L281.773 362.225Z" fill="#263238"/>
<path d="M298.569 220.214L470.584 217.049L582.534 214.999L619.453 193.689C622.438 191.965 623.238 188.001 621.154 185.252L598.178 155.055C595.779 151.901 592.063 150.043 588.109 150.009L462.891 148.995C462.891 148.995 415.734 146.258 378.59 167.062C339.486 188.958 298.569 220.225 298.569 220.225V220.214Z" fill="#263238"/>
<path d="M377.407 152.104C377.407 152.104 386.035 156.035 380.415 159.685C374.806 163.323 287.655 218.277 287.655 218.277L267.619 209.21C303.108 189.431 338.957 170.239 377.407 152.116V152.104Z" fill="#455A64"/>
<path d="M290.471 219.651C290.471 219.651 290.291 219.707 289.931 219.786L288.343 220.135C286.923 220.428 284.862 220.856 282.227 221.397C276.911 222.455 269.207 223.942 259.657 225.575C240.555 228.864 214.02 232.694 184.546 235.251C177.18 235.893 169.972 236.422 163.012 236.873C156.051 237.334 149.339 237.751 142.964 238.337C130.215 239.452 118.783 241.31 109.503 244.07C100.2 246.739 93.082 250.163 88.408 252.867C86.009 254.128 84.3083 255.367 83.092 256.111C82.5063 256.482 82.0558 256.775 81.7179 256.978C81.4026 257.169 81.2336 257.259 81.2336 257.259C81.2336 257.259 81.3801 257.136 81.6729 256.933C81.9995 256.708 82.4387 256.403 83.0131 256.009C84.207 255.232 85.8964 253.959 88.2841 252.664C92.9355 249.893 100.054 246.39 109.379 243.664C118.682 240.837 130.136 238.934 142.908 237.796C149.294 237.199 156.006 236.76 162.967 236.298C169.927 235.836 177.124 235.307 184.49 234.665C213.953 232.119 240.476 228.357 259.589 225.17C269.151 223.582 276.855 222.163 282.193 221.171C284.84 220.676 286.901 220.282 288.331 220.011C289.018 219.887 289.548 219.797 289.931 219.718C290.291 219.662 290.482 219.64 290.482 219.64L290.471 219.651Z" fill="#263238"/>
<path d="M565.145 325.943C565.145 326.101 500.429 326.236 420.611 326.236C340.793 326.236 276.066 326.101 276.066 325.943C276.066 325.786 340.77 325.651 420.611 325.651C500.452 325.651 565.145 325.786 565.145 325.943Z" fill="#263238"/>
<path d="M112.003 297.65C112.003 297.808 102.847 297.943 91.5613 297.943C80.2762 297.943 71.1196 297.808 71.1196 297.65C71.1196 297.492 80.2649 297.357 91.5613 297.357C102.858 297.357 112.003 297.492 112.003 297.65Z" fill="#263238"/>
<path d="M320.148 214.391C320.148 214.391 375.132 174.676 396.824 166.791C417.762 159.177 428.675 157.263 448.34 156.711C467.137 156.181 478.591 156.699 478.591 156.699L464.062 212.622L320.148 214.413V214.391Z" fill="#455A64"/>
<path d="M312.107 214.571C312.107 211.09 313.988 207.88 317.017 206.168L329.643 199.072C333.247 197.045 337.301 195.986 341.435 195.986C344.003 195.986 346.537 196.391 348.936 197.18C354.33 198.948 357.923 204.073 358.148 209.75C358.453 217.634 352.134 224.201 344.239 224.201H321.736C316.42 224.201 312.107 219.887 312.107 214.571Z" fill="#F1BF37"/>
<path d="M312.107 214.571C312.107 214.571 312.14 214.999 312.253 215.787C312.354 216.576 312.647 217.747 313.357 219.088C314.1 220.405 315.339 221.87 317.231 222.895C318.177 223.39 319.281 223.762 320.475 223.92C321.669 224.066 322.986 223.976 324.36 223.987C329.857 223.965 336.389 223.953 343.631 223.92C345.433 223.92 347.246 223.706 348.992 223.041C350.738 222.388 352.371 221.363 353.756 220.011C355.13 218.66 356.267 217.004 356.966 215.134C357.675 213.264 357.957 211.214 357.81 209.176C357.495 205.076 355.31 201.291 352.123 199.095C350.546 197.969 348.733 197.327 346.908 196.899C345.084 196.459 343.248 196.257 341.457 196.257C337.864 196.257 334.474 197.056 331.568 198.374C330.116 199.027 328.787 199.85 327.469 200.559C326.162 201.291 324.901 201.99 323.707 202.654C321.308 203.983 319.146 205.177 317.231 206.247C315.328 207.272 314.089 208.748 313.368 210.066C312.636 211.395 312.366 212.577 312.253 213.366C312.14 214.165 312.152 214.582 312.118 214.582C312.118 214.582 312.062 214.154 312.14 213.343C312.219 212.544 312.456 211.338 313.177 209.953C313.886 208.59 315.148 207.036 317.085 205.954C318.988 204.873 321.139 203.645 323.516 202.294C324.71 201.618 325.96 200.908 327.255 200.165C328.561 199.444 329.89 198.611 331.377 197.935C334.328 196.572 337.797 195.727 341.468 195.716C343.304 195.716 345.185 195.919 347.055 196.358C348.913 196.786 350.828 197.451 352.472 198.633C355.794 200.92 358.092 204.873 358.407 209.142C358.565 211.271 358.272 213.411 357.529 215.359C356.797 217.308 355.614 219.043 354.173 220.439C352.731 221.847 351.019 222.917 349.206 223.582C347.393 224.269 345.467 224.494 343.642 224.472C336.4 224.449 329.879 224.426 324.372 224.404C322.998 224.381 321.702 224.449 320.441 224.291C319.191 224.122 318.053 223.717 317.085 223.187C315.136 222.095 313.897 220.552 313.165 219.2C312.467 217.815 312.208 216.61 312.14 215.81C312.073 214.999 312.118 214.571 312.118 214.571H312.107Z" fill="#263238"/>
<path d="M461.652 220.213C461.652 220.213 461.562 220.236 461.393 220.247C461.19 220.247 460.931 220.27 460.627 220.281C459.906 220.292 458.927 220.315 457.688 220.348C455.086 220.393 451.403 220.461 446.887 220.54C437.764 220.709 425.172 221.047 411.252 221.43C397.331 221.813 384.728 222.083 375.605 222.139C371.044 222.173 367.35 222.173 364.793 222.139C363.554 222.117 362.575 222.106 361.854 222.094L361.088 222.072C360.919 222.072 360.829 222.049 360.829 222.038C360.829 222.027 360.919 222.015 361.088 222.004C361.291 222.004 361.55 221.982 361.854 221.97C362.575 221.959 363.554 221.937 364.793 221.903C367.395 221.858 371.078 221.79 375.594 221.711C384.717 221.542 397.32 221.204 411.24 220.821C425.161 220.439 437.764 220.168 446.887 220.112C451.448 220.078 455.142 220.078 457.699 220.112C458.938 220.134 459.918 220.146 460.638 220.157C460.943 220.157 461.19 220.179 461.404 220.179C461.573 220.179 461.663 220.202 461.663 220.213H461.652Z" fill="white"/>
<path d="M145.859 227.884C145.859 227.884 145.633 227.951 145.194 228.008C144.698 228.075 144.068 228.154 143.279 228.256C142.446 228.346 141.432 228.481 140.261 228.672C139.09 228.864 137.749 229.033 136.285 229.326C133.346 229.832 129.877 230.61 126.059 231.623C122.263 232.682 118.119 234 113.884 235.644C109.649 237.323 105.718 239.159 102.216 240.972C98.7243 242.819 95.6609 244.61 93.1493 246.243C91.8766 247.02 90.7729 247.809 89.7931 248.473C88.8019 249.127 87.9685 249.724 87.304 250.219C86.662 250.67 86.144 251.042 85.7385 251.334C85.3781 251.582 85.1754 251.706 85.1641 251.695C85.1528 251.684 85.3218 251.526 85.6597 251.244C86.0539 250.929 86.5494 250.535 87.1689 250.039C87.8221 249.51 88.633 248.89 89.6129 248.203C90.5814 247.516 91.6739 246.705 92.9353 245.894C95.4244 244.216 98.4878 242.38 101.968 240.499C105.471 238.652 109.424 236.782 113.681 235.104C117.95 233.448 122.106 232.13 125.935 231.105C129.775 230.114 133.267 229.382 136.229 228.92C137.704 228.65 139.056 228.503 140.227 228.357C141.41 228.188 142.423 228.098 143.257 228.042C144.045 227.985 144.676 227.94 145.183 227.895C145.622 227.873 145.859 227.861 145.859 227.895V227.884Z" fill="white"/>
<path d="M346.976 201.314C346.976 201.314 346.638 200.874 345.895 200.266C345.151 199.669 343.879 198.982 342.178 198.768C340.466 198.543 338.405 198.836 336.175 199.421C333.934 199.985 331.523 200.773 329.079 201.832C324.18 203.938 320.193 206.743 317.547 209.007C314.866 211.259 313.458 212.915 313.368 212.836C313.334 212.814 313.672 212.386 314.314 211.642C314.967 210.91 315.947 209.874 317.265 208.703C319.867 206.337 323.876 203.443 328.843 201.302C331.321 200.232 333.765 199.444 336.04 198.903C338.292 198.34 340.443 198.081 342.234 198.363C344.025 198.644 345.32 199.421 346.052 200.109C346.424 200.446 346.66 200.762 346.807 200.976C346.942 201.201 347.01 201.325 346.987 201.336L346.976 201.314Z" fill="white"/>
<path d="M167.708 173.11C163.214 148.466 160.185 144.681 157.628 136.2C155.116 127.82 151.039 122.211 146.005 120.273C142.604 118.967 125.665 112.851 119.752 114.878C113.185 117.131 107.453 120.409 103.387 123.101C99.4338 125.725 96.4379 129.554 94.8499 134.026L85.7834 159.448L101.641 175.273L109.593 158.378L118.22 178.607L116.947 199.05L166.435 212.363C170.94 205.155 170.265 187.111 167.708 173.133V173.11Z" fill="#455A64"/>
<g opacity="0.2">
<path d="M154.824 146.236C152.639 159.065 152.289 160.833 150.104 173.662C149.35 178.066 147.165 184.937 144.023 188.113C141.703 190.467 139.416 192.742 136.195 193.508C133.188 194.218 128.638 194.297 125.811 193.047C122.984 191.796 120.585 186.322 121.745 183.461C125.935 184.362 127.241 185.759 130.857 183.461C134.01 181.456 138.493 177.019 140.205 173.696C147.424 159.729 149.406 159.222 154.801 146.224" fill="black"/>
</g>
<path d="M119.008 171.083C118.941 171.128 118.119 169.81 116.823 167.67C115.438 165.406 113.67 162.534 111.721 159.358C109.728 156.204 107.915 153.366 106.496 151.124C105.144 149.018 104.333 147.712 104.401 147.666C104.434 147.644 104.682 147.937 105.11 148.5C105.538 149.052 106.124 149.874 106.845 150.899C108.286 152.949 110.201 155.821 112.217 159.054C114.233 162.298 115.967 165.283 117.172 167.468C117.781 168.56 118.254 169.461 118.569 170.081C118.884 170.712 119.042 171.061 119.008 171.083Z" fill="#455A64"/>
<path d="M153.54 194.094C153.54 194.094 153.134 194.285 152.38 194.533C151.997 194.657 151.535 194.804 150.972 194.928C150.42 195.051 149.789 195.22 149.08 195.322C147.672 195.581 145.971 195.738 144.068 195.772C142.176 195.772 140.081 195.626 137.93 195.243C135.778 194.837 133.774 194.24 131.994 193.565C130.237 192.866 128.694 192.112 127.467 191.368C126.836 191.03 126.307 190.647 125.834 190.332C125.36 190.028 124.966 189.724 124.662 189.476C124.032 188.98 123.705 188.688 123.727 188.654C123.795 188.564 125.18 189.656 127.669 191.008C128.908 191.695 130.44 192.393 132.186 193.058C133.943 193.689 135.914 194.263 138.031 194.657C140.148 195.029 142.198 195.187 144.068 195.22C145.937 195.22 147.615 195.108 149.012 194.894C151.816 194.499 153.495 193.97 153.528 194.083L153.54 194.094Z" fill="#455A64"/>
<path d="M133.684 155.697C133.594 156.136 128.278 166.724 128.278 166.724L103.184 153.5L100.628 142.687C100.222 140.998 99.1861 139.534 97.7332 138.588C96.1903 137.585 94.2981 137.27 92.5074 137.698L85.1078 140.728C84.4884 140.975 84.0153 141.505 83.8914 142.158C83.7901 142.71 83.9252 143.239 84.8713 143.161C86.7071 143.014 90.5364 142.609 90.5364 142.609L88.7907 148.77C88.3289 150.38 88.5091 152.115 89.2863 153.602L90.4013 155.731L92.8453 159.684L92.8002 159.718C92.8002 159.718 117.195 184.779 130.891 186.401C139.124 187.381 148.449 164.302 148.449 164.302L133.706 155.674L133.684 155.697Z" fill="#FFC7B1"/>
<path d="M90.3113 143.036C90.3113 143.036 90.5027 142.777 90.9195 142.496C91.3362 142.225 92.0007 141.876 92.8228 141.91C93.6675 141.955 94.287 142.507 94.501 142.991C94.7262 143.498 94.5798 143.836 94.546 143.825C94.4785 143.825 94.5235 143.498 94.2757 143.115C94.0392 142.743 93.4873 142.315 92.8003 142.282C92.102 142.248 91.4826 142.518 91.0433 142.732C90.6041 142.946 90.3338 143.093 90.3113 143.047V143.036Z" fill="#AA6550"/>
<path d="M93.4757 146.877C93.4757 146.877 93.3181 146.675 93.0703 146.371C92.8338 146.078 92.4396 145.706 91.9102 145.503C91.3809 145.289 90.8403 145.289 90.4686 145.346C90.0857 145.402 89.8604 145.481 89.8266 145.436C89.8041 145.402 90.0068 145.222 90.4123 145.087C90.8065 144.963 91.4259 144.918 92.0454 145.154C92.6648 145.402 93.0815 145.853 93.2843 146.224C93.4983 146.596 93.5208 146.855 93.4757 146.877Z" fill="#AA6550"/>
<path d="M138.887 122.278L132.095 154.48L150.104 165.304L157.02 145.515C157.02 145.515 154.159 121.49 138.887 122.278Z" fill="#455A64"/>
<path d="M148.595 122.853C148.595 122.853 148.449 122.966 148.133 123.146C147.818 123.315 147.368 123.563 146.759 123.867C145.566 124.475 143.82 125.331 141.624 126.311C137.242 128.248 130.992 130.726 123.716 131.954C116.44 133.193 109.638 132.619 104.998 131.323C102.666 130.693 100.842 129.983 99.6252 129.397C99.0058 129.127 98.5553 128.857 98.2399 128.699C97.9246 128.53 97.7669 128.429 97.7782 128.417C97.8007 128.372 98.4764 128.688 99.7153 129.195C100.954 129.713 102.779 130.355 105.099 130.929C109.717 132.101 116.418 132.607 123.615 131.38C130.812 130.163 137.04 127.775 141.455 125.939C143.662 125.016 145.442 124.216 146.658 123.675C147.886 123.124 148.561 122.831 148.584 122.876L148.595 122.853Z" fill="#EBEBEB"/>
<path d="M153.337 126.401C153.337 126.401 153.179 126.548 152.841 126.773C152.447 127.032 151.952 127.347 151.344 127.73C150.69 128.147 149.891 128.643 148.911 129.138C147.942 129.645 146.861 130.276 145.588 130.828C144.958 131.121 144.304 131.413 143.617 131.729C142.93 132.044 142.187 132.303 141.432 132.596C139.934 133.227 138.268 133.734 136.533 134.297C133.03 135.322 129.1 136.2 124.91 136.719C120.72 137.192 116.688 137.259 113.039 137.079C111.215 136.933 109.48 136.831 107.881 136.572C107.081 136.448 106.293 136.369 105.561 136.234C104.829 136.088 104.119 135.953 103.432 135.817C102.069 135.581 100.876 135.22 99.8169 134.95C98.7469 134.691 97.8572 134.398 97.1251 134.139C96.4493 133.903 95.8975 133.711 95.447 133.554C95.064 133.418 94.8726 133.328 94.8726 133.317C94.8726 133.306 95.0866 133.339 95.4807 133.441C95.9312 133.565 96.4944 133.722 97.1814 133.914C97.9135 134.139 98.8145 134.398 99.8844 134.624C100.943 134.86 102.148 135.198 103.5 135.401C104.176 135.525 104.885 135.649 105.617 135.784C106.349 135.908 107.126 135.975 107.926 136.088C109.525 136.324 111.248 136.414 113.05 136.538C116.666 136.685 120.664 136.606 124.82 136.133C128.976 135.615 132.873 134.759 136.353 133.779C138.076 133.227 139.732 132.743 141.23 132.146C141.984 131.853 142.716 131.605 143.403 131.312C144.09 131.008 144.744 130.726 145.374 130.445C146.647 129.927 147.728 129.318 148.708 128.845C149.688 128.372 150.51 127.911 151.175 127.528C151.805 127.178 152.312 126.897 152.718 126.672C153.078 126.48 153.269 126.39 153.281 126.401H153.337Z" fill="#EBEBEB"/>
<path d="M150.105 165.305C150.105 165.305 149.575 165.068 148.64 164.561C147.638 163.998 146.309 163.255 144.676 162.331C141.241 160.349 136.544 157.646 131.127 154.526L130.958 154.424L130.992 154.233C131.476 151.822 131.994 149.243 132.524 146.585C133.346 142.575 134.123 138.768 134.832 135.288C135.204 133.553 135.508 131.897 135.846 130.354C136.206 128.811 136.657 127.381 137.288 126.164C138.527 123.698 140.509 122.357 141.939 121.895C142.671 121.659 143.268 121.603 143.662 121.614C144.056 121.614 144.27 121.659 144.27 121.681C144.27 121.76 143.415 121.603 142.018 122.121C140.655 122.627 138.797 123.968 137.659 126.356C137.074 127.538 136.646 128.935 136.319 130.456C136.015 132.01 135.7 133.654 135.362 135.389C134.663 138.869 133.898 142.688 133.098 146.697C132.557 149.356 132.028 151.935 131.544 154.345L131.409 154.053C136.781 157.24 141.444 160.011 144.845 162.038C146.444 163.018 147.751 163.807 148.73 164.404C149.631 164.967 150.116 165.282 150.093 165.316L150.105 165.305Z" fill="#455A64"/>
<path d="M155.623 144.568C155.691 144.568 155.713 145.717 155.533 147.576C155.353 149.423 154.959 151.968 154.238 154.705C153.517 157.454 152.605 159.853 151.85 161.554C151.095 163.254 150.521 164.246 150.453 164.212C150.375 164.178 150.814 163.119 151.467 161.396C152.12 159.673 152.954 157.273 153.675 154.559C154.384 151.845 154.846 149.344 155.127 147.519C155.409 145.695 155.544 144.557 155.634 144.568H155.623Z" fill="#455A64"/>
<path d="M57.9089 323.68L57.7061 340.879C57.7061 340.879 40.1589 346.454 39.821 349.631L73.1472 351.219L74.5551 324.434L57.9089 323.691V323.68Z" fill="#455A64"/>
<path d="M68.0785 339.922C68.7205 340.124 69.126 340.879 68.9458 341.521C68.7656 342.163 68.011 342.591 67.369 342.4C66.727 342.208 66.2089 341.318 66.4567 340.699C66.7045 340.079 67.628 339.629 68.2024 339.967" fill="#E0E0E0"/>
<path d="M73.1466 351.208L73.1804 348.504L41.217 347.998C41.217 347.998 39.7078 348.572 39.8205 349.631L73.1466 351.219V351.208Z" fill="#E0E0E0"/>
<path d="M57.1764 340.676C57.1764 340.834 57.9873 340.946 58.7644 341.51C59.5528 342.05 59.9358 342.771 60.0822 342.715C60.2286 342.692 60.0371 341.701 59.0911 341.048C58.145 340.372 57.1539 340.518 57.1764 340.676Z" fill="#263238"/>
<path d="M53.6173 341.96C53.5723 342.118 54.2593 342.422 54.7887 343.143C55.3293 343.841 55.4306 344.596 55.5996 344.596C55.746 344.63 55.9037 343.684 55.2504 342.805C54.5972 341.926 53.6399 341.814 53.6286 341.96H53.6173Z" fill="#263238"/>
<path d="M51.4323 346.049C51.5788 346.095 51.8491 345.284 51.4661 344.382C51.0945 343.47 50.3511 343.076 50.2723 343.211C50.1709 343.335 50.644 343.842 50.9368 344.596C51.2521 345.34 51.2634 346.027 51.4211 346.049H51.4323Z" fill="#263238"/>
<path d="M57.6605 336.767C57.7168 336.914 58.4826 336.733 59.3949 336.835C60.3184 336.925 61.0167 337.263 61.1068 337.128C61.2082 337.015 60.5324 336.384 59.4512 336.272C58.37 336.159 57.5816 336.632 57.6605 336.767Z" fill="#263238"/>
<g opacity="0.3">
<path d="M57.8746 327.082L57.8296 330.146L74.2167 330.776L74.3744 328.028L57.8746 327.082Z" fill="black"/>
</g>
<path d="M57.7618 333.299C57.7618 333.367 58.3925 333.502 59.4287 333.367C59.9467 333.299 60.5549 333.164 61.1969 332.916C61.5235 332.792 61.8501 332.634 62.1767 332.454C62.3344 332.364 62.5259 332.274 62.6948 332.083C62.8863 331.925 63.0102 331.497 62.8075 331.215C62.6498 330.956 62.3569 330.821 62.1092 330.81C61.8614 330.787 61.6587 330.832 61.4785 330.866C61.1068 330.934 60.7464 331.046 60.4198 331.17C59.7665 331.429 59.2372 331.767 58.8317 332.105C58.0208 332.781 57.728 333.378 57.7843 333.412C57.8519 333.468 58.2573 332.972 59.0682 332.42C59.4737 332.15 59.9918 331.869 60.6 331.655C60.9041 331.553 61.2307 331.463 61.5686 331.407C61.929 331.328 62.2218 331.339 62.3119 331.508C62.3457 331.564 62.3457 331.598 62.2668 331.688C62.188 331.778 62.0416 331.869 61.8839 331.959C61.5798 332.139 61.2757 332.285 60.9829 332.42C60.386 332.679 59.8228 332.848 59.3386 332.961C58.37 333.186 57.7393 333.198 57.7393 333.288L57.7618 333.299Z" fill="#263238"/>
<path d="M57.9646 333.547C58.0209 333.569 58.3701 333.006 58.4827 331.959C58.539 331.441 58.5165 330.799 58.3363 330.123C58.2462 329.785 58.1223 329.436 57.9646 329.087C57.7844 328.749 57.5704 328.298 56.9397 328.197C56.6131 328.174 56.3203 328.411 56.2189 328.625C56.095 328.85 56.0725 329.041 56.0162 329.233C55.9373 329.616 55.9261 329.999 55.9599 330.359C56.0274 331.069 56.2977 331.677 56.5906 332.116C57.1987 333.006 57.8745 333.243 57.8858 333.186C57.9421 333.108 57.3902 332.77 56.9284 331.914C56.7032 331.497 56.5117 330.945 56.4779 330.325C56.4554 330.01 56.4779 329.683 56.5568 329.368C56.6243 329.019 56.7708 328.737 56.9059 328.782C57.0749 328.782 57.3452 329.064 57.469 329.357C57.6267 329.661 57.7506 329.976 57.8407 330.28C58.0209 330.889 58.0885 331.474 58.0885 331.959C58.0885 332.939 57.8858 333.536 57.9759 333.569L57.9646 333.547Z" fill="#263238"/>
<path d="M125.822 199.208C125.822 199.208 73.7772 177.379 57.6604 176.444C47.5578 175.859 39.9105 182.346 41.2845 192.81C41.9715 198.036 56.3539 259.276 56.3539 259.276L78.2936 249.251L67.7517 206.912L110.505 227.693L125.822 199.196V199.208Z" fill="#263238"/>
<path d="M61.1858 196.201C61.0169 196.347 62.74 198.566 64.5533 201.506C66.3779 204.446 67.5942 206.98 67.797 206.89C67.9884 206.823 67.0649 204.097 65.2066 201.101C63.3595 198.093 61.3322 196.055 61.1858 196.19V196.201Z" fill="#455A64"/>
<path d="M56.9283 198.633C56.8157 198.825 59.4511 200.492 62.5258 202.767C65.6118 205.031 67.9882 207.036 68.1346 206.878C68.2698 206.732 66.1073 204.445 62.9763 202.147C59.8566 199.85 57.0184 198.453 56.9283 198.633Z" fill="#455A64"/>
<path d="M166.435 212.341C166.435 212.341 159.892 220.777 153.641 223.086C145.802 225.981 87.7994 253.351 87.7994 253.351C87.7994 253.351 77.2801 331.497 78.1136 328.242L53.8425 327.656L56.478 255.671C56.7933 246.447 64.1816 235.87 72.1106 231.162L125.811 199.208L166.424 212.341H166.435Z" fill="#263238"/>
<path d="M56.0162 268.838C56.0162 268.838 56.0726 268.501 56.1176 267.847C56.1514 267.126 56.2077 266.18 56.264 265.02C56.3992 262.565 56.5343 258.994 57.2213 254.669C57.9422 250.378 59.2486 245.196 62.4697 240.398C64.069 238.01 66.2089 235.848 68.7093 233.956C71.2096 232.063 74.0252 230.396 76.9423 228.741C88.6216 222.05 98.7017 215.224 106.158 210.55C109.874 208.185 112.893 206.304 114.987 205.02C115.979 204.411 116.778 203.916 117.398 203.533C117.95 203.184 118.231 202.992 118.22 202.97C118.209 202.947 117.905 203.094 117.33 203.398C116.756 203.702 115.911 204.152 114.841 204.761C112.69 205.966 109.626 207.779 105.876 210.088C98.3413 214.65 88.2162 221.408 76.5706 228.076C73.6536 229.732 70.8041 231.41 68.2587 233.359C65.7134 235.296 63.5172 237.537 61.8841 240.004C58.6179 244.96 57.3452 250.242 56.692 254.579C56.0726 258.96 56.0162 262.542 55.9712 264.998C55.9712 266.169 55.9712 267.104 55.9712 267.836C55.9712 268.489 56.005 268.827 56.0275 268.827L56.0162 268.838Z" fill="#455A64"/>
<path d="M145.014 220.586C145.104 220.484 144.394 219.831 143.527 218.581C142.66 217.342 141.691 215.449 141.229 213.197C140.779 210.933 140.925 208.815 141.252 207.34C141.567 205.853 141.961 204.974 141.849 204.918C141.781 204.873 141.207 205.684 140.734 207.205C140.261 208.714 140.002 210.955 140.486 213.354C140.97 215.742 142.074 217.713 143.099 218.919C144.124 220.135 144.969 220.653 145.014 220.586Z" fill="#455A64"/>
<path d="M62.7625 327.656C62.7625 327.656 62.7962 327.521 62.8413 327.262C62.8751 326.958 62.9314 326.563 62.9877 326.079C63.1003 324.987 63.2693 323.455 63.472 321.529C63.8662 317.519 64.4293 311.808 65.1163 304.78C65.4542 301.232 65.8259 297.369 66.2201 293.212C66.6255 289.056 67.0423 284.607 67.3689 279.921C67.7293 275.247 68.1798 270.336 69.0245 265.313C69.903 260.312 71.2094 255.164 73.4845 250.287C75.7145 245.388 78.8793 241.108 82.2919 237.368C85.7608 233.651 89.5113 230.464 93.2842 227.682C100.83 222.129 108.275 218.074 114.413 214.492C120.574 210.955 125.484 207.937 128.75 205.662C130.395 204.535 131.634 203.623 132.467 202.981C132.85 202.677 133.154 202.44 133.402 202.249C133.605 202.08 133.717 201.99 133.706 201.978C133.706 201.978 133.582 202.035 133.357 202.192C133.098 202.373 132.782 202.587 132.377 202.868C131.521 203.465 130.248 204.344 128.593 205.425C125.281 207.621 120.348 210.55 114.154 214.03C107.993 217.544 100.504 221.554 92.8788 227.118C89.072 229.9 85.2765 233.099 81.7513 236.861C78.2824 240.646 75.0725 244.982 72.7975 249.972C70.4886 254.939 69.1709 260.143 68.2924 265.189C67.4477 270.246 67.0085 275.18 66.6706 279.865C66.3665 284.551 65.9723 289 65.6006 293.156C65.2402 297.312 64.9024 301.187 64.5983 304.735C64.0126 311.775 63.5283 317.485 63.1904 321.506C63.044 323.443 62.9314 324.964 62.8526 326.068C62.8188 326.552 62.7962 326.946 62.785 327.262C62.7737 327.532 62.785 327.667 62.785 327.667L62.7625 327.656Z" fill="#455A64"/>
<path d="M119.909 75.2419C118.411 70.9956 113.433 68.3149 109.063 69.4075C108.061 69.6553 107.07 70.0833 106.045 70.0608C104.772 70.0382 103.623 69.3399 102.373 69.0921C99.6926 68.5515 96.7643 70.455 96.1562 73.1244C94.0275 72.6851 91.6624 72.9893 89.9617 74.3521C88.2723 75.715 87.4839 78.2718 88.5201 80.1866C88.9593 81.0088 89.6801 81.6621 90.0856 82.5069C90.7501 83.8923 90.446 85.5593 90.9078 87.0235C91.5948 89.1974 93.8924 90.5377 96.1562 90.7968C98.4199 91.0558 100.684 90.4363 102.88 89.8281" fill="#263238"/>
<path d="M109.469 119.789C109.187 117.615 108.996 116.083 108.996 116.083C108.996 116.083 101.742 116.038 98.8141 107.039C97.3613 102.567 96.3927 95.0093 95.807 88.8031C95.2777 83.2165 99.5012 78.3056 105.11 78.0127L124.392 76.999L124.808 79.9838L129.888 117.063C130.665 122.717 126.689 127.921 121.024 128.664C115.382 129.408 110.223 125.421 109.48 119.789H109.469Z" fill="#FFC7B1"/>
<path d="M98.5215 94.1192C98.6004 94.7499 99.1973 95.2005 99.8505 95.1329C100.504 95.0653 100.977 94.5021 100.898 93.8714C100.819 93.2406 100.222 92.7901 99.569 92.8577C98.9157 92.9252 98.4427 93.4884 98.5215 94.1192Z" fill="#263238"/>
<path d="M98.0485 92.4522C98.2175 92.5874 99.0058 91.7764 100.279 91.5737C101.551 91.3597 102.587 91.8665 102.7 91.6863C102.756 91.6075 102.565 91.3484 102.114 91.1231C101.664 90.8866 100.943 90.7177 100.143 90.8416C99.355 90.9767 98.7355 91.3709 98.3977 91.7314C98.0485 92.0918 97.9697 92.3959 98.0485 92.4522Z" fill="#263238"/>
<path d="M110.617 92.0697C110.696 92.7005 111.293 93.151 111.946 93.0834C112.6 93.0159 113.073 92.4527 112.994 91.8219C112.915 91.1912 112.318 90.7406 111.665 90.8082C111.012 90.8758 110.539 91.439 110.617 92.0697Z" fill="#263238"/>
<path d="M110.595 90.706C110.764 90.8412 111.563 90.0302 112.825 89.8275C114.097 89.6135 115.134 90.1203 115.246 89.9401C115.303 89.8613 115.111 89.6022 114.661 89.3769C114.21 89.1404 113.489 88.9714 112.69 89.0953C111.901 89.2305 111.282 89.6247 110.944 89.9852C110.606 90.3456 110.516 90.6497 110.595 90.706Z" fill="#263238"/>
<path d="M107.475 100.877C107.475 100.799 106.653 100.799 105.347 100.832C105.02 100.855 104.694 100.832 104.603 100.618C104.491 100.393 104.57 100.021 104.671 99.6159C104.851 98.7824 105.043 97.9039 105.234 96.9916C106.011 93.2521 106.518 90.1997 106.36 90.1772C106.214 90.1434 105.459 93.1507 104.682 96.8902C104.502 97.8138 104.322 98.6923 104.153 99.5258C104.085 99.92 103.939 100.371 104.187 100.832C104.311 101.058 104.581 101.204 104.795 101.227C105.009 101.26 105.2 101.227 105.358 101.227C106.665 101.091 107.464 100.968 107.453 100.9L107.475 100.877Z" fill="#263238"/>
<path d="M108.996 116.083C108.996 116.083 115.269 115.497 120.821 110.823C120.821 110.823 118.828 117.637 109.469 118.245L108.996 116.083Z" fill="#AA6550"/>
<path d="M111.361 101.159C111.147 101.182 111.361 102.567 110.347 103.728C109.322 104.899 107.824 104.978 107.847 105.169C107.847 105.259 108.218 105.383 108.838 105.304C109.446 105.226 110.313 104.888 110.944 104.178C111.575 103.457 111.755 102.612 111.71 102.038C111.676 101.452 111.462 101.137 111.372 101.159H111.361Z" fill="#263238"/>
<path d="M109.469 85.7624C109.649 86.089 110.899 85.7173 112.42 85.661C113.94 85.5709 115.213 85.8187 115.359 85.4808C115.427 85.3231 115.168 85.0303 114.627 84.7712C114.086 84.5121 113.275 84.3207 112.363 84.3657C111.451 84.4108 110.651 84.6811 110.144 84.9852C109.626 85.2893 109.401 85.6047 109.48 85.7624H109.469Z" fill="#263238"/>
<path d="M97.9242 88.6902C98.1945 88.938 99.0279 88.4988 100.075 88.3186C101.123 88.1046 102.058 88.2059 102.215 87.868C102.283 87.7103 102.091 87.44 101.663 87.226C101.235 87.012 100.56 86.8994 99.8388 87.0345C99.118 87.1697 98.5324 87.5301 98.217 87.8905C97.8904 88.251 97.8116 88.5663 97.9354 88.6902H97.9242Z" fill="#263238"/>
<path d="M94.8384 84.7595C94.8384 84.7595 99.9404 86.4828 105.797 82.5632C109.638 79.9951 114.3 78.3844 115.46 79.0827C116.62 79.7698 117.375 83.9823 121.599 84.6919C121.599 84.6919 122.342 92.8016 125.518 92.1033C127.782 91.6077 126.464 82.6645 125.518 77.5622C125.135 75.5235 123.389 74.0142 121.306 73.9353L115.37 73.7101L107.959 75.7826L100.008 77.9451L93.96 80.4569L94.8272 84.7595H94.8384Z" fill="#263238"/>
<path d="M124.82 88.8254C124.943 88.7353 129.865 86.1559 130.778 91.5286C131.69 96.9013 126.104 96.7098 126.07 96.5521C126.036 96.3944 124.82 88.8254 124.82 88.8254Z" fill="#FFC7B1"/>
<path d="M127.365 94.2324C127.365 94.2324 127.466 94.2774 127.635 94.3225C127.804 94.3675 128.074 94.3675 128.333 94.2211C128.863 93.917 129.189 92.9371 129.054 91.9572C128.987 91.4616 128.806 91.0223 128.57 90.6619C128.345 90.3014 128.041 90.0649 127.748 90.0649C127.455 90.0424 127.275 90.2564 127.241 90.4141C127.196 90.5718 127.241 90.6731 127.218 90.6957C127.207 90.7069 127.083 90.6281 127.094 90.3915C127.094 90.2789 127.14 90.1437 127.252 90.0198C127.365 89.8959 127.545 89.8058 127.748 89.7946C128.164 89.7495 128.604 90.0762 128.863 90.4591C129.144 90.8533 129.358 91.3489 129.437 91.9008C129.584 92.9934 129.201 94.0972 128.469 94.4464C128.108 94.6041 127.77 94.5477 127.59 94.4464C127.399 94.345 127.354 94.2211 127.365 94.2098V94.2324Z" fill="#AA6550"/>
<path d="M97.4177 71.1423C97.4177 71.1423 97.6091 71.4239 97.9808 71.8632C98.3525 72.3025 99.0282 72.8318 100.008 73.1697C100.988 73.5189 102.238 73.609 103.59 73.3274C104.941 73.0684 106.371 72.4939 107.926 71.9533C109.469 71.4126 111.057 71.0297 112.532 71.1311C114.008 71.1986 115.291 71.8744 116.024 72.7079C116.789 73.5302 117.094 74.4425 117.094 75.062C117.116 75.6815 116.958 76.0081 116.936 75.9969C116.88 75.9969 116.958 75.659 116.868 75.0845C116.789 74.5214 116.463 73.7104 115.731 73.0008C115.01 72.2687 113.872 71.7168 112.498 71.683C111.136 71.6154 109.638 71.9871 108.117 72.5165C106.597 73.0458 105.121 73.6315 103.691 73.8681C102.272 74.1384 100.898 73.992 99.8729 73.564C98.8368 73.1585 98.1497 72.5277 97.8006 72.0096C97.4515 71.5027 97.3839 71.1536 97.4177 71.1423Z" fill="#455A64"/>
<path d="M115.562 76.2893C115.562 76.2893 115.291 76.0077 114.728 75.6135C114.176 75.2193 113.241 74.8476 112.025 74.8138C110.809 74.7575 109.39 75.1066 107.926 75.8162C106.45 76.492 104.907 77.4945 103.038 78.1027C99.2645 79.3192 95.5591 78.328 93.4192 77.0552C92.3155 76.4245 91.5384 75.7487 91.0541 75.2418C90.5698 74.7237 90.3445 74.4083 90.3783 74.3858C90.4684 74.2957 91.437 75.5572 93.6219 76.6948C95.7506 77.8324 99.2871 78.7109 102.869 77.5508C104.637 76.9764 106.18 76.0077 107.712 75.3319C109.221 74.6336 110.775 74.2844 112.059 74.4083C113.343 74.4984 114.345 74.9715 114.875 75.4446C115.426 75.9176 115.595 76.2893 115.573 76.3006L115.562 76.2893Z" fill="#455A64"/>
<path d="M98.8821 167.816L72.7302 145.525L64.103 147.474C64.103 147.474 73.192 166.374 79.7694 173.301C79.7694 173.301 86.2679 182.008 96.99 178.246C107.712 174.484 98.8821 167.827 98.8821 167.827V167.816Z" fill="#FFC7B1"/>
<path d="M70.7591 120.971H59.6429C57.9647 120.971 56.4555 122.92 57.0637 124.519L68.2475 146.291C68.6755 147.136 69.554 147.665 70.5001 147.665L84.049 147.632C85.6033 147.418 86.1664 145.694 85.5245 144.759L74.7348 123.438C73.9915 121.917 72.4485 120.96 70.7591 120.96V120.971Z" fill="#455A64"/>
<path d="M70.0045 122.278H58.8883C57.4917 122.278 56.5907 123.742 57.2326 124.981L68.1462 146.28C68.5741 147.125 69.4526 147.654 70.3987 147.654H83.8012C84.6234 147.654 85.1528 146.798 84.7811 146.066L73.9915 124.744C73.2481 123.224 71.7052 122.266 70.0158 122.266L70.0045 122.278Z" fill="#263238"/>
<path d="M69.0587 131.199L62.2898 133.902L60.8369 139.353L64.0918 147.463L76.0415 149.198L72.5388 145.616L72.9893 142.496C72.9893 142.496 76.3231 141.448 76.4019 140.941C76.4807 140.435 75.9852 138.723 75.4784 138.632C74.9715 138.554 71.4689 139.849 71.4689 139.849C71.4689 139.849 75.6135 136.571 75.4896 136.042C75.377 135.512 74.9265 134.172 74.1043 134.014C73.2821 133.868 66.5921 137.011 66.5921 137.011L65.5109 139.488L64.5648 135.535C64.5648 135.535 70.5003 133.868 69.0361 131.176L69.0587 131.199Z" fill="#FFC7B1"/>
<path d="M69.9144 143.983C69.9144 143.983 69.7455 143.746 69.6892 143.307C69.6216 142.868 69.6554 142.237 69.8919 141.595C70.1284 140.953 70.5226 140.457 70.8492 140.164C71.1871 139.872 71.4349 139.77 71.4574 139.804C71.525 139.883 70.6465 140.514 70.2185 141.719C69.768 142.901 70.0158 143.96 69.9144 143.983Z" fill="#AA6550"/>
<path d="M66.6936 142.8C66.6936 142.8 66.8963 142.135 66.9639 141.031C67.0202 140.48 67.0427 139.792 67.3018 139.072C67.4369 138.711 67.6171 138.339 67.9212 138.024C68.2253 137.709 68.6195 137.495 69.025 137.326C70.6468 136.74 72.0997 136.267 73.1696 135.918C74.2396 135.58 74.9041 135.388 74.9153 135.434C74.9266 135.479 74.2959 135.749 73.2485 136.143C72.2123 136.549 70.7482 137.067 69.1601 137.641C68.7772 137.799 68.4281 137.99 68.169 138.249C67.91 138.508 67.7298 138.846 67.6059 139.173C67.3468 139.838 67.2905 140.502 67.2117 141.054C67.0765 142.18 66.7387 142.822 66.6936 142.8Z" fill="#AA6550"/>
<path d="M65.1392 141.572C65.0491 141.561 65.0604 140.964 65.1842 140.243C65.3081 139.522 65.4771 138.948 65.5672 138.97C65.6573 138.982 65.646 139.579 65.5221 140.3C65.3982 141.02 65.2293 141.595 65.1392 141.572Z" fill="#AA6550"/>
<path d="M64.959 126.389C64.959 127.166 65.5897 127.808 66.3781 127.808C67.1665 127.808 67.7972 127.178 67.7972 126.389C67.7972 125.601 67.1665 124.97 66.3781 124.97C65.5897 124.97 64.959 125.601 64.959 126.389Z" fill="#FAFAFA"/>
<path d="M117.248 44.7679C117.969 39.4729 110.512 35.133 104.898 34.6806C102.217 34.4628 99.4516 34.8817 96.9044 33.9936C91.4079 32.0834 89.2126 24.9787 83.8668 22.7333C79.8617 21.041 75.2533 22.549 71.3655 24.5095C67.4777 26.47 63.6401 28.9164 59.2999 29.2013C55.5294 29.4359 51.4237 28.0451 48.1224 29.8883C45.659 31.2623 44.3687 34.0941 42.1064 35.7697C39.8943 37.4119 36.9952 37.747 34.2469 37.8978C31.4986 38.0486 28.6498 38.0821 26.1361 39.2215C23.6225 40.361 21.5613 43.0252 22.0807 45.723L117.248 44.7846V44.7679Z" fill="#EBEBEB"/>
</g>
<defs>
<clipPath id="clip0_363_4115">
<rect width="366" height="428" fill="white"/>
</clipPath>
</defs>
</svg>
