<svg width="367" height="429" viewBox="0 0 367 429" fill="none" xmlns="http://www.w3.org/2000/svg">
<path d="M147.939 82.8557C148.838 76.3871 139.602 71.0743 132.648 70.5139C129.336 70.2453 125.895 70.7474 122.761 69.6732C115.961 67.3379 113.241 58.6624 106.606 55.8952C101.651 53.8285 95.9386 55.6733 91.1252 58.0553C86.3119 60.4489 81.5696 63.4497 76.1886 63.7883C71.5172 64.0802 66.4436 62.3755 62.3517 64.629C59.3005 66.3104 57.704 69.7783 54.9011 71.8216C52.1574 73.8183 48.574 74.2503 45.168 74.4254C41.762 74.6123 38.226 74.6473 35.1274 76.0484C32.0289 77.4496 29.4508 80.6956 30.1012 84L147.939 82.8557Z" fill="#F5F5F5"/>
<path d="M212.688 29.2375C213.17 25.6976 208.184 22.7943 204.431 22.4856C202.647 22.3409 200.785 22.611 199.088 22.0226C195.413 20.7397 193.947 16.0038 190.368 14.4894C187.687 13.3609 184.61 14.364 182.006 15.6758C179.411 16.978 176.845 18.6274 173.942 18.8106C171.415 18.9746 168.675 18.039 166.467 19.2736C164.817 20.19 163.959 22.0901 162.444 23.209C160.959 24.299 159.03 24.5304 157.188 24.6365C155.345 24.733 153.445 24.7523 151.767 25.5239C150.088 26.2956 148.699 28.0607 149.056 29.8741L212.688 29.2471V29.2375Z" fill="#F5F5F5"/>
<path d="M299.016 102.266C299.016 102.266 296.405 99.4522 295.135 100.123C293.865 100.793 292.956 102.619 292.453 103.668C291.898 104.833 293.106 105.741 293.609 105.565C294.112 105.38 295.329 103.986 295.329 103.986L297.728 105.935L297.807 109.216L297.666 110.178L295.567 109.631L295.135 107.152C294.976 106.253 293.865 105.812 293.212 106.447C292.956 106.694 292.771 107.082 292.727 107.673C292.586 109.807 292.771 113.521 295.188 114.667C297.604 115.814 301.935 117.084 301.935 117.084L303.92 119.131L312.158 117.446L310.562 113.882L309.794 102.892C309.794 102.892 312.326 98.332 312.149 96.8061C311.973 95.2801 310.923 90.7465 310.923 90.7465C310.923 90.7465 309.644 90.2525 309.38 91.655C309.115 93.0662 309.521 96.8325 309.521 96.8325L307.36 100.493L305.172 88.4267C305.005 87.5005 303.752 87.2624 303.294 88.0827C303.082 88.4531 302.95 89.0088 302.967 89.8291C303.038 92.8986 304.202 100.202 303.84 100.299C303.479 100.396 302.5 99.9109 302.085 98.4202C301.706 97.0619 299.58 91.1875 298.716 88.8324C298.504 88.2503 297.71 88.118 297.349 88.6207C296.881 89.2646 296.52 90.4025 297.013 92.387C297.613 94.8127 298.901 99.6551 299.016 100.237C299.13 100.811 299.016 102.248 299.016 102.248V102.266Z" fill="#FFBF9D"/>
<path d="M304.511 112.418C304.449 112.454 304.22 112.118 303.761 111.686C303.311 111.245 302.597 110.725 301.697 110.39C300.797 110.054 299.915 109.975 299.28 110.01C298.645 110.046 298.257 110.143 298.231 110.072C298.213 110.028 298.583 109.816 299.245 109.702C299.906 109.587 300.868 109.613 301.847 109.975C302.817 110.337 303.567 110.954 303.99 111.474C304.414 111.995 304.555 112.401 304.511 112.418Z" fill="#FF9A6C"/>
<path d="M282.971 365.899L296.493 386.821L302.42 406.455C302.844 407.866 304.387 408.625 305.763 408.104C306.54 407.813 307.157 407.178 307.325 406.367C308.392 401.392 312.088 378.521 311.382 377.453C310.218 375.689 299.58 357.996 299.58 357.996L282.963 365.89L282.971 365.899Z" fill="#263238"/>
<path d="M305.763 408.104L310.509 376.024L311.065 376.924C311.541 377.7 311.735 378.618 311.594 379.526C311.223 381.934 310.041 393.489 307.404 406.331C307.236 407.169 306.575 407.822 305.772 408.104H305.763Z" fill="#455A64"/>
<g opacity="0.6">
<path d="M302.95 375.416C302.641 376.113 302.967 377.022 303.647 377.357C304.326 377.692 305.261 377.374 305.578 376.686C305.896 375.998 305.543 374.896 304.828 374.64C304.114 374.384 303.047 374.816 302.897 375.566" fill="white"/>
</g>
<path d="M304.917 395.844C304.828 395.977 303.673 395.156 302.041 395.333C300.409 395.465 299.421 396.479 299.307 396.365C299.254 396.321 299.421 395.994 299.88 395.615C300.33 395.236 301.089 394.865 301.988 394.786C302.888 394.706 303.708 394.927 304.22 395.209C304.731 395.491 304.961 395.782 304.917 395.835V395.844Z" fill="white"/>
<path d="M305.155 399.619C305.111 399.769 304.008 399.505 302.711 399.866C301.415 400.202 300.586 400.987 300.471 400.872C300.348 400.801 301.088 399.725 302.57 399.337C304.043 398.931 305.225 399.496 305.155 399.619Z" fill="white"/>
<path d="M305.499 390.472C305.463 390.631 303.761 390.208 301.706 390.596C299.642 390.949 298.195 391.937 298.107 391.796C298.001 391.707 299.395 390.437 301.609 390.058C303.814 389.652 305.56 390.358 305.499 390.472Z" fill="white"/>
<path d="M301.918 383.769C301.935 383.928 300.462 384.157 298.91 385.048C297.34 385.912 296.37 387.041 296.237 386.936C296.114 386.865 296.952 385.498 298.645 384.572C300.321 383.628 301.926 383.637 301.926 383.778L301.918 383.769Z" fill="white"/>
<path d="M299.413 379.315C299.422 379.473 297.807 379.491 296.246 380.558C294.659 381.59 294.015 383.063 293.865 382.993C293.803 382.966 293.865 382.561 294.182 381.978C294.491 381.396 295.091 380.664 295.937 380.1C296.784 379.535 297.693 379.271 298.354 379.209C299.016 379.147 299.422 379.244 299.413 379.306V379.315Z" fill="white"/>
<path d="M230.217 233.267C230.217 234.105 236.417 311.371 238.799 316.417C241.172 321.462 288.043 379.2 288.043 379.2L307.598 365.723L266.063 305.523L264.898 249.134L255.267 227.022L230.208 233.267H230.217Z" fill="#263238"/>
<path d="M288.855 217.804C289.349 218.977 295.796 237.394 296.281 245.209C296.775 253.033 282.328 391.822 282.328 391.822L258.468 389.917L264.669 255.317L254.376 227.022L288.855 217.804Z" fill="#263238"/>
<path d="M262.067 247.723C262.067 247.723 262.067 247.811 262.067 247.996C262.076 248.19 262.094 248.455 262.102 248.79C262.146 249.505 262.208 250.545 262.288 251.886C262.464 254.612 262.72 258.581 263.046 263.626C263.725 273.761 264.696 288.2 265.86 305.541V305.594L265.895 305.638C275.589 319.706 287.047 336.342 299.289 354.097C302.041 358.084 304.749 362.009 307.404 365.855L307.466 365.528C300.656 370.221 294.103 374.746 287.911 379.015L288.211 379.059C273.825 361.162 261.494 345.823 252.753 334.939C248.378 329.523 244.903 325.219 242.503 322.255C241.313 320.791 240.395 319.662 239.76 318.886C239.452 318.515 239.213 318.233 239.046 318.022C238.887 317.828 238.79 317.739 238.79 317.739C238.79 317.739 238.861 317.845 239.011 318.048C239.178 318.26 239.399 318.551 239.699 318.93C240.316 319.715 241.224 320.862 242.389 322.344C244.761 325.325 248.201 329.664 252.532 335.107C261.247 346.018 273.534 361.4 287.858 379.332L287.99 379.5L288.167 379.376C294.359 375.116 300.921 370.6 307.73 365.908L307.924 365.775L307.792 365.581C305.137 361.735 302.429 357.802 299.677 353.815C287.426 336.068 275.942 319.45 266.23 305.391L266.266 305.497C265.031 288.164 263.999 273.725 263.275 263.6C262.905 258.554 262.605 254.585 262.402 251.868C262.296 250.528 262.217 249.496 262.155 248.781C262.129 248.446 262.102 248.182 262.085 247.988C262.067 247.811 262.058 247.723 262.049 247.723H262.067Z" fill="#455A64"/>
<path d="M263.505 378.326L263.999 396.426C263.999 396.426 245.767 403.006 245.529 406.358L280.66 406.658L281.049 378.423L263.505 378.318V378.326Z" fill="#263238"/>
<path d="M274.874 394.997C275.553 395.191 276.012 395.959 275.853 396.647C275.686 397.335 274.909 397.811 274.23 397.626C273.551 397.449 272.96 396.541 273.207 395.879C273.445 395.218 274.389 394.706 275.007 395.041" fill="#E0E0E0"/>
<path d="M280.66 406.667L280.59 403.818L246.931 404.594C246.931 404.594 245.361 405.264 245.529 406.367L280.66 406.667Z" fill="#455A64"/>
<path d="M263.434 396.24C263.434 396.408 264.298 396.496 265.136 397.052C265.992 397.59 266.415 398.34 266.574 398.269C266.733 398.234 266.486 397.211 265.454 396.549C264.431 395.879 263.39 396.073 263.425 396.232L263.434 396.24Z" fill="white"/>
<path d="M259.729 397.731C259.685 397.899 260.426 398.199 261.008 398.922C261.608 399.637 261.749 400.422 261.917 400.413C262.076 400.439 262.208 399.434 261.467 398.543C260.744 397.643 259.729 397.564 259.729 397.723V397.731Z" fill="white"/>
<path d="M257.604 402.124C257.762 402.16 258.009 401.304 257.577 400.36C257.154 399.416 256.342 399.037 256.272 399.178C256.175 399.319 256.686 399.831 257.03 400.607C257.392 401.375 257.436 402.107 257.604 402.124Z" fill="white"/>
<path d="M263.778 392.104C263.849 392.263 264.634 392.034 265.604 392.104C266.574 392.157 267.324 392.492 267.421 392.342C267.518 392.219 266.786 391.575 265.648 391.505C264.51 391.425 263.699 391.963 263.778 392.095V392.104Z" fill="white"/>
<path d="M250.865 93.2598C252.779 93.0217 254.358 91.187 254.314 89.2554C254.27 87.3237 252.603 85.5684 250.68 85.4185C251.553 83.9455 251.368 81.9344 250.248 80.6378C249.127 79.35 247.152 78.8826 245.573 79.5441C245.105 77.9211 243.747 76.5893 242.115 76.1571C240.483 75.7249 238.64 76.2012 237.431 77.3831C235.244 76.2717 232.316 76.9156 230.799 78.8473C229.131 78.9355 227.606 80.2056 227.209 81.8198C226.812 83.4339 227.57 85.2685 228.999 86.1241" fill="#263238"/>
<path d="M257.736 114.12C256.775 109.895 254.084 101.357 251.553 93.6565C248.836 85.383 240.219 80.5758 231.751 82.6222L230.913 82.825C221.969 85.5417 219.279 94.662 222.243 103.527L231.345 135.033L252.885 132.652L251.332 126.336C251.332 126.336 259.729 122.879 257.736 114.129V114.12Z" fill="#FFBF9D"/>
<path d="M251.403 126.301C251.403 126.301 245.917 127.977 239.169 125.71C239.169 125.71 243.367 131.337 251.888 128.453L251.412 126.301H251.403Z" fill="#FF9A6C"/>
<path d="M249.657 102.159C249.842 102.812 249.436 103.5 248.757 103.703C248.078 103.906 247.381 103.544 247.205 102.891C247.019 102.239 247.425 101.551 248.104 101.348C248.783 101.145 249.48 101.506 249.657 102.159Z" fill="#263238"/>
<path d="M250.706 98.3753C250.592 98.5781 249.48 98.1018 248.139 98.4282C246.799 98.7369 245.979 99.6631 245.793 99.5307C245.705 99.4778 245.793 99.1427 246.146 98.7281C246.49 98.3135 247.143 97.8372 247.972 97.6432C248.81 97.4491 249.586 97.5814 250.062 97.802C250.547 98.0225 250.759 98.2783 250.706 98.3665V98.3753Z" fill="#263238"/>
<path d="M237.819 105.141C238.005 105.794 237.599 106.482 236.92 106.684C236.241 106.887 235.544 106.526 235.367 105.873C235.182 105.22 235.588 104.532 236.267 104.329C236.946 104.126 237.643 104.488 237.819 105.141Z" fill="#263238"/>
<path d="M237.749 101.824C237.652 102.036 236.505 101.648 235.191 102.08C233.877 102.486 233.136 103.474 232.942 103.359C232.845 103.315 232.907 102.971 233.233 102.53C233.551 102.089 234.15 101.569 234.971 101.304C235.791 101.039 236.576 101.119 237.07 101.304C237.573 101.48 237.802 101.727 237.749 101.824Z" fill="#263238"/>
<path d="M244.849 110.574C244.823 110.503 245.626 110.151 246.931 109.657C247.266 109.542 247.575 109.392 247.575 109.145C247.593 108.88 247.363 108.545 247.099 108.184C246.578 107.434 246.031 106.649 245.458 105.82C243.156 102.45 241.409 99.6454 241.542 99.5484C241.674 99.4602 243.65 102.115 245.952 105.485C246.508 106.314 247.046 107.116 247.557 107.875C247.778 108.236 248.113 108.625 248.06 109.171C248.034 109.454 247.822 109.692 247.619 109.807C247.416 109.93 247.222 109.974 247.054 110.027C245.714 110.424 244.876 110.636 244.849 110.565V110.574Z" fill="#263238"/>
<path d="M236.179 97.4142C236.197 97.8111 234.979 98.0757 233.683 98.7726C232.377 99.4341 231.451 100.29 231.151 100.043C231.01 99.9192 231.081 99.5223 231.398 99.0107C231.707 98.508 232.289 97.917 233.065 97.5112C233.842 97.1055 234.644 96.9644 235.226 97.0085C235.809 97.0438 236.161 97.229 236.179 97.4142Z" fill="#263238"/>
<path d="M249.7 94.6798C249.489 95.0326 248.413 94.8915 247.178 95.0943C245.934 95.2531 244.937 95.7029 244.646 95.4207C244.514 95.2796 244.62 94.9444 245.026 94.5739C245.423 94.2035 246.137 93.833 246.984 93.7095C247.831 93.586 248.616 93.736 249.101 93.9741C249.595 94.2123 249.789 94.5122 249.7 94.6798Z" fill="#263238"/>
<path d="M249.745 89.8637C249.745 89.8637 246.128 84.9596 243.182 84.3157C239.619 83.5395 239.09 87.3676 235.853 87.2529C232.607 87.1382 229.211 86.3885 226.671 89.4845C223.892 92.8715 225.921 94.2916 226.644 98.2167C229.573 114.111 227.782 119.245 225.18 112.047C224.898 111.262 222.49 111.156 221.334 107.813C219.835 103.482 218.362 98.1373 218.6 94.7503C218.794 91.8924 219.87 89.6962 222.093 87.0236C225.603 82.7986 231.469 81.3168 235.562 80.7523C239.654 80.1878 248.466 82.9309 249.745 89.8549V89.8637Z" fill="#263238"/>
<path d="M225.683 111.677C225.303 110.345 223.883 109.56 222.578 110.01C220.99 110.557 219.402 111.915 220.32 115.249C221.952 121.168 227.552 118.31 227.517 118.142C227.491 118.027 226.388 114.147 225.683 111.677Z" fill="#FFBF9D"/>
<path d="M225.612 116.272C225.612 116.272 225.533 116.369 225.374 116.502C225.224 116.625 224.951 116.757 224.607 116.731C223.919 116.669 223.116 115.822 222.798 114.764C222.64 114.226 222.604 113.688 222.684 113.212C222.745 112.726 222.94 112.347 223.239 112.206C223.53 112.047 223.804 112.171 223.927 112.321C224.051 112.462 224.051 112.594 224.077 112.594C224.095 112.603 224.174 112.462 224.06 112.233C224.007 112.118 223.892 112.003 223.725 111.924C223.548 111.844 223.328 111.844 223.116 111.924C222.666 112.083 222.375 112.612 222.296 113.141C222.19 113.67 222.207 114.288 222.393 114.887C222.754 116.069 223.672 117.013 224.598 117.031C225.048 117.031 225.356 116.801 225.497 116.616C225.639 116.422 225.639 116.281 225.612 116.272Z" fill="#FF9A6C"/>
<path d="M223.01 100.096C223.91 100.44 224.862 100.784 225.815 100.652C226.768 100.519 227.711 99.7254 227.641 98.764C227.614 98.3318 227.394 97.8731 227.588 97.4851C227.817 97.0264 228.452 96.9999 228.964 96.9294C230.746 96.6912 232.219 95.0418 232.254 93.2513C232.854 93.8069 233.877 93.5335 234.441 92.9337C235.006 92.3428 235.271 91.5313 235.65 90.808C236.029 90.0847 236.638 89.3703 237.449 89.2909C237.908 89.2468 238.384 89.4144 238.816 89.2644C239.584 89.0086 239.742 87.9943 239.672 87.1916C239.601 86.389 239.478 85.454 240.042 84.8719C240.563 84.3338 241.41 84.3691 242.159 84.2985C242.909 84.228 243.8 83.8399 243.809 83.0901C243.809 82.6932 243.562 82.3492 243.279 82.0758C242.001 80.8409 239.813 80.6734 238.366 81.7142C237.308 79.8883 235.094 78.7946 233.004 79.068C230.904 79.3415 229.052 80.9732 228.505 83.0108C226.971 82.1728 225.021 82.1287 223.451 82.9137C221.881 83.6899 220.734 85.2688 220.479 86.9976C218.935 86.9623 217.418 87.9237 216.783 89.335C216.148 90.7463 216.439 92.5103 217.489 93.6482C216.562 94.5214 215.901 95.8092 216.174 97.044C216.448 98.2877 217.947 99.2227 219.059 98.6141C218.812 99.6902 219.517 100.899 220.576 101.216C221.634 101.525 222.887 100.899 223.257 99.8577" fill="#263238"/>
<path d="M239.248 83.3635C239.248 83.3635 239.266 83.3988 239.275 83.4694C239.284 83.5399 239.31 83.6546 239.31 83.7957C239.319 84.0868 239.31 84.519 239.151 85.0482C238.993 85.5686 238.702 86.2037 238.172 86.777C237.652 87.3503 236.876 87.8796 235.897 88.0648L235.967 87.906C236.276 88.3735 236.373 88.9998 236.241 89.5819C236.126 90.1729 235.861 90.7374 235.57 91.2931C235.42 91.5665 235.306 91.8664 235.067 92.1398C234.838 92.4044 234.538 92.5897 234.203 92.722C233.55 92.9689 232.739 92.9425 232.122 92.4927L232.333 92.378C232.465 93.604 232.077 94.9447 231.178 95.9326C230.71 96.4795 230.066 96.894 229.378 97.044C228.69 97.2027 227.994 97.1586 227.35 97.0881L227.491 96.9822C227.35 97.8025 227.006 98.5523 226.521 99.1609C226.044 99.7695 225.33 100.228 224.58 100.228C223.098 100.272 221.881 99.3285 221.431 98.27L221.581 98.2965C220.973 98.8433 220.232 99.0639 219.605 99.0903C218.97 99.1256 218.423 98.9757 218.026 98.7992C217.621 98.614 217.356 98.3935 217.189 98.2347C217.03 98.0671 216.959 97.9701 216.959 97.9613C216.986 97.926 217.268 98.367 218.071 98.7022C218.468 98.861 218.997 98.9933 219.605 98.9404C220.205 98.8963 220.902 98.6758 221.466 98.1554L221.563 98.0671L221.616 98.1906C222.057 99.1697 223.213 100.052 224.58 99.9988C225.259 99.9988 225.885 99.5843 226.335 99.0109C226.785 98.4376 227.111 97.7143 227.244 96.947L227.261 96.8235H227.385C228.02 96.9029 228.69 96.947 229.325 96.797C229.969 96.6559 230.543 96.2854 230.992 95.765C231.839 94.8389 232.201 93.5776 232.086 92.4133L232.06 92.1222L232.298 92.2986C232.827 92.6867 233.55 92.722 234.141 92.4927C234.432 92.3868 234.706 92.2104 234.909 91.9899C235.103 91.7694 235.226 91.4695 235.385 91.196C235.676 90.6492 235.932 90.1023 236.047 89.5555C236.17 89.0086 236.091 88.4617 235.817 88.0383L235.738 87.906L235.888 87.8796C236.814 87.7208 237.564 87.2269 238.075 86.6888C238.605 86.142 238.896 85.5422 239.072 85.0394C239.398 84.0074 239.231 83.3812 239.275 83.3812L239.248 83.3635Z" fill="#455A64"/>
<path d="M241.348 113.318C243.05 113.22 244.761 113.335 246.437 113.653L246.464 113.688C246.552 114.843 246.517 116.149 245.705 116.978C245.097 117.595 244.135 117.798 243.306 117.551C242.477 117.304 241.851 116.757 241.515 115.964C241.18 115.17 241.268 114.155 241.339 113.318H241.348Z" fill="#FF9A6C"/>
<path d="M244.77 117.41C244.753 117.331 244.117 117.736 243.156 117.357C242.689 117.172 242.195 116.802 241.886 116.219C241.568 115.637 241.436 114.896 241.48 114.111C241.489 113.935 241.507 113.679 241.542 113.573C241.577 113.529 241.507 113.573 241.568 113.556H241.833C242.212 113.582 242.574 113.6 242.936 113.617C243.588 113.644 244.215 113.661 244.805 113.679C245.873 113.706 246.534 113.688 246.534 113.626C246.534 113.564 245.882 113.467 244.823 113.37C244.232 113.317 243.615 113.265 242.962 113.212C242.6 113.185 242.239 113.159 241.859 113.132C241.754 113.132 241.683 113.115 241.551 113.115C241.41 113.088 241.154 113.265 241.136 113.423C241.066 113.697 241.074 113.856 241.048 114.085C241.004 114.923 241.154 115.761 241.542 116.413C241.912 117.075 242.521 117.49 243.059 117.648C243.597 117.825 244.082 117.763 244.373 117.666C244.673 117.56 244.797 117.437 244.779 117.419L244.77 117.41Z" fill="#263238"/>
<path d="M209.842 144.974L176.447 154.8L165.457 140.387C165.528 142.081 151.865 139.938 151.865 139.938C161.603 163.32 166.921 171.135 168.368 171.806C172.037 173.517 199.822 173.27 202.018 172.749C204.214 172.22 224.263 169.362 224.263 169.362L220.594 141.287L212.258 143.924C211.42 144.189 210.609 144.542 209.842 144.983V144.974Z" fill="#455A64"/>
<path d="M290.504 208.799C288.581 201.522 284.33 184.93 284.33 184.93L275.571 133.402L255.928 133.56L254.296 130.112C253.952 129.38 253.15 128.965 252.356 129.115L231.54 132.828C230.587 132.996 229.934 133.896 230.067 134.848L230.455 137.635L214.596 143.519L212.876 166.593L225.639 219.145L226.424 226.545C226.609 228.292 227.526 229.888 228.955 230.964L231.231 232.675L288.775 219.392L290.195 215.493C290.98 213.35 291.086 211.012 290.504 208.799Z" fill="#455A64"/>
<path d="M230.217 231.44L230.755 239.22L292.268 224.878L290.072 214.893L230.217 231.44Z" fill="#455A64"/>
<path d="M284.409 219.771C284.277 219.788 284.33 221.2 284.515 222.937C284.709 224.675 284.965 226.069 285.097 226.051C285.229 226.033 285.177 224.622 284.991 222.884C284.797 221.147 284.541 219.753 284.409 219.771Z" fill="#263238"/>
<path d="M274.627 222.038C274.495 222.064 274.654 223.493 274.98 225.231C275.306 226.968 275.668 228.353 275.8 228.335C275.933 228.309 275.774 226.88 275.448 225.142C275.121 223.405 274.76 222.02 274.627 222.038Z" fill="#263238"/>
<path d="M264.369 225.064C264.237 225.09 264.369 226.448 264.669 228.098C264.969 229.747 265.313 231.07 265.445 231.053C265.577 231.026 265.445 229.668 265.145 228.018C264.845 226.369 264.501 225.046 264.378 225.064H264.369Z" fill="#263238"/>
<path d="M251.562 228.053C251.43 228.08 251.606 229.615 251.959 231.485C252.303 233.355 252.691 234.854 252.823 234.828C252.956 234.801 252.779 233.266 252.426 231.396C252.082 229.526 251.694 228.027 251.562 228.053Z" fill="#263238"/>
<path d="M239.575 230.797C239.452 230.832 239.734 232.27 240.219 233.998C240.704 235.736 241.198 237.112 241.322 237.077C241.445 237.041 241.163 235.604 240.678 233.875C240.193 232.137 239.699 230.761 239.575 230.797Z" fill="#263238"/>
<path d="M275.562 133.41L277.785 133.454C280.484 133.507 283.13 134.248 285.459 135.615L304.864 146.941L300.154 118.839L315.466 115.708C315.466 115.708 324.463 152.251 324.436 158.046C324.383 169.724 315.404 173.746 306.416 170.985C303.735 170.165 271.664 155.567 271.664 155.567L275.562 133.419V133.41Z" fill="#455A64"/>
<path d="M283.898 188.3C284.03 188.282 282.61 177.336 280.722 163.849C278.843 150.363 277.212 139.443 277.079 139.461C276.947 139.479 278.367 150.425 280.255 163.92C282.133 177.406 283.765 188.326 283.898 188.308V188.3Z" fill="#263238"/>
<path d="M270.103 183.14C270.103 183.14 269.988 183.254 269.812 183.51C269.609 183.81 269.353 184.172 269.053 184.613C268.365 185.636 267.43 187.012 266.301 188.688C263.972 192.119 260.691 196.829 256.925 201.91C253.15 206.99 249.595 211.489 246.975 214.717C245.696 216.287 244.656 217.575 243.871 218.527L243.033 219.568C242.848 219.806 242.751 219.939 242.768 219.956C242.786 219.974 242.9 219.859 243.103 219.63C243.35 219.365 243.641 219.039 244.003 218.642C244.779 217.778 245.882 216.507 247.222 214.92C249.904 211.744 253.511 207.272 257.295 202.183C261.07 197.094 264.308 192.348 266.574 188.864C267.703 187.127 268.603 185.698 269.203 184.71C269.476 184.251 269.706 183.872 269.891 183.563C270.041 183.299 270.111 183.157 270.103 183.149V183.14Z" fill="#263238"/>
<path d="M263.372 170.641C263.372 170.641 263.09 171.021 262.667 171.753C262.199 172.564 261.591 173.596 260.867 174.849C259.35 177.46 257.233 181.058 254.799 184.975C252.365 188.891 250.08 192.384 248.404 194.898C247.61 196.097 246.94 197.103 246.428 197.879C245.961 198.585 245.723 198.99 245.749 199.008C245.776 199.026 246.067 198.664 246.578 197.985C247.09 197.314 247.813 196.318 248.678 195.083C250.424 192.613 252.761 189.138 255.196 185.222C257.63 181.297 259.712 177.671 261.159 175.008C261.882 173.676 262.455 172.591 262.826 171.841C263.205 171.083 263.399 170.659 263.372 170.641Z" fill="#263238"/>
<path d="M255.426 133.595C255.39 133.525 254.12 134.151 251.994 134.963C249.869 135.774 246.861 136.709 243.439 137.265C240.016 137.82 236.859 137.882 234.592 137.785C232.316 137.688 230.922 137.494 230.905 137.573C230.905 137.609 231.249 137.679 231.875 137.794C232.501 137.909 233.427 138.032 234.565 138.12C236.85 138.306 240.043 138.288 243.509 137.732C246.976 137.168 250.01 136.171 252.109 135.271C253.167 134.822 254.005 134.425 254.561 134.107C255.126 133.798 255.426 133.622 255.408 133.587L255.426 133.595Z" fill="#263238"/>
<g opacity="0.3">
<path d="M266.892 188.371C265.313 200.102 257.348 210.766 246.552 215.608L266.892 188.371Z" fill="black"/>
</g>
<path d="M210.944 156.299C210.812 156.334 212.373 163.17 214.428 171.567C216.483 179.973 218.247 186.756 218.38 186.73C218.503 186.694 216.951 179.858 214.896 171.461C212.841 163.064 211.076 156.273 210.944 156.308V156.299Z" fill="#263238"/>
<path d="M161.62 130.976C161.62 130.976 163.517 130.579 164.452 132.211C165.387 133.843 166.277 137.574 166.189 139.4C166.189 139.4 168.879 139.867 168.976 140.97C169.073 142.072 168.412 143.148 165.828 143.113C165.828 143.113 164.108 146.376 162.432 145.221C160.756 144.066 161.285 142.716 161.285 142.716C161.285 142.716 159.75 145.256 157.378 141.993C157.378 141.993 156.328 142.813 155.155 142.522C153.999 142.24 153.532 141.437 153.532 141.437C153.532 141.437 152.068 142.24 151.212 141.199C150.357 140.158 147.543 135.827 147.075 134.425C146.608 133.022 147.04 131.161 148.231 130.412C149.422 129.662 151.415 130.359 151.415 130.359C151.415 130.359 153.285 128.4 155.569 129.962C155.569 129.962 158.921 126.989 161.611 130.967L161.62 130.976Z" fill="#FFBF9D"/>
<path d="M150.921 134.266C150.789 134.319 151.353 135.933 152.13 137.864C152.518 138.835 152.844 139.717 153.056 140.361C153.267 141.004 153.356 141.419 153.426 141.41C153.488 141.41 153.514 140.969 153.382 140.281C153.25 139.593 152.967 138.676 152.579 137.697C151.794 135.747 151.036 134.23 150.921 134.274V134.266Z" fill="#FF9A6C"/>
<path d="M154.652 133.366C154.529 133.401 154.979 135.377 155.702 137.776C156.425 140.175 157.245 142.045 157.369 141.992C157.492 141.948 156.866 140.025 156.152 137.635C155.428 135.245 154.776 133.331 154.643 133.366H154.652Z" fill="#FF9A6C"/>
<path d="M159.565 133.419C159.433 133.472 160.191 135.51 160.782 138.103C161.064 139.399 161.338 140.599 161.373 141.437C161.417 142.292 161.126 142.769 161.197 142.804C161.232 142.848 161.664 142.381 161.708 141.446C161.752 140.52 161.532 139.32 161.25 137.997C160.65 135.351 159.68 133.366 159.565 133.419Z" fill="#FF9A6C"/>
<path d="M165.166 134.01C165.016 134.054 165.66 136.136 165.907 138.756C166.022 140.061 165.995 141.278 165.934 142.116C165.863 142.963 165.519 143.395 165.572 143.439C165.607 143.492 166.092 143.086 166.26 142.169C166.419 141.278 166.489 140.07 166.375 138.711C166.11 136.004 165.254 133.975 165.157 134.01H165.166Z" fill="#FF9A6C"/>
<path d="M166.967 261.665C166.967 261.665 161.601 256.248 160.067 289.014C158.617 319.94 156.489 364.523 163.915 383.657C164.721 385.726 166.145 387.506 168.035 388.667C169.57 389.617 171.706 390.566 174.47 390.999C180.938 392.008 206.498 391.44 206.498 391.44C206.498 391.44 221.003 391.44 221.224 379.495C221.402 369.669 221.224 348.297 221.224 348.297L166.959 261.665H166.967Z" fill="#263238"/>
<g opacity="0.3">
<path d="M166.967 261.665C166.967 261.665 161.601 256.248 160.067 289.014C158.617 319.94 156.489 364.523 163.915 383.657C164.721 385.726 166.145 387.506 168.035 388.667C169.57 389.617 171.706 390.566 174.47 390.999C180.938 392.008 206.498 391.44 206.498 391.44C206.498 391.44 221.003 391.44 221.224 379.495C221.402 369.669 221.224 348.297 221.224 348.297L166.959 261.665H166.967Z" fill="black"/>
</g>
<path d="M245.91 204.976C245.91 204.976 244.283 210.511 240.942 211.088C237.594 211.664 211.22 212.47 211.22 212.47L208.643 217.777H203.675L200.064 196.49L203.141 197.125C204.192 197.346 205.074 198.058 205.498 199.05C205.964 200.143 206.99 200.898 208.168 201.017L245.919 204.967L245.91 204.976Z" fill="#263238"/>
<path d="M244.8 205.798C246.758 205.645 248.191 203.874 247.911 201.924C247.046 195.845 243.859 184.028 232.118 182.281C221.724 180.73 214.179 181.205 210.195 181.722C208.372 181.959 207.465 183.612 207.253 185.443C206.253 193.802 207.058 204.17 209.474 205.442C211.992 206.773 236.229 206.485 244.8 205.807V205.798Z" fill="#F1BF37"/>
<path d="M229.065 182.332C229.065 182.332 229.328 182.612 229.735 183.172C230.142 183.723 230.701 184.553 231.363 185.596C232.685 187.682 234.355 190.666 235.847 194.125C237.339 197.583 238.374 200.847 238.984 203.238C239.289 204.433 239.51 205.408 239.637 206.086C239.764 206.765 239.823 207.138 239.789 207.146C239.755 207.146 239.645 206.79 239.467 206.12C239.298 205.459 239.026 204.493 238.687 203.314C238.001 200.957 236.932 197.736 235.449 194.294C233.957 190.861 232.346 187.868 231.1 185.757C230.481 184.698 229.955 183.85 229.591 183.265C229.226 182.68 229.04 182.349 229.065 182.332Z" fill="#263238"/>
<path d="M239.95 283.851C239.95 283.851 245.317 278.433 246.851 311.199C248.301 342.125 250.429 386.709 243.002 405.842C242.197 407.911 240.773 409.691 238.882 410.853C237.348 411.802 235.211 412.752 232.448 413.184C225.979 414.193 200.42 413.625 200.42 413.625C200.42 413.625 185.915 413.625 185.694 401.68C185.516 391.854 185.694 370.483 185.694 370.483L239.959 283.851H239.95Z" fill="#263238"/>
<path d="M239.95 283.85C239.95 283.85 239.874 283.994 239.704 284.274C239.526 284.562 239.281 284.969 238.95 285.512C238.272 286.605 237.288 288.208 236 290.285C233.406 294.456 229.625 300.526 224.852 308.189C215.281 323.508 201.742 345.177 185.855 370.592L185.889 370.482C185.889 379.791 185.889 389.557 185.898 399.67C185.898 400.934 185.847 402.214 186.059 403.443C186.245 404.681 186.635 405.893 187.254 406.987C188.483 409.199 190.611 410.827 192.976 411.819C197.766 413.964 203.226 413.328 208.55 413.523C214.162 413.574 219.714 413.59 225.182 413.438C227.904 413.336 230.642 413.294 233.253 412.811C234.559 412.548 235.83 412.141 237.026 411.598C238.221 411.047 239.374 410.386 240.306 409.487C241.247 408.597 242.01 407.529 242.545 406.359C242.824 405.783 242.994 405.147 243.206 404.536C243.409 403.918 243.613 403.307 243.816 402.688C244.037 402.078 244.189 401.451 244.342 400.823C244.494 400.196 244.647 399.569 244.8 398.95C245.139 397.712 245.342 396.449 245.571 395.194C246.071 392.702 246.342 390.193 246.681 387.734C246.834 386.496 246.927 385.267 247.046 384.038C247.156 382.817 247.292 381.596 247.36 380.384C248.046 370.686 248.14 361.428 248.08 352.781C248.004 344.126 247.758 336.072 247.478 328.713C247.19 321.363 246.893 314.708 246.614 308.867C246.3 303.035 245.834 298.016 245.181 293.955C244.52 289.912 243.723 286.758 242.578 284.918C242.29 284.469 241.985 284.096 241.654 283.859C241.324 283.613 240.985 283.528 240.713 283.545C240.162 283.604 239.959 283.876 239.959 283.85C239.959 283.85 240.001 283.791 240.12 283.715C240.239 283.638 240.434 283.528 240.713 283.503C240.993 283.477 241.358 283.562 241.697 283.799C242.036 284.037 242.358 284.41 242.655 284.868C243.833 286.724 244.664 289.878 245.351 293.922C246.029 297.991 246.52 303.009 246.86 308.85C247.165 314.692 247.487 321.346 247.792 328.696C248.089 336.055 248.36 344.117 248.445 352.773C248.521 361.428 248.445 370.694 247.767 380.409C247.707 381.622 247.572 382.842 247.461 384.072C247.343 385.301 247.25 386.539 247.097 387.776C246.766 390.252 246.487 392.761 245.986 395.271C245.766 396.525 245.554 397.797 245.215 399.043C245.062 399.67 244.91 400.298 244.757 400.934C244.613 401.569 244.452 402.197 244.232 402.816C244.028 403.434 243.825 404.053 243.613 404.681C243.401 405.299 243.231 405.935 242.934 406.546C242.375 407.766 241.578 408.877 240.595 409.81C239.611 410.751 238.416 411.437 237.195 411.997C235.966 412.565 234.66 412.972 233.329 413.243C230.642 413.735 227.912 413.777 225.182 413.879C219.706 414.031 214.153 414.014 208.533 413.964C205.854 413.921 203.192 413.879 200.547 413.845C197.876 413.777 195.231 413.251 192.79 412.226C190.365 411.208 188.144 409.521 186.864 407.198C186.22 406.054 185.821 404.782 185.626 403.502C185.414 402.214 185.474 400.934 185.465 399.67C185.465 389.557 185.465 379.782 185.474 370.474V370.414L185.508 370.364C201.445 344.973 215.035 323.33 224.648 308.028C229.455 300.398 233.27 294.345 235.89 290.191C237.195 288.131 238.204 286.546 238.891 285.461C239.23 284.935 239.493 284.528 239.671 284.249C239.849 283.977 239.942 283.842 239.942 283.842L239.95 283.85Z" fill="#455A64"/>
<path d="M244.927 255.62L233.05 247.821C230.354 235.69 208.329 210.52 208.329 210.52C208.329 210.52 185.406 155.238 165.628 142.199C145.85 129.161 49.2567 130.806 49.2567 130.806L44.1447 130.882C44.1447 130.882 -58.2131 129.169 -77.9912 142.199C-97.7693 155.238 -120.693 210.52 -120.693 210.52C-120.693 210.52 -142.717 235.69 -145.413 247.821L-157.29 255.62C-159.689 257.197 -161.097 259.91 -160.995 262.784C-160.274 283.257 -156.332 364.548 -149.465 373.67C-142.887 382.402 -80.738 377.773 -63.8422 377.748C-39.6049 377.705 35.8622 376.714 35.8622 376.714L146.774 376.442C159.354 375.094 228.548 383.555 237.085 373.67C244.545 365.032 247.894 283.257 248.615 262.784C248.716 259.91 247.309 257.197 244.91 255.62H244.927Z" fill="#F1BF37"/>
<path d="M160.27 145.904C159.77 145.031 158.854 144.48 157.854 144.429L45.552 139.614L44.6703 139.58L44.6534 139.656L-70.2851 144.429C-71.2939 144.471 -72.201 145.031 -72.7012 145.904L-101.983 196.998C-102.975 198.719 -101.762 200.881 -99.7785 200.932C-96.5655 201.025 -91.7926 201.076 -86.2568 200.847C-77.2537 200.474 -5.61842 200.644 32.1914 200.771L32.1745 200.847C32.1745 200.847 36.5574 200.83 43.7802 200.805C51.0031 200.83 55.386 200.847 55.386 200.847L55.369 200.771C93.1788 200.652 164.814 200.483 173.817 200.847C179.65 201.085 184.618 201.025 187.831 200.923C189.594 200.864 190.662 198.948 189.789 197.414L160.27 145.904Z" fill="#455A64"/>
<path d="M-91.0805 191.225L179.014 190.496L181.201 195.862L50.6979 196.719L-93.6238 195.778L-91.0805 191.225Z" fill="#F1BF37"/>
<g opacity="0.5">
<path d="M-91.0805 191.225L178.243 190.496L181.201 195.862L50.6979 196.719L-93.6238 195.778L-91.0805 191.225Z" fill="black"/>
</g>
<path d="M10.1328 192.454C10.1328 189.504 8.9968 181.171 6.26703 178.95C4.15612 177.237 -0.837154 176.72 -3.30412 176.576C-3.38042 176.576 -3.45671 176.576 -3.54149 176.576C-4.84703 176.593 -13.5789 176.822 -16.19 178.95C-18.9198 181.171 -20.0642 189.504 -20.0557 192.454V192.539C-20.0557 194.37 -18.5722 195.854 -16.7325 195.854H6.81807C8.64922 195.854 10.1413 194.37 10.1413 192.539V192.454H10.1328Z" fill="#263238"/>
<g opacity="0.3">
<path d="M10.1328 192.454C10.1328 189.504 8.9968 181.171 6.26703 178.95C4.15612 177.237 -0.837154 176.72 -3.30412 176.576C-3.38042 176.576 -3.45671 176.576 -3.54149 176.576C-4.84703 176.593 -13.5789 176.822 -16.19 178.95C-18.9198 181.171 -20.0642 189.504 -20.0557 192.454V192.539C-20.0557 194.37 -18.5722 195.854 -16.7325 195.854H6.81807C8.64922 195.854 10.1413 194.37 10.1413 192.539V192.454H10.1328Z" fill="black"/>
</g>
<path d="M45.6707 246.033C45.6707 246.033 45.552 246.05 45.3061 246.058C45.0433 246.058 44.6957 246.067 44.2379 246.075C43.28 246.084 41.9066 246.092 40.1433 246.109C36.5658 246.117 31.4199 246.143 25.0787 246.16C12.337 246.16 -5.22002 246.16 -24.6166 246.16C-34.3234 246.143 -43.5639 246.126 -51.9821 246.109C-56.187 246.101 -60.1799 246.084 -63.9185 246.075C-65.7836 246.075 -67.5893 246.058 -69.3272 246.058C-71.0481 245.948 -72.6843 246.431 -73.9135 247.389C-76.3466 249.432 -78.5423 251.28 -80.4752 252.908C-81.4416 253.722 -82.3487 254.476 -83.1795 255.171C-84.0527 255.841 -84.9937 256.248 -85.8669 256.46C-86.7401 256.672 -87.5539 256.689 -88.2321 256.638C-88.9103 256.604 -89.4868 256.57 -89.9615 256.545C-90.4108 256.519 -90.7669 256.494 -91.0212 256.477C-91.2586 256.46 -91.3857 256.452 -91.3857 256.443C-91.3857 256.443 -91.2586 256.435 -91.0212 256.443C-90.7584 256.443 -90.4108 256.452 -89.953 256.46C-89.4783 256.477 -88.9018 256.486 -88.2236 256.511C-87.5369 256.553 -86.757 256.519 -85.9008 256.299C-85.053 256.079 -84.1459 255.672 -83.3066 255.01C-82.4843 254.307 -81.5942 253.544 -80.6362 252.73C-78.7118 251.085 -76.5246 249.22 -74.1 247.152C-72.8284 246.134 -71.0651 245.617 -69.3187 245.727C-67.5808 245.727 -65.7751 245.727 -63.91 245.727C-60.1714 245.727 -56.1785 245.727 -51.9737 245.727C-43.5639 245.727 -34.3149 245.736 -24.6082 245.744C-5.21155 245.795 12.3454 245.838 25.0872 245.863C31.4284 245.897 36.5743 245.931 40.1518 245.948C41.9151 245.965 43.2885 245.982 44.2464 245.99C44.6957 245.999 45.0518 246.007 45.3146 246.016C45.552 246.016 45.6791 246.033 45.6791 246.041L45.6707 246.033Z" fill="#263238"/>
<path d="M223.368 366.871C222.911 365.913 221.944 365.227 220.037 365.439C214.738 366.04 159.193 367.278 151.547 365.439C143.891 363.599 118.391 334.657 107.599 332.69C98.5451 331.037 54.5213 330.155 40.5672 330.553C26.6047 330.147 -17.4192 331.037 -26.4647 332.69C-37.2566 334.665 -62.3756 366.43 -70.0308 368.27C-77.686 370.11 -133.612 366.04 -138.911 365.439C-140.827 365.218 -141.793 365.905 -142.242 366.871C-143.183 368.863 -141.658 371.161 -139.445 371.229C-127.619 371.559 -81.9332 372.085 -73.3879 371.932C-64.4186 371.771 27.2914 370.093 42.6612 369.813C65.8303 369.957 144.994 370.466 153.378 370.584C163.263 370.72 208.77 371.559 220.605 371.229C222.809 371.169 224.343 368.872 223.402 366.871H223.368Z" fill="#263238"/>
<path d="M24.9771 143.412C25.4348 143.412 26.8082 151.39 33.2427 151.237C39.6771 151.085 55.386 151.237 55.386 151.237V141.276L24.9771 143.421V143.412Z" fill="#263238"/>
<path d="M-68.7506 363.692C-68.7506 363.692 -68.5726 363.658 -68.2843 363.472C-67.9876 363.294 -67.5722 363.006 -67.0381 362.582C-65.9785 361.751 -64.4779 360.454 -62.579 358.724C-58.798 355.274 -53.4402 350.154 -46.9972 343.651C-45.3865 342.024 -43.7164 340.311 -41.987 338.497C-40.2406 336.717 -38.596 334.682 -36.4851 332.961C-34.3742 331.266 -31.9072 329.85 -29.1944 328.866C-26.4816 327.875 -23.5399 327.29 -20.5049 327.061C-18.9874 326.951 -17.4445 326.951 -15.9016 326.934C-14.3502 326.917 -12.7819 326.9 -11.1966 326.891C-8.02598 326.857 -4.79603 326.832 -1.49827 326.798C5.08878 326.739 11.9047 326.671 18.8902 326.603C46.8322 326.374 72.1207 326.162 90.4491 326.01C99.5964 325.959 106.997 325.908 112.135 325.882C114.686 325.882 116.67 325.874 118.027 325.874C118.688 325.874 119.196 325.874 119.561 325.874C119.909 325.874 120.087 325.891 120.087 325.891C120.087 325.891 119.909 325.908 119.561 325.916C119.196 325.925 118.688 325.933 118.027 325.95C116.662 325.976 114.678 326.001 112.135 326.043C106.997 326.111 99.5964 326.196 90.4491 326.315C72.1207 326.501 46.8322 326.756 18.8902 327.035C11.9047 327.095 5.08878 327.162 -1.49827 327.222C-4.78756 327.247 -8.02598 327.281 -11.1966 327.307C-12.7819 327.324 -14.3502 327.332 -15.9016 327.349C-17.453 327.366 -18.979 327.366 -20.4795 327.468C-23.4805 327.697 -26.3883 328.265 -29.0588 329.231C-31.7377 330.197 -34.1707 331.579 -36.2562 333.249C-38.3332 334.928 -39.9863 336.954 -41.7496 338.734C-43.4791 340.54 -45.1661 342.244 -46.7768 343.872C-53.2452 350.357 -58.6369 355.444 -62.4603 358.86C-64.3762 360.564 -65.8937 361.844 -66.9788 362.658C-67.5129 363.065 -67.9452 363.353 -68.2504 363.514C-68.5556 363.684 -68.7421 363.692 -68.7421 363.692H-68.7506Z" fill="#263238"/>
<g opacity="0.3">
<path d="M-38.5791 300.831C11.0823 314.056 63.5498 310.733 114.602 304.841C122.486 303.934 131.057 302.62 136.431 296.787" fill="black"/>
</g>
<path d="M146.503 255.044C127.106 252.305 86.329 250.94 45.8487 250.966C5.36845 250.94 -35.417 252.305 -54.8052 255.044C-60.8836 255.9 -64.8426 261.936 -63.1047 267.828C-63.0877 267.896 -63.0623 267.963 -63.0453 268.04C-60.9259 275.008 -52.5586 297.245 -39.2404 300.577C-33.0603 302.119 1.76549 303.603 38.931 303.908V303.959C41.2369 303.959 43.5428 303.959 45.8487 303.942C48.1546 303.951 50.4605 303.959 52.7664 303.959V303.908C89.9234 303.611 124.758 302.119 130.938 300.577C144.264 297.245 152.623 275.008 154.743 268.04C154.76 267.972 154.785 267.904 154.802 267.828C156.531 261.936 152.581 255.9 146.503 255.044Z" fill="#263238"/>
<path d="M151.411 297.627C151.411 297.627 151.242 297.728 150.902 297.906C150.546 298.093 150.038 298.347 149.385 298.695C148.707 299.042 147.884 299.458 146.901 299.958C146.409 300.204 145.884 300.484 145.307 300.746C144.731 301.001 144.112 301.28 143.459 301.569C138.279 303.985 130.522 306.977 120.638 309.605C110.736 312.166 98.7146 314.353 85.2354 315.497C71.7645 316.743 56.8865 317.015 41.2963 316.955C25.6976 316.879 10.8195 316.175 -2.60045 314.395C-16.0119 312.657 -27.9229 309.851 -37.6212 306.596C-47.3364 303.383 -54.8306 299.78 -59.8578 297.059C-61.1294 296.397 -62.2145 295.745 -63.1725 295.194C-64.1304 294.651 -64.9189 294.159 -65.5547 293.761C-66.182 293.362 -66.6652 293.066 -67.0043 292.854C-67.3265 292.65 -67.4875 292.532 -67.4875 292.532C-67.4875 292.532 -67.3095 292.625 -66.9789 292.82C-66.6313 293.023 -66.1481 293.312 -65.5038 293.693C-64.8595 294.083 -64.0626 294.558 -63.0962 295.092C-62.1382 295.626 -61.0446 296.27 -59.7645 296.915C-54.7204 299.585 -47.2262 303.137 -37.511 306.308C-27.8211 309.512 -15.9271 312.284 -2.53263 313.997C10.8619 315.752 25.723 316.447 41.3132 316.515C56.8949 316.582 71.7645 316.32 85.2099 315.099C98.6638 313.971 110.676 311.827 120.57 309.309C130.455 306.723 138.203 303.781 143.4 301.416C144.053 301.136 144.671 300.865 145.256 300.619C145.833 300.365 146.358 300.085 146.85 299.848C147.834 299.365 148.673 298.958 149.351 298.627C150.021 298.305 150.529 298.059 150.894 297.881C151.242 297.711 151.428 297.644 151.428 297.644L151.411 297.627Z" fill="#263238"/>
<path d="M153.802 265.87C153.802 265.988 105.378 266.09 45.6452 266.09C-14.0876 266.09 -62.5198 265.988 -62.5198 265.87C-62.5198 265.751 -14.1045 265.649 45.6452 265.649C105.395 265.649 153.802 265.751 153.802 265.87Z" fill="#455A64"/>
<path d="M153.802 259.282C153.802 259.401 105.378 259.503 45.6452 259.503C-14.0876 259.503 -62.5198 259.401 -62.5198 259.282C-62.5198 259.164 -14.1045 259.062 45.6452 259.062C105.395 259.062 153.802 259.164 153.802 259.282Z" fill="#455A64"/>
<path d="M123.189 252.696C123.189 252.815 88.5247 252.916 45.7725 252.916C3.02021 252.916 -31.653 252.815 -31.653 252.696C-31.653 252.577 3.00325 252.476 45.7725 252.476C88.5416 252.476 123.189 252.577 123.189 252.696Z" fill="#455A64"/>
<path d="M153.802 272.55C153.802 272.668 105.378 272.77 45.6452 272.77C-14.0876 272.77 -62.5198 272.668 -62.5198 272.55C-62.5198 272.431 -14.1045 272.329 45.6452 272.329C105.395 272.329 153.802 272.431 153.802 272.55Z" fill="#455A64"/>
<path d="M148.995 279.23C148.995 279.349 102.496 279.451 45.1451 279.451C-12.2055 279.451 -58.7133 279.349 -58.7133 279.23C-58.7133 279.111 -12.2224 279.01 45.1451 279.01C102.513 279.01 148.995 279.111 148.995 279.23Z" fill="#455A64"/>
<path d="M146.893 285.911C146.893 286.029 101.648 286.131 45.8488 286.131C-9.95036 286.131 -55.2035 286.029 -55.2035 285.911C-55.2035 285.792 -9.96731 285.69 45.8488 285.69C101.665 285.69 146.893 285.792 146.893 285.911Z" fill="#455A64"/>
<path d="M141.67 292.591C141.67 292.71 98.757 292.812 45.8402 292.812C-7.07661 292.812 -49.9984 292.71 -49.9984 292.591C-49.9984 292.473 -7.09357 292.371 45.8402 292.371C98.774 292.371 141.67 292.473 141.67 292.591Z" fill="#455A64"/>
<path d="M135.177 299.263C135.177 299.382 95.4172 299.484 46.3831 299.484C-2.65102 299.484 -42.4192 299.382 -42.4192 299.263C-42.4192 299.145 -2.66798 299.043 46.3831 299.043C95.4341 299.043 135.177 299.145 135.177 299.263Z" fill="#455A64"/>
<path d="M143.501 360.276C143.501 360.395 98.0619 360.496 42.0253 360.496C-14.0112 360.496 -59.4594 360.395 -59.4594 360.276C-59.4594 360.157 -14.0282 360.056 42.0253 360.056C98.0788 360.056 143.501 360.157 143.501 360.276Z" fill="#455A64"/>
<path d="M40.9486 367.669H34.9974L34.5735 360.276H41.3979L40.9486 367.669Z" fill="#455A64"/>
<path d="M96.6207 367.669H90.6695L90.2456 360.276H97.07L96.6207 367.669Z" fill="#455A64"/>
<path d="M140.356 357.597C129.59 348.322 115.085 334.055 107.624 332.69C98.5705 331.037 54.5466 330.155 40.5926 330.553C26.63 330.147 -17.3938 331.037 -26.4394 332.69C-33.3825 333.961 -46.2599 347.568 -56.594 357.597H140.373H140.356Z" fill="#455A64"/>
<path d="M135.482 354.249C135.482 354.367 93.3569 354.469 41.398 354.469C-10.5608 354.469 -52.6942 354.367 -52.6942 354.249C-52.6942 354.13 -10.5778 354.028 41.398 354.028C93.3738 354.028 135.482 354.13 135.482 354.249Z" fill="#263238"/>
<path d="M131.794 349.993C131.794 350.111 91.4748 350.213 41.7625 350.213C-7.94979 350.213 -48.2775 350.111 -48.2775 349.993C-48.2775 349.874 -7.96674 349.772 41.7625 349.772C91.4918 349.772 131.794 349.874 131.794 349.993Z" fill="#263238"/>
<path d="M126.19 345.635C126.19 345.753 88.0585 345.855 41.0335 345.855C-5.99138 345.855 -44.1318 345.753 -44.1318 345.635C-44.1318 345.516 -6.00834 345.414 41.0335 345.414C88.0754 345.414 126.19 345.516 126.19 345.635Z" fill="#263238"/>
<path d="M122.452 341.277C122.452 341.396 86.134 341.498 41.3387 341.498C-3.45668 341.498 -39.783 341.396 -39.783 341.277C-39.783 341.159 -3.47364 341.057 41.3387 341.057C86.1509 341.057 122.452 341.159 122.452 341.277Z" fill="#263238"/>
<path d="M116.229 337.123C116.229 337.242 82.5564 337.344 41.0249 337.344C-0.506596 337.344 -34.1879 337.242 -34.1879 337.123C-34.1879 337.005 -0.523548 336.903 41.0249 336.903C82.5733 336.903 116.229 337.005 116.229 337.123Z" fill="#263238"/>
<path d="M109.176 332.978C109.176 333.097 78.7501 333.199 41.2369 333.199C3.72381 333.199 -26.7106 333.097 -26.7106 332.978C-26.7106 332.86 3.70686 332.758 41.2369 332.758C78.767 332.758 109.176 332.86 109.176 332.978Z" fill="#263238"/>
<g opacity="0.3">
<path d="M55.386 200.847L-102.195 200.601C-102.195 200.601 -95.6669 208.401 -83.6627 208.333C-72.7097 208.273 33.8784 208.324 52.5883 208.333C52.5883 208.333 53.0461 208.333 53.8939 208.333C54.8688 208.333 55.386 208.333 55.386 208.333C72.6547 208.324 164.382 208.273 173.86 208.333C184.329 208.401 189.467 200.847 189.467 200.847H55.386Z" fill="black"/>
</g>
<path d="M190.026 197.491L160.211 145.803C159.744 144.998 158.897 144.48 157.964 144.438L55.3859 140.038L45.5435 139.614C44.3651 139.563 43.1867 139.563 42.0083 139.614L32.1659 140.038L-70.4124 144.438C-71.3449 144.48 -72.1926 144.989 -72.6589 145.803L-102.474 197.491C-103.432 199.152 -102.424 201.263 -100.516 201.551C-100.092 201.611 -99.6429 201.678 -99.1597 201.729C-96.5571 202.018 7.50474 201.831 43.7717 201.755C80.0471 201.831 184.109 202.018 186.703 201.729C187.178 201.678 187.636 201.619 188.059 201.551C189.958 201.263 190.976 199.161 190.018 197.491H190.026ZM176.301 195.32L43.7801 196.219L-88.7408 195.32C-90.8347 195.303 -92.1318 193.04 -91.0806 191.234C-85.3667 181.349 -71.0143 156.612 -68.7168 153.755C-64.5459 148.575 -0.0317993 147.888 34.2853 147.897C34.4888 147.948 34.7007 147.973 34.9211 147.973C36.9303 147.956 39.9653 147.939 43.7801 147.922C47.595 147.939 50.63 147.956 52.6392 147.973C52.8596 147.973 53.0715 147.948 53.275 147.897C87.5921 147.897 152.115 148.575 156.277 153.755C158.575 156.612 172.927 181.349 178.641 191.234C179.684 193.04 178.387 195.303 176.301 195.32Z" fill="#263238"/>
<path d="M77.4277 192.454C77.4277 189.504 78.5637 181.171 81.2934 178.95C83.4043 177.237 88.3976 176.72 90.8646 176.576C90.9409 176.576 91.0172 176.576 91.102 176.576C92.4075 176.593 101.139 176.822 103.75 178.95C106.48 181.171 107.625 189.504 107.616 192.454V192.539C107.616 194.37 106.133 195.854 104.293 195.854H80.7424C78.9112 195.854 77.4192 194.37 77.4192 192.539V192.454H77.4277Z" fill="#263238"/>
<g opacity="0.3">
<path d="M77.4277 192.454C77.4277 189.504 78.5637 181.171 81.2934 178.95C83.4043 177.237 88.3976 176.72 90.8646 176.576C90.9409 176.576 91.0172 176.576 91.102 176.576C92.4075 176.593 101.139 176.822 103.75 178.95C106.48 181.171 107.625 189.504 107.616 192.454V192.539C107.616 194.37 106.133 195.854 104.293 195.854H80.7424C78.9112 195.854 77.4192 194.37 77.4192 192.539V192.454H77.4277Z" fill="black"/>
</g>
<path d="M89.3215 190.284C89.3215 185.461 91.1781 171.82 95.6543 168.183C99.1131 165.377 107.285 164.538 111.321 164.301C111.448 164.301 111.575 164.292 111.702 164.301C113.839 164.326 128.132 164.708 132.413 168.192C136.889 171.829 138.746 185.478 138.746 190.293V190.437C138.746 193.438 136.313 195.871 133.311 195.871H94.7556C91.7546 195.871 89.3215 193.438 89.3215 190.437V190.293V190.284Z" fill="#263238"/>
<g opacity="0.3">
<path d="M136.55 331.333C136.55 331.333 135.914 335.191 144.943 347.949C147.698 351.849 156.455 359.708 159.728 362.599C160.524 363.302 161.559 363.667 162.627 363.624C171.715 363.226 215.535 361.2 222.809 359.063C226.098 358.097 228.574 356.969 230.422 355.884C233.626 353.994 235.5 350.476 235.364 346.763C235.135 340.464 234.745 329.384 234.745 326.484C234.745 322.364 231.88 318.897 226.539 319.55C223.021 319.973 136.55 331.342 136.55 331.342V331.333ZM164.806 330.452L221.597 325.297L223.241 348.195L181.439 354.969L164.814 330.46L164.806 330.452Z" fill="black"/>
</g>
<g opacity="0.3">
<path d="M233.44 272.551C233.44 272.551 237.721 285.555 210.508 291.608C182.956 297.737 142.188 308.843 142.188 308.843L164.085 293.236C164.085 293.236 227.073 282.732 228.641 273.093C230.439 262.072 228.641 249.687 228.641 249.687L233.44 272.551Z" fill="black"/>
</g>
<path d="M127.14 330.943C127.14 330.943 127.233 330.901 127.428 330.842C127.64 330.782 127.92 330.697 128.276 330.596C129.056 330.384 130.158 330.07 131.556 329.68C134.422 328.926 138.567 327.849 143.73 326.662C154.047 324.263 168.4 321.389 184.338 318.795C192.315 317.506 199.919 316.32 206.871 315.438C210.338 314.98 213.636 314.539 216.722 314.124C219.799 313.708 222.69 313.302 225.361 313.395C228.014 313.471 230.472 314.124 232.176 315.412C233.906 316.65 235.084 318.091 235.856 319.363C236.636 320.635 237.009 321.745 237.178 322.508C237.356 323.271 237.356 323.687 237.356 323.687C237.271 323.72 237.288 321.966 235.712 319.456C234.932 318.219 233.745 316.811 232.032 315.616C230.345 314.37 227.963 313.759 225.344 313.708C222.715 313.641 219.833 314.056 216.756 314.488C213.67 314.912 210.381 315.362 206.913 315.836C199.979 316.735 192.374 317.93 184.397 319.227C168.459 321.821 154.107 324.644 143.781 326.967C138.618 328.112 134.456 329.146 131.582 329.841C130.166 330.197 129.056 330.477 128.276 330.672C127.911 330.757 127.631 330.825 127.411 330.876C127.216 330.918 127.114 330.935 127.114 330.935L127.14 330.943Z" fill="#263238"/>
<path d="M236.899 297.322C236.899 297.322 236.865 297.152 236.856 296.838C236.848 296.474 236.831 296.016 236.814 295.448C236.78 294.185 236.737 292.455 236.678 290.345C236.551 286.038 236.263 280.095 235.686 273.542C235.101 266.989 234.33 261.089 233.702 256.824C233.389 254.739 233.126 253.035 232.931 251.78C232.846 251.221 232.778 250.771 232.728 250.407C232.685 250.093 232.668 249.924 232.685 249.924C232.702 249.924 232.745 250.085 232.812 250.39C232.889 250.746 232.982 251.195 233.101 251.746C233.338 252.925 233.652 254.646 234.008 256.773C234.72 261.029 235.534 266.938 236.119 273.5C236.695 280.061 236.932 286.021 236.983 290.336C237.009 292.489 237 294.236 236.983 295.448C236.966 296.007 236.949 296.474 236.941 296.838C236.924 297.152 236.915 297.322 236.899 297.322Z" fill="#263238"/>
<path d="M217.977 238.741C217.892 238.741 217.875 237.266 217.434 234.918C217.002 232.578 216.162 229.391 215.069 225.915C213.975 222.439 212.848 219.336 212.034 217.098C211.644 216.047 211.322 215.157 211.059 214.445C210.83 213.817 210.72 213.461 210.745 213.453C210.771 213.444 210.94 213.775 211.22 214.377C211.491 214.987 211.881 215.878 212.322 216.988C213.221 219.209 214.391 222.303 215.484 225.788C216.586 229.272 217.383 232.493 217.739 234.867C217.849 235.452 217.875 236.003 217.934 236.478C217.994 236.953 218.011 237.36 218.011 237.699C218.011 238.368 218.011 238.741 217.977 238.741Z" fill="#263238"/>
<path d="M212.839 244.676C212.839 244.676 227.022 239.505 228.837 250.5C230.651 261.496 230.464 272.44 228.082 276.281C225.7 280.129 203.802 285.369 203.802 285.369L165.933 293.693C165.933 293.693 163.212 294.261 164.848 291.176C166.688 287.725 176.717 265.599 182.515 260.224C193.214 250.297 212.839 244.668 212.839 244.668V244.676Z" fill="#F5F5F5"/>
<g opacity="0.3">
<path d="M198.86 286.462C198.86 286.462 198.801 260.546 200.699 257.672C202.598 254.798 224.92 244.464 224.92 244.464C224.92 244.464 222.75 242.616 218.29 243.464C213.831 244.311 206.413 246.329 200.259 249.491C194.095 252.653 184.236 257.18 180.557 262.419C178.955 264.691 175.606 270.134 172.41 276.034C168.256 283.707 164.322 291.913 164.322 292.362C164.322 293.303 164.102 294.159 167.781 293.379C176.31 291.557 198.86 286.479 198.86 286.479V286.462Z" fill="black"/>
</g>
<path d="M186.517 284.122C191.592 284.122 195.706 280.008 195.706 274.932C195.706 269.857 191.592 265.743 186.517 265.743C181.441 265.743 177.327 269.857 177.327 274.932C177.327 280.008 181.441 284.122 186.517 284.122Z" fill="#F5F5F5"/>
<path d="M177.335 274.933C177.335 274.933 177.225 274.11 177.539 272.669C177.853 271.253 178.751 269.151 180.871 267.506C181.922 266.701 183.253 266.014 184.796 265.726C186.33 265.455 188.068 265.489 189.721 266.107C190.552 266.396 191.366 266.828 192.103 267.379C192.849 267.922 193.536 268.591 194.096 269.371C195.257 270.906 195.91 272.889 195.927 274.924C195.91 276.967 195.248 278.942 194.096 280.485C193.536 281.265 192.849 281.935 192.103 282.478C191.366 283.029 190.56 283.461 189.721 283.749C188.06 284.368 186.33 284.41 184.796 284.131C183.253 283.842 181.922 283.156 180.871 282.35C178.751 280.706 177.853 278.603 177.539 277.188C177.225 275.746 177.335 274.924 177.335 274.924C177.395 274.924 177.335 275.746 177.708 277.145C178.064 278.519 178.989 280.545 181.057 282.105C182.083 282.868 183.371 283.512 184.855 283.775C186.33 284.02 187.992 283.97 189.577 283.368C190.374 283.088 191.145 282.673 191.849 282.138C192.561 281.621 193.214 280.977 193.739 280.231C194.842 278.764 195.46 276.874 195.477 274.933C195.46 272.991 194.842 271.101 193.739 269.634C193.205 268.888 192.561 268.244 191.849 267.727C191.145 267.201 190.374 266.777 189.577 266.497C187.992 265.895 186.33 265.845 184.855 266.09C183.371 266.345 182.083 266.998 181.057 267.761C178.989 269.32 178.064 271.338 177.708 272.72C177.344 274.119 177.395 274.949 177.335 274.941V274.933Z" fill="#263238"/>
<path d="M186.517 274.534C183.143 274.534 180.209 276.407 178.692 279.163C177.988 277.882 177.59 276.424 177.59 274.864C177.59 269.93 181.591 265.929 186.525 265.929C191.459 265.929 195.46 269.93 195.46 274.864C195.46 276.424 195.062 277.891 194.358 279.163C192.841 276.399 189.908 274.534 186.534 274.534H186.517Z" fill="#E0E0E0"/>
<path d="M182.558 274.627C182.558 276.814 184.329 278.586 186.517 278.586C188.704 278.586 190.476 276.814 190.476 274.627C190.476 272.44 188.704 270.668 186.517 270.668C184.329 270.668 182.558 272.44 182.558 274.627Z" fill="white"/>
<path d="M182.558 274.627C182.558 274.627 182.532 274.542 182.524 274.373C182.515 274.203 182.524 273.957 182.6 273.644C182.719 273.025 183.1 272.092 184.033 271.363C184.923 270.626 186.449 270.185 187.941 270.727C189.424 271.219 190.721 272.788 190.704 274.636C190.721 276.484 189.424 278.061 187.941 278.544C186.449 279.078 184.923 278.637 184.033 277.908C183.109 277.17 182.727 276.246 182.608 275.628C182.541 275.314 182.524 275.06 182.532 274.898C182.532 274.729 182.549 274.644 182.566 274.644C182.608 274.644 182.6 275 182.769 275.594C182.939 276.179 183.337 277.026 184.219 277.671C185.067 278.323 186.457 278.679 187.797 278.179C189.128 277.713 190.272 276.306 190.255 274.653C190.272 272.999 189.128 271.592 187.797 271.126C186.457 270.626 185.067 270.982 184.219 271.626C183.337 272.27 182.939 273.118 182.769 273.703C182.6 274.297 182.608 274.653 182.566 274.653L182.558 274.627Z" fill="#263238"/>
<path d="M183.058 268.413C182.905 268.175 183.507 267.387 184.965 266.844C186.381 266.302 188.712 266.141 190.908 267.302C193.095 268.472 194.265 270.498 194.604 271.973C194.96 273.482 194.647 274.432 194.367 274.432C194.045 274.449 193.782 273.627 193.146 272.541C192.527 271.456 191.451 270.1 189.865 269.252C188.28 268.413 186.55 268.277 185.304 268.37C184.05 268.447 183.219 268.693 183.058 268.413Z" fill="white"/>
<path d="M180.752 269.871C180.252 269.524 180.006 269.007 180.26 268.761C180.514 268.515 181.023 268.769 181.354 269.286C181.684 269.795 181.879 270.261 181.795 270.346C181.71 270.422 181.252 270.219 180.743 269.871H180.752Z" fill="white"/>
<path d="M-135.808 366.871C-135.35 365.913 -134.384 365.227 -132.476 365.439C-127.178 366.04 -71.6331 367.278 -63.9863 365.439C-56.3311 363.599 -30.8307 334.657 -20.0388 332.69C-10.9847 331.037 33.0391 330.155 46.9931 330.553C60.9557 330.147 104.98 331.037 114.025 332.69C124.817 334.665 149.936 366.43 157.591 368.27C165.246 370.11 221.173 366.04 226.471 365.439C228.387 365.218 229.354 365.905 229.803 366.871C230.744 368.863 229.218 371.161 227.005 371.229C215.179 371.559 169.494 372.085 160.948 371.932C151.979 371.771 60.269 370.093 44.8992 369.813C21.7301 369.957 -57.4332 370.466 -65.8175 370.584C-75.7023 370.72 -121.21 371.559 -133.044 371.229C-135.249 371.169 -136.783 368.872 -135.842 366.871H-135.808Z" fill="#263238"/>
<path d="M62.5834 143.412C62.1256 143.412 62.4986 151.381 56.0641 151.228C49.6297 151.075 37.5068 151.228 37.5068 151.228L32.1744 141.267L62.5834 143.412Z" fill="#263238"/>
<path d="M59.7265 154.001C60.6251 154.001 61.4643 154.425 61.9899 155.154C63.5244 157.248 66.5933 161.58 66.678 162.936C66.7882 164.742 65.7709 166.217 63.9059 166.446C62.1341 166.658 28.19 166.471 24.6718 166.446C24.4514 166.446 24.2395 166.42 24.0275 166.361C23.1035 166.132 20.6958 165.369 20.8739 163.724C21.0434 162.224 23.6545 157.672 25.0279 155.366C25.5365 154.518 26.4436 154.001 27.4355 154.001H59.7265Z" fill="#263238"/>
<path d="M163.551 141.267C163.551 141.267 163.602 141.326 163.678 141.445C163.763 141.589 163.873 141.767 164 141.987C164.297 142.496 164.704 143.2 165.212 144.09C166.272 145.963 167.773 148.617 169.612 151.872C173.308 158.493 178.378 167.59 183.99 177.644C188.526 185.85 192.705 193.412 196.037 199.448L195.994 199.397C199.996 202.551 203.294 205.154 205.616 206.985C206.735 207.883 207.617 208.587 208.253 209.096C208.533 209.325 208.762 209.511 208.931 209.655C209.084 209.782 209.16 209.859 209.151 209.859C209.151 209.859 209.058 209.808 208.897 209.698L208.185 209.172C207.541 208.68 206.634 208.002 205.489 207.137C203.141 205.332 199.818 202.78 195.765 199.669L195.74 199.643L195.723 199.609C192.366 193.59 188.161 186.037 183.6 177.847C178.039 167.776 173.003 158.654 169.341 152.016C167.544 148.727 166.094 146.048 165.06 144.158C164.577 143.251 164.195 142.53 163.915 142.013C163.797 141.784 163.703 141.597 163.627 141.453C163.568 141.326 163.534 141.258 163.542 141.25L163.551 141.267Z" fill="#263238"/>
<path d="M147.901 136.494C147.918 136.443 148.766 136.604 150.106 137.019C151.436 137.452 153.276 138.164 155.014 139.461C156.743 140.766 157.947 142.335 158.736 143.488C159.516 144.658 159.906 145.429 159.855 145.454C159.795 145.488 159.312 144.776 158.481 143.666C157.642 142.572 156.43 141.072 154.751 139.808C153.064 138.554 151.292 137.808 150.004 137.308C148.707 136.816 147.884 136.553 147.901 136.485V136.494Z" fill="#263238"/>
<path d="M156.311 363.692C156.311 363.692 156.125 363.692 155.82 363.514C155.514 363.345 155.082 363.065 154.548 362.658C153.463 361.853 151.945 360.564 150.029 358.86C146.206 355.444 140.814 350.357 134.346 343.872C132.727 342.252 131.048 340.54 129.319 338.734C127.564 336.954 125.902 334.928 123.825 333.249C121.74 331.579 119.307 330.197 116.628 329.231C113.949 328.256 111.05 327.688 108.049 327.468C106.548 327.357 105.022 327.357 103.471 327.349C101.919 327.332 100.351 327.324 98.7656 327.307C95.595 327.281 92.3651 327.247 89.0673 327.222C82.4803 327.162 75.6643 327.103 68.6788 327.035C40.7369 326.756 15.4483 326.501 -2.8801 326.315C-12.0274 326.205 -19.4283 326.111 -24.5657 326.043C-27.1089 326.001 -29.0927 325.967 -30.4575 325.95C-31.1188 325.933 -31.6274 325.925 -31.992 325.916C-32.3396 325.908 -32.5176 325.891 -32.5176 325.891C-32.5176 325.891 -32.3396 325.874 -31.992 325.874C-31.6274 325.874 -31.1188 325.874 -30.4575 325.874C-29.0927 325.874 -27.1089 325.874 -24.5657 325.882C-19.4283 325.916 -12.0274 325.959 -2.8801 326.01C15.4483 326.162 40.7369 326.366 68.6788 326.603C75.6643 326.671 82.4803 326.73 89.0673 326.798C92.3566 326.832 95.595 326.857 98.7656 326.891C100.351 326.908 101.919 326.925 103.471 326.934C105.014 326.951 106.557 326.951 108.074 327.061C111.109 327.298 114.042 327.875 116.763 328.866C119.476 329.85 121.943 331.266 124.054 332.961C126.165 334.682 127.818 336.717 129.556 338.497C131.277 340.303 132.956 342.024 134.566 343.651C141.009 350.154 146.359 355.282 150.148 358.724C152.039 360.445 153.539 361.751 154.607 362.582C155.133 362.997 155.557 363.294 155.853 363.472C156.15 363.658 156.328 363.675 156.32 363.692H156.311Z" fill="#263238"/>
<g opacity="0.3">
<path d="M201.98 313.141C204.599 310.547 207.244 307.936 210.355 305.969C213.467 304.002 217.943 301.696 220.766 303.527C222.199 305.087 223.352 306.893 224.174 308.834C224.454 309.496 224.691 310.275 224.377 310.92C223.979 311.725 222.953 311.929 222.063 312.039C215.578 312.853 209.092 313.666 202.599 314.489C202.226 314.54 201.751 314.54 201.573 314.209C201.378 313.853 201.691 313.429 201.98 313.141Z" fill="white"/>
</g>
<path d="M206.947 368.482L206.93 368.542C206.515 369.983 207.6 371.585 209.101 371.551L223.19 371.314C224.292 371.288 225.208 370.195 225.344 369.101L225.437 368.321C225.606 366.931 224.318 365.659 222.928 365.761L208.948 366.787C208.016 366.855 207.193 367.575 206.939 368.482H206.947Z" fill="white"/>
<path d="M-55.9412 360.276C-55.9412 360.157 -10.5015 360.056 45.535 360.056C101.572 360.056 147.02 360.157 147.02 360.276C147.02 360.395 101.589 360.496 45.535 360.496C-10.5185 360.496 -55.9412 360.395 -55.9412 360.276Z" fill="#455A64"/>
<path d="M102.275 367.669H108.235L108.65 360.276H101.834L102.275 367.669Z" fill="#455A64"/>
<path d="M46.6117 367.669H52.5629L52.9783 360.276H46.1624L46.6117 367.669Z" fill="#455A64"/>
<path d="M-52.8043 357.597C-42.0378 348.322 -27.5328 334.055 -20.0725 332.69C-11.0185 331.037 33.0054 330.155 46.9594 330.553C60.9219 330.147 104.946 331.037 113.991 332.69C120.934 333.961 133.812 347.568 144.146 357.597H-52.8043Z" fill="#455A64"/>
<path d="M233.702 352.74C233.702 352.74 233.516 352.629 233.185 352.375L231.736 351.264C230.447 350.256 228.624 348.831 226.344 347.051L226.454 347.085C219.477 347.975 208.957 349.332 197.198 350.832C191.476 351.544 186.042 352.214 181.201 352.816L181.269 352.79C175.385 355.953 170.409 358.631 166.857 360.539C165.119 361.454 163.729 362.192 162.745 362.709C162.288 362.946 161.923 363.124 161.643 363.269C161.389 363.396 161.262 363.455 161.253 363.447C161.253 363.438 161.372 363.362 161.609 363.218C161.881 363.065 162.237 362.853 162.678 362.599C163.653 362.056 165.026 361.285 166.738 360.327C170.273 358.386 175.224 355.656 181.074 352.443L181.108 352.426H181.15C185.991 351.807 191.417 351.12 197.147 350.391C208.914 348.95 219.435 347.653 226.42 346.797H226.48L226.522 346.831C228.769 348.653 230.566 350.12 231.837 351.146C232.431 351.637 232.897 352.027 233.245 352.316C233.558 352.587 233.719 352.731 233.711 352.74H233.702Z" fill="#263238"/>
<path d="M161.253 336.556C161.253 336.556 158.371 331.689 161.253 330.46C164.56 329.053 219.765 322.432 222.012 322.228C226.488 321.83 228.116 323.856 229.167 329.112C230.218 334.368 232.533 347.407 228.116 351.196C223.699 354.986 216.756 356.664 203.09 357.504C189.416 358.343 182.227 358.809 175.496 355.02C168.765 351.23 161.262 336.547 161.262 336.547L161.253 336.556Z" fill="#263238"/>
<path d="M164.085 293.236C163.949 293.176 164.458 291.633 165.56 288.912C166.662 286.191 168.349 282.291 170.664 277.569C171.842 275.221 173.13 272.644 174.673 269.948C176.216 267.26 177.92 264.404 180.074 261.589C181.159 260.207 182.422 258.766 183.846 257.571C185.27 256.35 186.856 255.248 188.517 254.273C190.179 253.298 191.874 252.416 193.595 251.492C195.316 250.577 197.071 249.653 198.885 248.762C202.497 246.982 206.151 245.422 209.821 244.286C211.652 243.718 213.492 243.261 215.298 242.896C217.095 242.523 218.96 242.26 220.825 242.345C222.682 242.438 224.589 242.955 226.107 244.091C227.616 245.236 228.557 246.838 229.125 248.364C229.71 249.898 230.015 251.399 230.286 252.823C230.549 254.222 230.803 255.57 231.049 256.85C232.066 261.987 232.829 266.167 233.253 269.075C233.677 271.982 233.77 273.61 233.626 273.636C233.474 273.661 233.092 272.084 232.405 269.236C231.719 266.362 230.735 262.25 229.523 257.181C229.218 255.909 228.921 254.544 228.616 253.162C228.302 251.789 227.972 250.373 227.421 249.042C226.887 247.711 226.09 246.49 224.954 245.66C223.809 244.837 222.317 244.439 220.732 244.38C219.13 244.329 217.451 244.575 215.713 244.965C213.975 245.329 212.22 245.795 210.457 246.346C206.93 247.465 203.395 248.991 199.843 250.738C198.063 251.611 196.325 252.518 194.613 253.425C192.9 254.341 191.188 255.214 189.602 256.138C188.009 257.053 186.542 258.054 185.194 259.181C183.829 260.3 182.736 261.53 181.659 262.852C179.556 265.497 177.819 268.269 176.233 270.88C174.648 273.491 173.283 276.001 172.028 278.29C169.561 282.885 167.662 286.666 166.323 289.268C164.992 291.871 164.212 293.303 164.068 293.236H164.085Z" fill="#263238"/>
<path d="M213.899 265.446C209.601 265.446 205.862 267.828 203.929 271.346C203.031 269.718 202.522 267.853 202.522 265.87C202.522 259.588 207.617 254.493 213.899 254.493C220.181 254.493 225.276 259.588 225.276 265.87C225.276 267.853 224.767 269.718 223.869 271.346C221.936 267.828 218.197 265.446 213.899 265.446Z" fill="#E0E0E0"/>
<path d="M208.99 265.497C208.99 268.201 211.186 270.397 213.89 270.397C216.595 270.397 218.791 268.201 218.791 265.497C218.791 262.792 216.595 260.597 213.89 260.597C211.186 260.597 208.99 262.792 208.99 265.497Z" fill="white"/>
<path d="M208.991 265.497C208.991 265.497 208.965 265.387 208.965 265.183C208.965 264.98 208.982 264.666 209.067 264.284C209.228 263.522 209.694 262.377 210.839 261.478C211.941 260.58 213.806 260.046 215.637 260.707C216.536 261.021 217.4 261.631 218.019 262.479C218.655 263.318 219.011 264.395 219.02 265.505C219.011 266.616 218.655 267.692 218.019 268.532C217.4 269.379 216.536 269.99 215.637 270.304C213.806 270.965 211.941 270.431 210.839 269.532C209.694 268.633 209.228 267.489 209.067 266.726C208.982 266.336 208.957 266.031 208.965 265.827C208.965 265.624 208.982 265.514 208.991 265.514C209.033 265.514 209.025 265.955 209.228 266.692C209.431 267.421 209.932 268.472 211.025 269.286C212.085 270.1 213.823 270.558 215.501 269.931C217.163 269.354 218.604 267.582 218.579 265.514C218.596 263.445 217.163 261.673 215.501 261.097C213.823 260.47 212.085 260.919 211.025 261.741C209.932 262.555 209.431 263.615 209.228 264.335C209.025 265.073 209.033 265.514 208.991 265.514V265.497Z" fill="#263238"/>
<path d="M202.522 265.87C202.522 265.87 202.505 265.624 202.522 265.141C202.522 264.904 202.531 264.607 202.59 264.259C202.632 263.912 202.675 263.513 202.802 263.073C203.192 261.326 204.311 258.732 206.93 256.706C208.228 255.714 209.872 254.866 211.771 254.519C213.662 254.18 215.807 254.23 217.85 254.993C218.875 255.35 219.876 255.884 220.783 256.562C221.707 257.232 222.546 258.054 223.241 259.02C224.674 260.911 225.479 263.361 225.505 265.87C225.488 268.388 224.674 270.83 223.241 272.72C222.546 273.678 221.707 274.509 220.783 275.178C219.867 275.857 218.875 276.391 217.85 276.747C215.807 277.518 213.662 277.561 211.771 277.222C209.864 276.874 208.219 276.026 206.93 275.034C204.311 273.008 203.2 270.414 202.802 268.668C202.675 268.227 202.632 267.828 202.59 267.481C202.531 267.133 202.522 266.837 202.522 266.599C202.514 266.124 202.522 265.87 202.522 265.87C202.59 265.87 202.522 266.887 202.963 268.625C203.404 270.329 204.54 272.847 207.109 274.789C208.38 275.738 209.982 276.543 211.831 276.866C213.662 277.179 215.73 277.12 217.705 276.365C218.697 276.018 219.655 275.501 220.528 274.839C221.419 274.195 222.224 273.39 222.885 272.466C224.259 270.635 225.03 268.286 225.056 265.87C225.03 263.454 224.259 261.106 222.885 259.275C222.224 258.351 221.419 257.545 220.528 256.901C219.647 256.24 218.697 255.723 217.705 255.375C215.739 254.62 213.67 254.561 211.831 254.875C209.982 255.197 208.38 256.002 207.109 256.952C204.54 258.893 203.395 261.402 202.963 263.115C202.522 264.853 202.59 265.879 202.522 265.87Z" fill="#263238"/>
<path d="M209.601 257.799C209.448 257.57 210.228 256.655 212 256.036C213.73 255.417 216.553 255.256 219.189 256.655C221.817 258.07 223.267 260.495 223.716 262.275C224.191 264.098 223.869 265.251 223.597 265.251C223.267 265.268 223.012 264.234 222.266 262.843C221.537 261.453 220.189 259.69 218.163 258.604C216.129 257.528 213.916 257.392 212.356 257.562C210.779 257.714 209.779 258.087 209.609 257.799H209.601Z" fill="white"/>
<path d="M206.752 259.605C206.252 259.258 206.032 258.707 206.329 258.418C206.625 258.13 207.176 258.367 207.507 258.876C207.838 259.385 207.99 259.876 207.871 260.004C207.744 260.122 207.261 259.953 206.761 259.605H206.752Z" fill="white"/>
<path d="M142.187 308.842C142.035 308.249 157.006 303.959 175.623 299.254C194.239 294.549 209.456 291.217 209.601 291.811C209.753 292.404 194.782 296.694 176.157 301.399C157.54 306.104 142.331 309.435 142.179 308.842H142.187Z" fill="#263238"/>
<path d="M231.871 246.583C231.871 246.583 231.846 246.498 231.812 246.329C231.778 246.159 231.727 245.905 231.642 245.583C231.464 244.938 231.168 243.98 230.532 242.87C229.896 241.776 228.87 240.539 227.319 239.623C226.937 239.386 226.497 239.216 226.064 239.013C225.598 238.877 225.14 238.682 224.64 238.589C224.14 238.504 223.623 238.36 223.089 238.351C222.555 238.317 221.995 238.334 221.435 238.385C219.163 238.58 216.713 239.157 214.111 239.869C211.508 240.581 208.77 241.463 205.905 242.454C200.191 244.464 193.951 246.871 187.61 249.821C186.822 250.194 186.042 250.576 185.287 250.983C184.533 251.381 183.855 251.881 183.185 252.407C181.862 253.458 180.667 254.637 179.641 255.908C177.708 258.545 175.936 261.232 174.241 263.733C170.858 268.769 167.942 273.397 165.56 277.323C163.186 281.256 161.347 284.478 160.092 286.716C159.473 287.818 158.99 288.682 158.642 289.293C158.481 289.573 158.354 289.785 158.261 289.963C158.176 290.115 158.125 290.183 158.117 290.183C158.117 290.183 158.142 290.098 158.218 289.946C158.303 289.768 158.422 289.539 158.566 289.259C158.871 288.657 159.329 287.767 159.939 286.639C161.152 284.376 162.949 281.121 165.289 277.161C167.637 273.211 170.528 268.565 173.902 263.513C175.606 260.986 177.335 258.341 179.302 255.646C180.345 254.34 181.566 253.145 182.905 252.068C183.583 251.542 184.287 251.017 185.067 250.601C185.838 250.186 186.618 249.804 187.415 249.423C193.782 246.464 200.03 244.074 205.769 242.073C208.643 241.09 211.398 240.216 214.018 239.513C216.629 238.818 219.104 238.258 221.41 238.072C221.986 238.021 222.554 238.012 223.114 238.055C223.674 238.072 224.191 238.224 224.708 238.317C225.225 238.419 225.691 238.623 226.166 238.767C226.607 238.987 227.056 239.165 227.446 239.411C229.031 240.377 230.066 241.658 230.684 242.785C231.303 243.93 231.583 244.904 231.727 245.566C231.804 245.896 231.837 246.151 231.854 246.329C231.871 246.498 231.871 246.591 231.863 246.591L231.871 246.583Z" fill="#263238"/>
<g opacity="0.3">
<path d="M235.398 251.382C236.237 251.662 240.841 254.527 242.79 255.621C244.74 256.714 246.444 258.435 247.012 260.597C247.572 262.75 246.953 265.022 246.342 267.158C244.333 274.152 242.002 286.725 239.993 293.71C238.424 281.028 236.712 259.427 235.398 251.373" fill="white"/>
</g>
<path d="M172.266 351.993C172.249 351.874 185.33 349.959 201.488 347.729C217.646 345.491 230.752 343.778 230.769 343.897C230.786 344.016 217.706 345.932 201.547 348.161C185.398 350.399 172.283 352.112 172.266 351.993Z" fill="#455A64"/>
<path d="M176.437 355.198C176.437 355.198 176.623 355.138 176.979 355.079C177.378 355.011 177.895 354.926 178.539 354.825C179.896 354.613 181.862 354.324 184.295 353.985C189.162 353.307 195.884 352.468 203.328 351.586C210.737 350.704 217.451 349.899 222.368 349.314C224.767 349.026 226.726 348.789 228.141 348.619C228.786 348.551 229.311 348.492 229.71 348.449C230.066 348.416 230.261 348.407 230.261 348.416C230.261 348.432 230.074 348.475 229.718 348.534C229.32 348.602 228.803 348.687 228.158 348.789C226.802 349 224.835 349.289 222.402 349.628C217.536 350.306 210.813 351.145 203.37 352.027C195.961 352.909 189.255 353.714 184.329 354.299C181.93 354.587 179.972 354.825 178.556 354.994C177.912 355.062 177.386 355.121 176.988 355.164C176.632 355.198 176.437 355.206 176.437 355.198Z" fill="#455A64"/>
<path d="M185.601 357.597C185.558 357.597 186.118 357.512 187.076 357.393C188.11 357.258 189.492 357.088 191.171 356.876C194.697 356.452 199.445 355.884 204.692 355.249C209.94 354.655 214.696 354.121 218.222 353.714C219.901 353.545 221.291 353.401 222.326 353.299C223.292 353.214 223.835 353.172 223.835 353.206C223.835 353.239 223.309 353.333 222.343 353.468C221.308 353.612 219.926 353.799 218.256 354.028C214.798 354.477 210.025 355.071 204.743 355.689C199.462 356.308 194.68 356.834 191.213 357.19C187.754 357.538 185.567 357.716 185.609 357.605L185.601 357.597Z" fill="#455A64"/>
<path d="M169.205 348.348C169.189 348.229 182.956 346.313 199.954 344.084C216.959 341.846 230.752 340.133 230.761 340.252C230.778 340.371 217.01 342.287 200.004 344.516C183.007 346.754 169.214 348.467 169.197 348.348H169.205Z" fill="#455A64"/>
<path d="M166.815 344.957C166.798 344.838 181.057 342.863 198.648 340.549C216.247 338.234 230.532 336.454 230.549 336.573C230.566 336.691 216.315 338.667 198.707 340.981C181.108 343.295 166.832 345.076 166.815 344.949V344.957Z" fill="#455A64"/>
<path d="M164.127 340.956C164.11 340.837 178.768 338.811 196.859 336.429C214.959 334.047 229.642 332.216 229.65 332.343C229.667 332.461 215.01 334.488 196.91 336.87C178.819 339.252 164.136 341.083 164.119 340.956H164.127Z" fill="#455A64"/>
<path d="M162.067 336.869C162.05 336.751 176.971 334.691 195.384 332.266C213.806 329.841 228.743 327.976 228.76 328.104C228.777 328.222 213.865 330.282 195.443 332.707C177.03 335.131 162.084 336.996 162.067 336.869Z" fill="#455A64"/>
<path d="M159.982 332.784C159.965 332.665 175.004 330.588 193.57 328.146C212.136 325.705 227.2 323.823 227.217 323.942C227.234 324.06 212.195 326.137 193.629 328.579C175.063 331.02 159.999 332.902 159.982 332.784Z" fill="#455A64"/>
<path d="M208.601 323.458C208.719 323.432 210.372 330.732 212.297 339.76C214.221 348.789 215.679 356.13 215.561 356.156C215.442 356.181 213.789 348.882 211.864 339.853C209.94 330.825 208.482 323.483 208.601 323.458Z" fill="#455A64"/>
<path d="M214.153 322.534C214.272 322.508 215.925 329.807 217.85 338.836C219.774 347.865 221.232 355.206 221.114 355.232C220.995 355.257 219.342 347.958 217.417 338.929C215.493 329.901 214.035 322.559 214.153 322.534Z" fill="#455A64"/>
<path d="M219.698 321.61C219.816 321.584 221.385 328.493 223.207 337.03C225.03 345.576 226.403 352.519 226.285 352.544C226.166 352.57 224.598 345.669 222.775 337.123C220.961 328.587 219.579 321.635 219.698 321.61Z" fill="#455A64"/>
<path d="M225.717 322.873C225.717 322.873 225.844 323.187 225.997 323.772C226.149 324.357 226.353 325.204 226.582 326.264C227.056 328.375 227.633 331.3 228.201 334.547C228.777 337.734 229.294 340.617 229.693 342.846C229.871 343.838 230.023 344.677 230.142 345.364C230.244 345.957 230.278 346.297 230.252 346.297C230.218 346.297 230.125 345.983 229.973 345.398C229.82 344.813 229.617 343.965 229.388 342.906C228.913 340.795 228.336 337.87 227.768 334.615C227.192 331.427 226.675 328.545 226.276 326.315C226.098 325.323 225.946 324.484 225.827 323.797C225.725 323.204 225.691 322.865 225.717 322.865V322.873Z" fill="#455A64"/>
<path d="M202.192 324.611C202.31 324.585 203.913 331.63 205.769 340.345C207.626 349.06 209.033 356.147 208.914 356.173C208.796 356.198 207.193 349.153 205.337 340.438C203.48 331.723 202.073 324.636 202.192 324.611Z" fill="#455A64"/>
<path d="M195.808 325.899C195.927 325.874 197.529 332.936 199.394 341.676C201.251 350.416 202.666 357.52 202.548 357.546C202.429 357.571 200.827 350.51 198.962 341.769C197.105 333.037 195.689 325.933 195.808 325.908V325.899Z" fill="#455A64"/>
<path d="M189.229 326.247C189.348 326.221 190.942 333.224 192.782 341.879C194.63 350.544 196.02 357.58 195.901 357.605C195.783 357.631 194.189 350.637 192.349 341.973C190.51 333.317 189.111 326.272 189.229 326.247Z" fill="#455A64"/>
<path d="M182.753 327.094C182.871 327.069 184.457 334.029 186.288 342.642C188.119 351.255 189.509 358.258 189.391 358.283C189.272 358.309 187.687 351.349 185.855 342.735C184.024 334.122 182.634 327.12 182.753 327.094Z" fill="#455A64"/>
<path d="M176.361 328.358C176.479 328.332 177.963 334.843 179.684 342.897C181.396 350.95 182.693 357.503 182.575 357.529C182.456 357.554 180.972 351.044 179.251 342.99C177.539 334.936 176.242 328.383 176.361 328.358Z" fill="#455A64"/>
<path d="M169.824 328.901C169.943 328.875 171.342 334.962 172.944 342.49C174.546 350.018 175.75 356.148 175.631 356.173C175.513 356.199 174.114 350.12 172.512 342.584C170.909 335.056 169.706 328.935 169.824 328.909V328.901Z" fill="#455A64"/>
<path d="M163.39 329.952C163.509 329.927 164.373 333.513 165.323 337.955C166.272 342.397 166.942 346.025 166.823 346.051C166.705 346.076 165.84 342.49 164.89 338.048C163.941 333.606 163.271 329.977 163.39 329.952Z" fill="#455A64"/>
<path d="M-47.9298 354.249C-47.9298 354.13 -5.80491 354.028 46.1539 354.028C98.1128 354.028 140.246 354.13 140.246 354.249C140.246 354.367 98.1298 354.469 46.1539 354.469C-5.82187 354.469 -47.9298 354.367 -47.9298 354.249Z" fill="#263238"/>
<path d="M-44.2336 349.993C-44.2336 349.874 -3.91444 349.772 45.7979 349.772C95.5102 349.772 135.838 349.874 135.838 349.993C135.838 350.111 95.5271 350.213 45.7979 350.213C-3.9314 350.213 -44.2336 350.111 -44.2336 349.993Z" fill="#263238"/>
<path d="M-38.6299 345.635C-38.6299 345.516 -0.497902 345.414 46.527 345.414C93.552 345.414 131.692 345.516 131.692 345.635C131.692 345.753 93.5689 345.855 46.527 345.855C-0.514854 345.855 -38.6299 345.753 -38.6299 345.635Z" fill="#263238"/>
<path d="M-34.8999 341.277C-34.8999 341.159 1.4179 341.057 46.2132 341.057C91.0086 341.057 127.335 341.159 127.335 341.277C127.335 341.396 91.0255 341.498 46.2132 341.498C1.40094 341.498 -34.8999 341.396 -34.8999 341.277Z" fill="#263238"/>
<path d="M-28.6688 337.123C-28.6688 337.005 5.00397 336.903 46.5355 336.903C88.0669 336.903 121.748 337.005 121.748 337.123C121.748 337.242 88.0839 337.344 46.5355 337.344C4.98702 337.344 -28.6688 337.242 -28.6688 337.123Z" fill="#263238"/>
<path d="M-21.6156 332.978C-21.6156 332.86 8.81031 332.758 46.3234 332.758C83.8366 332.758 114.271 332.86 114.271 332.978C114.271 333.097 83.8535 333.199 46.3234 333.199C8.79336 333.199 -21.6156 333.097 -21.6156 332.978Z" fill="#263238"/>
<path d="M44.8739 150.559H42.568V154.704H44.8739V150.559Z" fill="#263238"/>
<g opacity="0.3">
<path d="M-85.0275 228.28C-85.0275 228.28 -80.8735 226.864 -81.6873 223.753C-81.6873 223.753 -69.6407 230.806 -53.2452 230.56C-36.8581 230.314 23.1968 233.985 23.1968 233.985L30.0806 243.489C30.0806 243.489 -71.6075 241.132 -75.38 243.59L-85.0275 228.28Z" fill="white"/>
</g>
<g opacity="0.3">
<path d="M-58.8405 139.589C-58.3318 139.589 45.8996 135.129 45.73 133.764C45.5605 132.4 -0.743866 132.569 -21.0815 133.764C-41.4106 134.96 -58.8405 139.589 -58.8405 139.589Z" fill="white"/>
</g>
</svg>
