<svg width="367" height="428" viewBox="0 0 367 428" fill="none" xmlns="http://www.w3.org/2000/svg">
<g clip-path="url(#clip0_363_4306)">
<path d="M117.248 22.7679C117.969 17.4729 110.512 13.133 104.898 12.6806C102.217 12.4628 99.4516 12.8817 96.9044 11.9936C91.4079 10.0834 89.2126 2.97869 83.8668 0.733342C79.8617 -0.959045 75.2533 0.549023 71.3655 2.50951C67.4777 4.47 63.6401 6.91642 59.2999 7.20128C55.5294 7.43587 51.4237 6.04509 48.1224 7.88829C45.659 9.2623 44.3687 12.0941 42.1064 13.7697C39.8943 15.4119 36.9952 15.747 34.2469 15.8978C31.4986 16.0486 28.6498 16.0821 26.1361 17.2215C23.6225 18.361 21.5613 21.0252 22.0807 23.723L117.248 22.7846V22.7679Z" fill="#EBEBEB"/>
<path d="M78.1957 100.267C79.4526 91.1517 66.5825 83.6449 56.9133 82.8741C52.3049 82.5055 47.5122 83.2092 43.1384 81.6844C33.6702 78.3834 29.8997 66.1513 20.6494 62.2638C13.7451 59.3482 5.80193 61.9455 -0.901199 65.3135C-7.58757 68.6815 -14.2069 72.9208 -21.6977 73.4068C-28.1997 73.8257 -35.2715 71.4128 -40.9524 74.5965C-45.1921 76.9591 -47.4209 81.852 -51.3255 84.734C-55.1463 87.5491 -60.1401 88.1523 -64.8826 88.4037C-69.625 88.655 -74.5351 88.7053 -78.8586 90.6825C-83.1821 92.6598 -86.7515 97.2343 -85.8634 101.893L78.179 100.267H78.1957Z" fill="#F5F5F5"/>
<path d="M224.994 212.251H253.997C258.409 212.251 262.012 208.669 262.012 204.237C262.012 197.437 256.506 191.932 249.706 191.932H231.815C228.05 191.932 224.994 194.988 224.994 198.752V212.251Z" fill="#F1BF37"/>
<path d="M263.388 333.817H205.342V411.569H263.388V333.817Z" fill="#263238"/>
<path d="M-69.1435 230.485L-52.2639 216.946L-25.5683 143.646C-21.6014 134.519 -13.9104 122.781 3.75845 121L187.693 122.619C198.116 122.72 207.406 129.257 210.988 139.052L234.891 204.5L241.449 219.374L257.033 230.262C263.003 234.451 266.566 241.271 266.566 248.577V353.569C266.566 353.569 265.796 372.875 245.719 372.875H-54.7736C-54.7736 372.875 -74.0818 373.644 -77.1784 351.242C-79.6274 333.473 -78.1904 271.931 -77.482 247.261C-77.2999 240.705 -74.2438 234.573 -69.1435 230.485Z" fill="#F1BF37"/>
<g opacity="0.3">
<path d="M-78.9192 305.565C-76.6119 306.132 266.565 305.565 266.565 305.565V352.354C266.565 363.748 258.409 372.875 247.014 372.875H-52.8308C-67.484 372.875 -78.4334 361.906 -78.2715 347.153L-78.899 305.565H-78.9192Z" fill="black"/>
</g>
<path d="M-67.0183 238.175C-67.0183 238.175 -68.0506 238.033 -69.9126 238.397C-71.6936 238.782 -74.5474 239.996 -76.2475 243.194C-77.138 244.772 -77.3606 246.715 -77.3606 248.921C-77.4213 251.127 -77.5023 253.515 -77.5833 256.065C-77.7452 261.185 -77.9476 267.013 -78.15 273.408L-78.1904 273.226C-77.057 275.068 -74.5271 276.08 -72.1794 276.909C-69.7507 277.719 -67.1398 278.366 -64.4682 278.933C-59.0845 280.026 -53.3164 280.856 -47.2648 281.544C-35.182 282.92 -22.0264 283.831 -8.28396 284.458C-5.65285 284.559 -3.04198 284.66 -0.451355 284.761L-0.99781 285.288C-0.99781 271.405 -0.957336 258.23 -0.957336 246.25L-0.53231 246.735C-20.1239 244.287 -36.7404 242.222 -48.5399 240.745C-54.3486 239.996 -58.9429 239.389 -62.2014 238.964C-63.7194 238.741 -64.9337 238.58 -65.8242 238.458C-66.6338 238.337 -67.0588 238.256 -67.0588 238.236C-67.0588 238.215 -66.6338 238.236 -65.804 238.316C-64.9135 238.397 -63.6991 238.519 -62.1609 238.681C-58.9024 239.045 -54.2878 239.551 -48.4792 240.199C-36.6594 241.575 -20.043 243.517 -0.410866 245.804L0.0141602 245.845V246.27C0.0141602 258.25 0.0343933 271.425 0.0546265 285.308V285.854H-0.491821C-3.08245 285.733 -5.69333 285.632 -8.34467 285.53C-22.1074 284.903 -35.2831 283.972 -47.4065 282.556C-53.458 281.847 -59.2465 280.977 -64.6706 279.864C-67.3826 279.277 -69.9935 278.629 -72.4829 277.78C-73.7175 277.355 -74.9319 276.849 -76.0653 276.241C-77.1785 275.594 -78.2916 274.865 -78.9595 273.611L-79 273.53V273.428C-78.7167 267.033 -78.4738 261.225 -78.2512 256.085C-78.1297 253.535 -78.0285 251.147 -77.9273 248.941C-77.9273 246.776 -77.644 244.61 -76.6725 243.012C-74.8509 239.693 -71.8353 238.539 -69.9935 238.215C-68.0708 237.932 -67.0588 238.215 -67.0588 238.215L-67.0183 238.175Z" fill="#263238"/>
<path d="M255.049 238.175L188.462 246.229V285.267C188.462 285.267 260.716 282.718 265.128 272.923L265.574 247.181C265.371 241.676 260.514 237.527 255.049 238.195V238.175Z" fill="#E0E0E0"/>
<path d="M255.049 238.175C255.049 238.175 256.041 237.891 257.943 238.175C259.765 238.478 262.74 239.612 264.602 242.87C265.533 244.428 265.999 246.573 265.837 248.718C265.817 250.904 265.796 253.252 265.756 255.781C265.695 260.861 265.614 266.608 265.533 272.943V273.044L265.493 273.105C264.845 274.339 263.732 275.088 262.639 275.735C261.526 276.363 260.332 276.849 259.097 277.294C256.628 278.164 254.037 278.832 251.345 279.439C245.962 280.613 240.214 281.503 234.203 282.252C222.181 283.749 209.066 284.782 195.384 285.49C193.056 285.591 190.749 285.692 188.462 285.793H187.916V285.267C187.916 271.405 187.956 258.23 187.956 246.229V245.804L188.381 245.764C207.973 243.477 224.609 241.534 236.429 240.158C242.238 239.51 246.873 239.004 250.131 238.64C251.669 238.478 252.863 238.357 253.774 238.276C254.604 238.195 255.029 238.175 255.029 238.195C255.029 238.215 254.604 238.296 253.794 238.418C252.904 238.539 251.71 238.721 250.172 238.924C246.933 239.349 242.298 239.956 236.51 240.704C224.711 242.182 208.094 244.246 188.502 246.695L188.927 246.209C188.927 258.21 188.948 271.384 188.968 285.247L188.422 284.721C190.709 284.62 193.016 284.519 195.323 284.417C208.985 283.709 222.079 282.717 234.061 281.26C240.052 280.532 245.78 279.662 251.123 278.528C253.794 277.941 256.365 277.294 258.773 276.444C261.101 275.594 263.61 274.582 264.724 272.74L264.683 272.902C264.825 266.568 264.946 260.841 265.068 255.761C265.128 253.231 265.189 250.884 265.23 248.698C265.412 246.513 265.027 244.61 264.157 243.072C262.457 239.956 259.623 238.762 257.862 238.397C256.021 238.053 255.009 238.256 255.009 238.175H255.049Z" fill="#263238"/>
<path d="M25.1311 246.209C14.7888 246.209 5.80254 253.657 4.26436 263.877C3.81909 266.791 3.63694 270.17 3.83934 274.096C5.01321 297.43 9.66825 326.006 20.7594 333.008H97.1829V246.209H25.1311Z" fill="#263238"/>
<path d="M160.532 246.209C170.874 246.209 179.861 253.657 181.399 263.877C181.844 266.791 182.026 270.17 181.824 274.096C180.65 297.43 175.995 326.006 164.904 333.008H88.4802V246.209H160.532Z" fill="#263238"/>
<path d="M179.759 277.011H6.65256C4.08218 277.011 1.97729 274.926 1.97729 272.336C1.97729 269.766 4.06194 267.661 6.65256 267.661H179.759C182.33 267.661 184.434 269.745 184.434 272.336C184.434 274.906 182.35 277.011 179.759 277.011Z" fill="#455A64"/>
<path d="M170.692 258.574H12.7651C10.1947 258.574 8.08984 256.49 8.08984 253.899C8.08984 251.329 10.1745 249.224 12.7651 249.224H170.692C173.263 249.224 175.368 251.309 175.368 253.899C175.368 256.469 173.283 258.574 170.692 258.574Z" fill="#455A64"/>
<path d="M179.759 288.445H8.45383C5.87175 288.445 3.77856 290.534 3.77856 293.11C3.77856 295.686 5.87175 297.775 8.45383 297.775H179.759C182.341 297.775 184.434 295.686 184.434 293.11C184.434 290.534 182.341 288.445 179.759 288.445Z" fill="#455A64"/>
<path d="M173.789 318.558H12.2993C9.72892 318.558 7.62402 316.474 7.62402 313.883C7.62402 311.313 9.70868 309.209 12.2993 309.209H173.768C176.339 309.209 178.444 311.293 178.444 313.883C178.444 316.454 176.359 318.558 173.768 318.558H173.789Z" fill="#455A64"/>
<path d="M-39.4929 205.673C-39.4929 205.673 -20.1846 141.237 -10.996 133.061H200.221C200.221 133.061 218.355 172.949 224.994 205.673H-39.4929Z" fill="#455A64"/>
<path d="M14.4043 344.341V349.947C14.4043 356.767 19.9296 362.292 26.7503 362.292H161.564C168.385 362.292 173.91 356.767 173.91 349.947V344.341H14.4043Z" fill="#263238"/>
<path d="M200.95 328.778V353.326C200.95 353.326 250.293 360.288 257.518 328.778H200.95Z" fill="#263238"/>
<path d="M241.469 219.375C241.469 219.375 241.388 219.253 241.286 218.99C241.165 218.686 241.003 218.302 240.801 217.796C240.355 216.683 239.748 215.145 238.939 213.162C237.32 209.033 235.012 203.083 232.078 195.575C226.228 180.417 217.971 158.946 208.175 133.548L208.62 133.851C188.077 133.851 164.822 133.831 140.272 133.811C95.9887 133.689 55.8947 133.588 26.8311 133.507C12.36 133.426 0.621183 133.345 -7.55549 133.284L-16.906 133.163C-17.9382 133.143 -18.7478 133.123 -19.3347 133.102C-19.8812 133.102 -20.1646 133.062 -20.1646 133.042C-20.1646 133.021 -19.8812 133.001 -19.3347 132.981C-18.7276 132.981 -17.9382 132.961 -16.906 132.94C-14.7202 132.92 -11.5831 132.9 -7.55549 132.859C0.621183 132.839 12.3397 132.799 26.8311 132.738C55.9149 132.738 95.9887 132.738 140.272 132.738C164.822 132.799 188.077 132.839 208.62 132.88H208.944L209.066 133.183C218.72 158.642 226.856 180.154 232.624 195.353C235.437 202.901 237.684 208.871 239.242 213.02C239.971 215.024 240.558 216.602 240.963 217.715C241.145 218.221 241.266 218.606 241.388 218.929C241.469 219.213 241.509 219.354 241.509 219.354L241.469 219.375Z" fill="#263238"/>
<path d="M224.994 205.674C224.994 205.957 165.774 206.24 92.7505 206.281C19.7069 206.321 -39.5132 206.139 -39.5132 205.836C-39.5132 205.552 19.6867 205.269 92.7505 205.229C165.774 205.188 224.994 205.37 224.994 205.674Z" fill="#263238"/>
<path d="M223.193 205.289C223.375 205.066 231.896 211.178 242.238 218.949C252.58 226.72 260.838 233.216 260.656 233.459C260.473 233.682 251.953 227.57 241.59 219.799C231.248 212.028 222.99 205.532 223.172 205.289H223.193Z" fill="#263238"/>
<path d="M195.87 245.319C195.87 245.319 195.708 245.359 195.364 245.399C194.959 245.42 194.473 245.46 193.886 245.501C192.49 245.582 190.587 245.683 188.179 245.824C183.22 246.088 176.035 246.371 167.15 246.634C149.38 247.18 124.83 247.464 97.7294 247.362C70.6087 247.282 46.0787 246.958 28.3086 246.735C19.4843 246.614 12.3398 246.513 7.28001 246.432C4.87153 246.371 2.9488 246.33 1.55229 246.31C0.94511 246.29 0.459376 246.27 0.0748297 246.249C-0.269238 246.249 -0.431152 246.209 -0.431152 246.189C-0.431152 246.168 -0.269238 246.148 0.0748297 246.128L1.57253 246.088C2.96904 246.088 4.87154 246.047 7.30025 246.007C12.3601 246.007 19.5248 245.986 28.3491 245.966C46.2002 246.047 70.6897 246.148 97.7699 246.29C124.87 246.391 149.4 246.229 167.17 245.865C175.974 245.663 183.139 245.501 188.199 245.379C190.607 245.319 192.53 245.278 193.927 245.258C194.534 245.258 195.02 245.258 195.424 245.258C195.768 245.258 195.93 245.258 195.93 245.298L195.87 245.319Z" fill="#263238"/>
<path d="M62.9583 133.061H119.628V136.279C119.628 141.258 115.58 145.305 110.602 145.305H71.985C67.0061 145.305 62.9583 141.258 62.9583 136.279V133.061Z" fill="#263238"/>
<path d="M201.132 204.54H199.108C199.108 189.342 186.742 176.977 171.542 176.977C156.343 176.977 143.997 189.342 143.997 204.54H141.973C141.973 188.229 155.25 174.953 171.542 174.953C187.835 174.953 201.132 188.229 201.132 204.54Z" fill="#263238"/>
<path d="M133.027 203.407C133.027 203.407 137.115 195.818 148.996 195.494C160.026 195.191 188.017 195.494 188.017 195.494C188.017 195.494 201.678 196.101 205.625 201.727V205.289H133.007V203.387L133.027 203.407Z" fill="#263238"/>
<path d="M-7.85877 206.422C-9.11361 207.758 -7.2516 186.832 -4.39786 177.644C-3.72996 175.519 -1.46317 174.062 1.1477 174.062H52.2721C55.0854 174.062 57.4939 175.782 57.9391 178.11C59.113 184.424 62.2501 196.566 62.9585 206.483L-7.85877 206.422Z" fill="#263238"/>
<path d="M43.2452 151.153H11.4493C7.78294 151.153 4.81079 154.125 4.81079 157.791V164.631C4.81079 168.297 7.78294 171.269 11.4493 171.269H43.2452C46.9115 171.269 49.8837 168.297 49.8837 164.631V157.791C49.8837 154.125 46.9115 151.153 43.2452 151.153Z" fill="#263238"/>
<path d="M115.479 205.674C114.224 207.01 116.491 185.032 119.345 175.844C120.013 173.719 122.28 172.262 124.89 172.262H176.015C178.828 172.262 181.237 173.982 181.682 176.309C182.856 182.623 185.993 195.737 186.701 205.674H115.479Z" fill="#263238"/>
<path d="M167.008 151.153H135.212C131.546 151.153 128.574 154.125 128.574 157.791V164.631C128.574 168.297 131.546 171.269 135.212 171.269H167.008C170.675 171.269 173.647 168.297 173.647 164.631V157.791C173.647 154.125 170.675 151.153 167.008 151.153Z" fill="#263238"/>
<path d="M251.367 159.046H232.194V413.819H251.367V159.046Z" fill="#E0E0E0"/>
<path d="M251.367 413.819C251.367 413.819 251.344 413.344 251.322 412.485C251.322 411.581 251.299 410.292 251.277 408.641C251.277 405.227 251.232 400.276 251.187 393.899C251.142 381.102 251.097 362.584 251.007 339.657C250.939 293.804 250.849 230.201 250.759 159.024L251.344 159.612C245.261 159.612 238.75 159.612 232.172 159.612L232.758 159.024C232.758 275.263 232.6 374.568 232.375 413.797L232.172 413.593C238.412 413.638 243.166 413.684 246.41 413.706L250.083 413.751C250.916 413.751 251.344 413.797 251.344 413.797C251.344 413.797 250.961 413.819 250.15 413.842C249.294 413.842 248.1 413.864 246.523 413.887C243.256 413.91 238.435 413.955 232.149 414H231.946V413.797C231.721 374.545 231.563 275.241 231.563 159.024V158.436H232.172C238.728 158.436 245.239 158.436 251.344 158.436H251.93V159.024C251.84 230.359 251.75 294.12 251.682 340.087C251.615 362.969 251.547 381.419 251.502 394.193C251.457 400.502 251.435 405.408 251.412 408.8C251.412 410.428 251.39 411.671 251.367 412.576C251.367 413.412 251.322 413.819 251.322 413.819H251.367Z" fill="#263238"/>
<path d="M296.99 23H192.768C180.735 23 170.981 32.7531 170.981 44.7842V148.997C170.981 161.028 180.735 170.781 192.768 170.781H296.99C309.022 170.781 318.776 161.028 318.776 148.997V44.7842C318.776 32.7531 309.022 23 296.99 23Z" fill="#455A64"/>
<path d="M296.809 165.848H192.925C183.598 165.848 176.028 158.256 176.028 148.952V45.0774C176.028 35.751 183.621 28.1818 192.925 28.1818H296.809C306.137 28.1818 313.707 35.7736 313.707 45.0774V148.952C313.707 158.279 306.114 165.848 296.809 165.848ZM192.925 30.4345C184.86 30.4345 178.281 37.0126 178.281 45.0774V148.952C178.281 157.017 184.86 163.595 192.925 163.595H296.809C304.897 163.595 311.454 157.017 311.454 148.952V45.0774C311.454 36.99 304.875 30.4345 296.809 30.4345H192.925Z" fill="white"/>
<path d="M266.665 62.4008C271.396 64.5184 275.046 67.5596 277.614 71.5245C280.183 75.4668 281.467 80.13 281.467 85.4691C281.467 90.8081 280.183 95.4488 277.614 99.3461C275.046 103.266 271.396 106.285 266.665 108.425C261.934 110.565 256.369 111.624 249.948 111.624H237.579V130.164H217.505V59.2019H249.948C256.369 59.2019 261.934 60.2607 266.665 62.4008ZM258.058 93.1059C260.154 91.3262 261.213 88.7581 261.213 85.4465C261.213 82.135 260.154 79.5668 258.058 77.7421C255.963 75.9174 252.854 74.9937 248.731 74.9937H237.579V95.7867H248.731C252.854 95.7867 255.963 94.8856 258.058 93.1059Z" fill="white"/>
<path d="M269.173 202.873L259.993 183.309L247.16 188.87L258.61 207.427L269.173 202.873Z" fill="#FFD0B7"/>
<path d="M268.227 201.652L277.541 208.782C278.06 209.199 277.685 212.678 277.685 212.678L276.697 223.174C276.697 223.174 274.485 224.472 273.783 221.811C273.639 221.265 273.599 218.812 273.513 218.277C273.167 216.237 273.193 214.513 273.193 214.513L272.916 217.666C272.916 217.666 272.698 218.514 270.934 220.044C268.758 221.926 266.544 220.45 267.578 219.364C268.604 218.267 270.272 216.389 270.272 216.389C270.272 216.389 267.487 218.093 266.753 216.34C266.753 216.34 264.683 216.872 263.931 215.393C263.178 213.915 263.292 212.527 263.292 212.527C263.292 212.527 258.657 209.941 258.05 208.055C257.451 206.181 256.35 202.911 256.35 202.911L268.246 201.656L268.227 201.652Z" fill="#FFD0B7"/>
<path d="M273.608 211.988L283.63 218.567C283.872 218.725 283.938 219.049 283.779 219.29L281.94 222.084C281.781 222.326 281.457 222.393 281.215 222.235L271.193 215.656C270.952 215.498 270.885 215.174 271.044 214.933L272.883 212.139C273.042 211.897 273.367 211.83 273.608 211.988Z" fill="#455A64"/>
<path d="M280.805 214.81C280.805 214.81 278.675 209.913 278.429 209.385C278.19 208.868 271.525 204.735 271.525 204.735C271.525 204.735 265.493 208.167 265.329 209.226C265.173 210.296 269.466 212.335 274.613 211.878L277.402 214.587C277.402 214.587 278.339 217.783 279.71 218.168C281.08 218.554 281.331 217.93 281.331 217.93L280.802 214.779L280.805 214.81Z" fill="#FFD0B7"/>
<path d="M266.95 206.344C266.848 206.313 266.548 207.214 267.05 208.561C267.288 209.227 267.731 209.955 268.384 210.628C269.094 211.412 270.217 211.647 271.208 211.804C272.584 212.021 273.897 212.067 274.826 212.33L274.678 212.229C276.216 213.753 277.31 214.696 277.433 214.583C277.556 214.47 276.675 213.322 275.256 211.704L275.211 211.635L275.108 211.604C273.982 211.19 272.693 211.13 271.366 210.913C270.387 210.748 269.492 210.561 268.978 210.027C268.369 209.472 267.933 208.855 267.652 208.299C267.072 207.184 267.111 206.338 266.973 206.329L266.95 206.344Z" fill="#FF9A6C"/>
<path d="M267.028 216.358C267.143 216.282 266.916 215.758 266.749 214.898C266.681 214.467 266.621 213.947 266.65 213.387C266.644 212.849 266.918 212.161 266.649 211.27C266.326 210.348 265.41 209.928 264.654 209.979C263.84 210.018 263.269 210.654 263.115 211.149C262.772 212.26 263.419 212.822 263.481 212.716C263.592 212.66 263.323 212.097 263.708 211.402C263.898 211.064 264.245 210.788 264.68 210.8C265.119 210.792 265.65 211.101 265.794 211.549C265.961 212.031 265.798 212.712 265.818 213.372C265.838 214.032 265.966 214.606 266.137 215.069C266.478 215.994 266.936 216.418 267.028 216.358Z" fill="#FF9A6C"/>
<path d="M269.706 216.151C269.82 216.175 270.052 215.597 270.199 214.614C270.273 214.123 270.317 213.536 270.297 212.876C270.273 212.235 270.217 211.368 269.59 210.661C269.284 210.319 268.879 210.076 268.406 210.007C267.933 209.938 267.451 210.106 267.139 210.359C266.511 210.884 266.344 211.584 266.27 212.075C266.18 213.07 266.163 213.623 266.261 213.674C266.398 213.732 266.668 213.112 266.899 212.207C267.029 211.777 267.251 211.286 267.647 211.011C268.013 210.74 268.531 210.828 268.928 211.258C269.309 211.666 269.421 212.315 269.483 212.915C269.542 213.533 269.563 214.094 269.573 214.563C269.602 215.513 269.596 216.108 269.729 216.136L269.706 216.151Z" fill="#FF9A6C"/>
<path d="M285.225 224.536C285.243 224.617 285.603 224.615 286.107 224.368C286.61 224.12 287.239 223.581 287.575 222.756C287.911 221.93 287.833 221.096 287.646 220.577C287.462 220.045 287.196 219.8 287.131 219.842C286.962 219.906 287.548 221.142 286.982 222.526C286.423 223.905 285.137 224.384 285.208 224.547L285.225 224.536Z" fill="#263238"/>
<path d="M287.469 228.184C287.468 228.255 288.226 228.307 289.33 227.853C290.415 227.424 291.841 226.318 292.514 224.597C292.866 223.76 293.022 222.855 292.93 222.053C292.838 221.251 292.563 220.58 292.297 220.066C291.736 219.047 291.341 218.478 291.278 218.507C291.186 218.544 291.452 219.22 291.892 220.25C292.092 220.771 292.3 221.393 292.341 222.1C292.383 222.806 292.234 223.579 291.918 224.345C291.306 225.91 290.095 226.934 289.129 227.437C288.156 227.968 287.443 228.073 287.463 228.176L287.469 228.184Z" fill="#263238"/>
<path d="M291.702 231.43C291.709 231.495 292.709 231.435 294.08 230.656C295.431 229.902 297.114 228.278 297.761 225.91C298.394 223.539 297.748 221.281 296.954 219.959C296.161 218.602 295.316 218.059 295.278 218.107C295.198 218.182 295.901 218.83 296.543 220.17C297.199 221.477 297.703 223.571 297.126 225.742C296.535 227.911 295.043 229.468 293.821 230.278C292.588 231.107 291.654 231.321 291.68 231.432L291.702 231.43Z" fill="#263238"/>
<path d="M163.192 404.848L161.372 412.499C161.372 412.499 148.858 428.762 145.007 427.958C142.482 427.435 145.585 423.2 150.34 410.848L151.341 405.751L163.192 404.848Z" fill="#EF8D53"/>
<path d="M144.485 425.572C144.485 425.572 144.485 425.657 144.584 425.798C144.668 425.939 144.823 426.137 145.105 426.292C145.374 426.447 145.769 426.56 146.22 426.532C146.671 426.504 147.165 426.32 147.631 426.01C149.408 424.654 151.595 422.551 153.937 420.123C156.265 417.68 158.198 415.323 159.524 413.572C160.187 412.697 160.709 411.963 161.062 411.469C161.203 411.257 161.33 411.073 161.457 410.876C161.541 410.735 161.583 410.664 161.583 410.664C161.583 410.664 161.527 410.721 161.414 410.848L160.977 411.412C160.511 412.019 159.975 412.697 159.383 413.473C158.014 415.196 156.067 417.539 153.754 419.967C151.426 422.381 149.239 424.513 147.532 425.868C146.643 426.518 145.67 426.504 145.148 426.207C144.598 425.925 144.499 425.544 144.485 425.572Z" fill="#263238"/>
<path d="M146.262 420.349C146.262 420.349 146.657 420.306 147.278 420.405C147.885 420.49 148.717 420.758 149.536 421.252C150.354 421.746 150.932 422.396 151.228 422.946C151.525 423.497 151.609 423.878 151.652 423.864C151.68 423.864 151.652 423.454 151.384 422.861C151.13 422.268 150.523 421.549 149.662 421.04C148.83 420.518 147.941 420.264 147.306 420.221C146.658 420.179 146.262 420.32 146.277 420.349H146.262Z" fill="#263238"/>
<path d="M158.099 416.537C158.099 416.537 157.972 415.986 157.873 415.097C157.76 414.222 157.873 412.951 158.508 411.737C159.115 410.523 160.116 409.704 160.892 409.323C161.682 408.928 162.261 408.871 162.247 408.829C162.247 408.815 162.105 408.815 161.852 408.843C161.598 408.885 161.231 408.97 160.822 409.154C159.989 409.521 158.931 410.354 158.282 411.61C157.633 412.866 157.535 414.208 157.704 415.097C157.774 415.549 157.873 415.902 157.958 416.142C158.042 416.382 158.099 416.509 158.113 416.509L158.099 416.537Z" fill="#263238"/>
<path d="M162.388 406.147C162.388 406.147 161.922 407.191 161.696 408.547C161.471 409.902 161.217 410.975 161.273 411.003C161.344 411.031 161.71 409.958 161.936 408.603C162.176 407.248 162.444 406.175 162.388 406.161V406.147Z" fill="#263238"/>
<path d="M150.114 411.935C150.114 412.005 150.833 411.991 151.666 412.189C152.498 412.372 153.133 412.711 153.175 412.641C153.218 412.584 152.611 412.146 151.722 411.949C150.834 411.737 150.1 411.878 150.114 411.949V411.935Z" fill="#263238"/>
<path d="M149.86 413.248C149.86 413.318 150.467 413.248 151.158 413.431C151.849 413.586 152.357 413.911 152.399 413.855C152.442 413.812 151.976 413.375 151.214 413.191C150.467 413.008 149.846 413.191 149.86 413.248Z" fill="#263238"/>
<path d="M148.858 414.899C148.858 414.899 149.479 414.772 150.213 414.942C150.946 415.097 151.398 415.535 151.454 415.478C151.511 415.45 151.087 414.885 150.269 414.702C149.465 414.518 148.83 414.843 148.872 414.899H148.858Z" fill="#263238"/>
<path d="M150.974 411.384C150.974 411.384 151.13 411.384 151.398 411.342C151.666 411.285 152.047 411.201 152.512 411.045C152.978 410.89 153.514 410.664 154.064 410.354C154.346 410.198 154.628 410.015 154.925 409.817C155.193 409.605 155.545 409.337 155.545 408.857C155.517 408.349 154.953 408.151 154.586 408.264C154.205 408.363 153.937 408.631 153.711 408.843C153.26 409.295 152.865 409.718 152.569 410.099C152.258 410.481 152.033 410.791 151.877 411.017C151.722 411.243 151.652 411.37 151.666 411.384C151.694 411.412 152.061 410.932 152.696 410.212C153.02 409.859 153.415 409.436 153.867 409.012C154.092 408.801 154.332 408.575 154.628 408.504C154.911 408.434 155.277 408.589 155.277 408.885C155.277 409.168 155.009 409.45 154.755 409.634C154.473 409.831 154.191 410.015 153.923 410.17C153.373 410.481 152.865 410.721 152.413 410.904C151.525 411.257 150.932 411.37 150.946 411.412L150.974 411.384Z" fill="#263238"/>
<path d="M151.637 411.229C151.637 411.229 151.666 411.088 151.652 410.848C151.652 410.608 151.623 410.241 151.567 409.803C151.51 409.365 151.412 408.843 151.172 408.292C151.045 408.024 150.904 407.742 150.678 407.488C150.481 407.262 150.086 406.951 149.676 407.177C149.296 407.417 149.296 407.869 149.324 408.179C149.38 408.504 149.479 408.801 149.592 409.083C149.832 409.633 150.184 410.043 150.481 410.368C150.791 410.692 151.073 410.904 151.271 411.045C151.468 411.186 151.595 411.243 151.609 411.243C151.637 411.215 151.186 410.904 150.608 410.255C150.325 409.93 150.015 409.521 149.789 408.998C149.676 408.744 149.592 408.448 149.549 408.165C149.507 407.883 149.549 407.53 149.775 407.417C150.001 407.29 150.283 407.459 150.481 407.685C150.678 407.897 150.819 408.165 150.946 408.419C151.186 408.928 151.299 409.436 151.369 409.859C151.51 410.721 151.567 411.257 151.609 411.257L151.637 411.229Z" fill="#263238"/>
<g opacity="0.4">
<path d="M161.372 412.513L162.247 408.829C162.247 408.829 159.185 409.394 158.381 411.695C157.591 413.996 157.788 415.619 157.788 415.619L151.13 422.805C151.13 422.805 149.451 419.53 146.432 420.32C146.432 420.32 144.047 425.558 144.118 426.871C144.203 428.311 145.712 428.028 146.262 427.774C146.502 427.661 149.38 426.01 152.23 423.059C155.757 419.389 159.665 414.744 161.372 412.499V412.513Z" fill="black"/>
</g>
<path d="M225.379 408.716L225.436 398.509L206.32 398.283L206.08 413.219L207.265 413.304C212.541 413.657 234.084 414.744 237.625 413.727C241.575 412.584 225.379 408.73 225.379 408.73V408.716Z" fill="#EF8D53"/>
<g opacity="0.4">
<path d="M213.021 413.149C212.767 411.554 211.892 410.057 210.637 409.041C209.367 408.024 207.801 407.488 206.193 407.601L206.122 412.951L213.035 413.163L213.021 413.149Z" fill="black"/>
</g>
<g opacity="0.4">
<path d="M233.294 410.89C233.294 410.89 238.965 412.598 238.246 413.53C237.526 414.462 215.702 414.179 206.094 413.219L206.136 412.796L231.587 413.332C231.587 413.332 232.194 410.918 233.308 410.89H233.294Z" fill="black"/>
</g>
<path d="M205.826 412.768C205.826 412.768 205.939 412.796 206.151 412.81C206.433 412.824 206.743 412.852 207.096 412.881C208.041 412.937 209.198 412.993 210.566 413.078C213.501 413.219 217.55 413.361 222.036 413.431C226.522 413.488 230.571 413.459 233.506 413.389C234.874 413.346 236.031 413.318 236.976 413.29C237.329 413.276 237.639 413.262 237.922 413.248C238.133 413.248 238.246 413.219 238.246 413.219C238.246 413.219 238.133 413.219 237.922 413.205C237.639 413.205 237.329 413.205 236.976 413.205C236.031 413.205 234.874 413.219 233.506 413.233C230.571 413.262 226.522 413.262 222.036 413.205C217.564 413.149 213.515 413.022 210.581 412.923C209.212 412.881 208.055 412.838 207.11 412.796C206.757 412.796 206.447 412.782 206.165 412.768C205.953 412.768 205.84 412.768 205.84 412.768H205.826Z" fill="#263238"/>
<path d="M231.559 413.629C231.559 413.629 231.7 412.81 232.222 411.977C232.744 411.13 233.463 410.72 233.421 410.664C233.421 410.608 232.589 410.96 232.024 411.85C231.46 412.739 231.488 413.643 231.545 413.629H231.559Z" fill="#263238"/>
<path d="M225.958 410.692C225.958 410.692 226.282 410.396 226.565 409.972C226.847 409.535 227.03 409.153 226.988 409.125C226.931 409.097 226.663 409.422 226.381 409.845C226.099 410.283 225.916 410.664 225.958 410.692Z" fill="#263238"/>
<path d="M224.42 409.859C224.42 409.859 224.773 409.704 225.097 409.422C225.436 409.125 225.662 408.857 225.619 408.801C225.577 408.758 225.267 408.956 224.942 409.238C224.604 409.535 224.378 409.803 224.42 409.859Z" fill="#263238"/>
<path d="M223.475 408.038C223.475 408.038 223.912 408.165 224.477 408.179C225.027 408.179 225.478 408.151 225.478 408.081C225.478 408.01 225.041 407.954 224.477 407.939C223.926 407.939 223.475 407.968 223.475 408.038Z" fill="#263238"/>
<path d="M223.151 406.768C223.151 406.768 223.616 407.05 224.265 407.106C224.914 407.163 225.422 407.022 225.422 406.965C225.422 406.895 224.9 406.923 224.293 406.866C223.672 406.81 223.179 406.697 223.165 406.754L223.151 406.768Z" fill="#263238"/>
<path d="M226.635 409.041C226.635 409.041 227.101 409.125 227.863 409.041C228.243 408.998 228.695 408.914 229.175 408.772C229.414 408.688 229.668 408.631 229.922 408.476C230.049 408.391 230.176 408.278 230.233 408.095C230.289 407.911 230.19 407.699 230.049 407.601C228.878 406.979 227.693 407.629 227.256 408.222C227.016 408.532 226.903 408.829 226.847 409.041C226.79 409.252 226.79 409.365 226.804 409.365C226.847 409.379 226.889 408.885 227.383 408.321C227.623 408.052 227.975 407.784 228.441 407.657C228.878 407.53 229.499 407.502 229.908 407.77C230.106 407.911 230.021 408.151 229.809 408.278C229.612 408.405 229.344 408.476 229.118 408.561C228.653 408.716 228.215 408.815 227.848 408.871C227.115 408.998 226.649 408.984 226.649 409.026L226.635 409.041Z" fill="#263238"/>
<path d="M226.946 409.097C226.946 409.097 227.143 408.801 227.101 408.25C227.073 407.982 226.974 407.657 226.776 407.346C226.565 407.078 226.282 406.697 225.76 406.711C225.478 406.739 225.337 407.064 225.38 407.276C225.394 407.488 225.492 407.671 225.577 407.826C225.76 408.137 225.958 408.391 226.141 408.575C226.522 408.956 226.819 409.097 226.833 409.083C226.861 409.055 226.593 408.857 226.254 408.462C226.085 408.264 225.916 408.01 225.746 407.714C225.577 407.445 225.478 406.979 225.775 406.937C226.085 406.909 226.395 407.219 226.579 407.474C226.762 407.742 226.875 408.024 226.917 408.278C227.002 408.786 226.889 409.097 226.917 409.111L226.946 409.097Z" fill="#263238"/>
<path d="M206.277 407.544C206.277 407.544 206.828 407.502 207.688 407.615C208.549 407.728 209.734 408.081 210.75 408.928C211.78 409.761 212.372 410.862 212.64 411.68C212.922 412.499 212.936 413.05 212.979 413.05C212.979 413.05 213.007 412.909 212.979 412.669C212.965 412.415 212.908 412.062 212.781 411.638C212.541 410.791 211.949 409.633 210.877 408.758C209.804 407.883 208.563 407.53 207.688 407.459C207.251 407.417 206.884 407.445 206.63 407.459C206.39 407.488 206.249 407.53 206.249 407.544H206.277Z" fill="#263238"/>
<path d="M208.365 399.61C208.365 399.61 208.21 401.361 208.154 403.535C208.097 405.709 208.112 407.459 208.168 407.474C208.239 407.474 208.323 405.723 208.38 403.549C208.436 401.375 208.422 399.624 208.365 399.624V399.61Z" fill="#263238"/>
<path d="M215.448 411.313C215.448 411.313 216.675 411.596 218.227 411.624C219.779 411.666 221.034 411.497 221.02 411.44C221.02 411.37 219.765 411.44 218.227 411.398C216.689 411.37 215.448 411.257 215.433 411.313H215.448Z" fill="#263238"/>
<path d="M211.709 411.257C211.709 411.257 211.808 411.525 211.935 411.808C212.062 412.09 212.118 412.344 212.189 412.344C212.245 412.344 212.288 412.048 212.146 411.709C212.005 411.37 211.751 411.2 211.709 411.243V411.257Z" fill="#263238"/>
<path d="M210.312 409.492C210.312 409.492 210.383 409.732 210.58 409.944C210.778 410.142 210.975 410.269 211.018 410.226C211.06 410.184 210.947 409.986 210.75 409.775C210.552 409.577 210.355 409.45 210.312 409.492Z" fill="#263238"/>
<path d="M208.309 408.659C208.309 408.659 208.577 408.73 208.859 408.829C209.141 408.928 209.339 409.083 209.395 409.041C209.452 409.012 209.297 408.73 208.944 408.617C208.591 408.49 208.309 408.617 208.323 408.674L208.309 408.659Z" fill="#263238"/>
<path d="M206.87 408.264C206.87 408.264 206.955 408.419 207.11 408.49C207.265 408.561 207.42 408.561 207.434 408.49C207.463 408.434 207.35 408.335 207.195 408.264C207.039 408.194 206.884 408.194 206.87 408.264Z" fill="#263238"/>
<path d="M146.615 406.358L180.672 205.978L233.195 213.982L227.115 404.848L202.793 406.923L204.655 238.899L167.227 407.107L146.615 406.358Z" fill="#455A64"/>
<path d="M175.367 220.914L182.336 161.819L171.798 178.294L154.953 163.711L174.648 137.071C178.273 133.316 182.52 130.535 187.584 128.686C190.053 127.796 192.663 127.26 195.696 127.133C202.228 129.152 208.76 129.152 215.292 127.133C216.393 127.274 218.1 127.415 220.343 127.726C227.975 128.77 234.874 132.836 239.459 139.034L259.732 177.983L242.365 184.562L233.209 168.045L234.916 222.876L218.565 226.434L206.094 217.413L188.882 226.434L175.367 220.9V220.914Z" fill="#263238"/>
<path d="M232.307 147.363C232.123 147.363 232.307 156.497 232.716 167.734C233.139 178.986 233.633 188.091 233.816 188.077C233.999 188.077 233.816 178.957 233.393 167.706C232.97 156.469 232.476 147.363 232.292 147.363H232.307Z" fill="#455A64"/>
<path d="M183.521 150.963C183.338 150.949 182.661 156.214 182.04 162.737C181.405 169.259 181.053 174.567 181.236 174.581C181.419 174.595 182.097 169.329 182.717 162.807C183.352 156.285 183.705 150.977 183.521 150.963Z" fill="#455A64"/>
<path d="M210.877 77.2988C208.168 76.6777 205.431 76.0424 202.666 76.1694C199.901 76.2965 197.051 77.2565 195.217 79.3458C194.088 80.6305 193.397 82.3105 192.057 83.3692C190.392 84.6963 187.712 85.1339 187.147 87.195C186.569 89.3126 188.812 91.289 188.657 93.4631C188.572 94.7054 187.726 95.7501 187.006 96.7807C186.301 97.8112 185.68 99.11 186.117 100.282C186.47 101.228 187.415 101.835 187.881 102.724C188.6 104.108 188.022 105.802 188.248 107.34C188.572 109.599 190.646 111.293 192.861 111.872C195.062 112.451 197.404 112.168 199.661 111.872" fill="#263238"/>
<path d="M212.965 78.273C214.827 77.9059 216.746 77.5671 218.594 78.0048C220.442 78.4424 222.191 79.8259 222.459 81.7035C222.629 82.8611 222.248 84.1599 222.897 85.134C223.63 86.221 225.281 86.3057 226.113 87.308C227.919 89.468 224.448 93.1949 226.254 95.3549C226.734 95.9337 227.51 96.216 228.032 96.7525C228.935 97.6842 228.892 99.2795 228.145 100.324C227.397 101.383 226.085 101.919 224.787 101.99C223.489 102.061 222.219 101.708 221.006 101.256C216.915 99.7454 213.148 96.9643 211.187 93.0538C209.24 89.1433 209.424 84.047 212.245 80.7294" fill="#263238"/>
<path d="M195.513 92.8137L194.991 129.97L213.571 130.352C213.896 128.206 214.587 119.862 214.587 119.862C214.587 119.862 222.375 119.439 223.235 111.773C223.658 108.046 223.898 100.296 224.025 93.2937C224.18 85.5292 218.1 79.0776 210.355 78.7529C202.327 78.4141 195.612 84.781 195.499 92.8137H195.513Z" fill="#FFC7AA"/>
<path d="M214.615 119.75C214.615 119.75 209.734 119.651 204.895 115.896C204.895 115.896 206.701 121.655 214.432 121.726L214.615 119.735V119.75Z" fill="#EB996E"/>
<path d="M220.555 97.7687C220.512 98.3475 219.99 98.7992 219.384 98.771C218.777 98.7428 218.312 98.2486 218.354 97.6698C218.396 97.091 218.918 96.6393 219.525 96.6675C220.131 96.6957 220.597 97.1899 220.555 97.7687Z" fill="#263238"/>
<path d="M222.022 96.9923C221.867 97.1193 221.105 96.4276 219.92 96.3146C218.749 96.1876 217.818 96.6958 217.705 96.5405C217.648 96.4699 217.818 96.2299 218.213 95.9899C218.608 95.7499 219.271 95.5523 220.004 95.6229C220.738 95.7076 221.331 96.0323 221.655 96.3429C221.994 96.6535 222.092 96.9217 222.008 96.9923H222.022Z" fill="#263238"/>
<path d="M208.718 97.0629C208.676 97.6417 208.154 98.0934 207.547 98.0652C206.94 98.0369 206.475 97.5428 206.517 96.964C206.56 96.3852 207.082 95.9335 207.688 95.9617C208.295 95.9899 208.76 96.484 208.718 97.0629Z" fill="#263238"/>
<path d="M210.411 96.0465C210.256 96.1735 209.494 95.4818 208.309 95.3688C207.138 95.2418 206.207 95.75 206.094 95.5947C206.038 95.5241 206.207 95.2841 206.602 95.0441C206.997 94.8041 207.66 94.6065 208.394 94.6771C209.127 94.7618 209.72 95.0865 210.044 95.3971C210.383 95.7077 210.482 95.9759 210.397 96.0465H210.411Z" fill="#263238"/>
<path d="M213.811 105.223C213.811 105.223 214.559 105.096 215.758 105.067C216.068 105.067 216.351 105.039 216.421 104.841C216.52 104.63 216.421 104.291 216.308 103.924C216.097 103.162 215.885 102.371 215.645 101.538C214.742 98.1499 214.107 95.3688 214.248 95.3406C214.39 95.2982 215.236 98.0229 216.139 101.411C216.351 102.244 216.562 103.049 216.76 103.797C216.844 104.15 217 104.559 216.802 104.997C216.703 105.209 216.463 105.35 216.266 105.392C216.068 105.434 215.899 105.42 215.744 105.406C214.545 105.35 213.797 105.279 213.797 105.209L213.811 105.223Z" fill="#263238"/>
<path d="M210.256 105.689C210.453 105.689 210.326 106.973 211.328 107.99C212.33 109.006 213.712 109.006 213.698 109.19C213.698 109.274 213.374 109.401 212.795 109.359C212.231 109.317 211.427 109.063 210.806 108.441C210.199 107.82 209.988 107.044 209.988 106.521C209.988 105.985 210.171 105.674 210.256 105.689Z" fill="#263238"/>
<path d="M211.173 91.4584C211.018 91.769 209.861 91.5008 208.464 91.529C207.068 91.529 205.911 91.8255 205.755 91.529C205.685 91.3878 205.911 91.1055 206.39 90.8372C206.87 90.569 207.618 90.3431 208.45 90.3431C209.282 90.3431 210.03 90.5408 210.524 90.7949C211.018 91.049 211.243 91.3313 211.173 91.4725V91.4584Z" fill="#263238"/>
<path d="M221.923 93.5336C221.683 93.7877 220.907 93.4207 219.934 93.3077C218.96 93.1666 218.114 93.3077 217.945 93.0113C217.874 92.8701 218.029 92.616 218.424 92.3901C218.805 92.1784 219.426 92.0231 220.089 92.1078C220.752 92.1925 221.316 92.5031 221.627 92.7995C221.937 93.1101 222.036 93.3924 221.923 93.5195V93.5336Z" fill="#263238"/>
<path d="M197.531 98.8276C197.404 98.757 192.423 96.7383 192.057 102.004C191.704 107.27 197.051 106.536 197.079 106.394C197.093 106.239 197.531 98.8276 197.531 98.8276Z" fill="#FFC7AA"/>
<path d="M195.598 104.291C195.598 104.291 195.499 104.347 195.344 104.404C195.189 104.46 194.92 104.489 194.652 104.376C194.116 104.136 193.707 103.218 193.735 102.272C193.75 101.792 193.891 101.34 194.088 100.973C194.272 100.606 194.54 100.352 194.822 100.31C195.104 100.268 195.287 100.451 195.344 100.592C195.4 100.748 195.358 100.846 195.386 100.86C195.386 100.875 195.499 100.776 195.471 100.564C195.457 100.465 195.4 100.324 195.287 100.225C195.174 100.112 194.991 100.056 194.794 100.056C194.384 100.056 193.989 100.409 193.778 100.804C193.538 101.199 193.383 101.708 193.355 102.244C193.312 103.303 193.792 104.333 194.54 104.602C194.906 104.729 195.217 104.63 195.386 104.517C195.555 104.404 195.598 104.277 195.569 104.277L195.598 104.291Z" fill="#EB996E"/>
<path d="M215.363 79.0918C214.982 78.3436 213.698 77.4683 213.12 77.0448C212.344 76.4801 210.75 76.113 209.79 76.0566C207.434 75.9154 205.022 75.986 202.779 76.7059C200.536 77.4259 198.448 78.88 197.361 80.9835C196.515 82.6211 196.275 84.6257 194.963 85.9386C193.905 86.9974 192.226 87.4915 191.634 88.8609C190.561 91.2891 193.778 94.0702 192.734 96.4984C192.551 96.936 192.226 97.3313 192.212 97.8113C192.198 98.376 192.635 98.8701 193.143 99.0959C193.651 99.3218 194.229 99.3359 194.794 99.3359C196.769 99.35 199.181 99.0959 200.014 97.303C200.775 95.6513 199.774 93.4349 200.888 91.995C201.862 90.7526 203.512 91.2467 204.867 90.4562C205.445 90.1315 205.967 89.7221 206.447 89.2703C207.35 89.1856 208.239 89.0727 209.085 88.7903C210.143 88.4233 211.145 87.7598 211.681 86.7716C212.259 85.6845 212.259 84.2728 213.134 83.3975C214.051 82.4799 215.758 82.367 216.195 81.1388C216.463 80.3764 216.04 79.4871 215.335 79.0918H215.363Z" fill="#263238"/>
<path d="M259.732 176.134L261.369 179.338C262.243 181.061 261.552 183.178 259.803 184.025L248.432 189.602C246.767 190.42 244.75 189.771 243.861 188.133L241.35 183.503L259.732 176.134Z" fill="#263238"/>
<path d="M143.624 131.538L153.994 134.093C153.994 134.093 154.431 132.06 154.572 131.41C155.066 129.123 154.544 127.881 154.332 127.429C154.219 127.189 154.191 126.738 154.191 126.738C154.262 125.919 156.138 122.121 156.829 120.724C157.648 119.044 156.815 117.943 156.293 118.592C155.348 119.792 152.484 125.128 151.807 125.538C151.13 125.947 151.976 123.095 151.976 123.095C153.994 117.025 154.544 116.178 153.486 115.754C152.258 115.26 149.225 124.295 149.225 124.295C149.225 124.295 149.649 123.025 148.689 122.587C147.744 122.15 147.053 123.35 147.053 123.35C147.292 122.714 146.375 122.432 146.375 122.432C143.963 122.347 143.624 131.509 143.624 131.509L153.994 134.065L152.865 170.049L156.66 165.998L169.371 176.445L156.674 188.063C153.994 190.322 150.41 191.211 146.982 190.477C141.24 189.249 137.389 183.842 138.08 178.012L143.639 131.495L143.624 131.538Z" fill="#FFD0B7"/>
<path d="M151.835 133.076C151.835 133.076 151.412 132.441 150.834 131.396C150.537 130.874 150.227 130.225 149.945 129.491C149.804 129.124 149.677 128.728 149.564 128.305C149.465 127.895 149.296 127.444 149.409 127.091C149.465 126.879 149.62 126.724 149.79 126.709C149.959 126.681 150.185 126.78 150.368 126.907C150.763 127.175 151.116 127.5 151.412 127.811C152.005 128.46 152.386 129.124 152.625 129.674L152.71 129.872L152.837 129.702C153.345 128.996 153.895 128.841 153.867 128.785C153.867 128.756 153.274 128.813 152.639 129.547L152.851 129.575C152.654 128.996 152.287 128.262 151.68 127.557C151.37 127.204 151.017 126.865 150.58 126.568C150.354 126.427 150.086 126.258 149.733 126.286C149.366 126.328 149.113 126.639 149.014 126.949C148.873 127.514 149.084 127.966 149.183 128.389C149.31 128.813 149.451 129.222 149.606 129.604C149.917 130.366 150.255 131.001 150.594 131.523C151.257 132.568 151.807 133.09 151.835 133.062V133.076Z" fill="#EB996E"/>
<path d="M149 124.888C149 124.888 148.816 125.622 148.661 126.822C148.591 127.472 148.506 128.164 148.407 128.926C148.351 129.307 148.337 129.759 148.224 130.126C148.139 130.479 147.758 130.747 147.518 130.549C147.264 130.352 147.208 129.872 147.166 129.448C147.123 129.025 147.095 128.601 147.081 128.206C147.053 127.415 147.053 126.695 147.039 126.088C147.039 124.874 146.982 124.126 146.926 124.126C146.869 124.126 146.827 124.874 146.756 126.074C146.728 126.681 146.7 127.401 146.714 128.206C146.714 128.601 146.728 129.025 146.771 129.476C146.827 129.886 146.799 130.436 147.278 130.86C147.532 131.058 147.913 131.029 148.139 130.86C148.379 130.705 148.52 130.451 148.591 130.225C148.717 129.759 148.717 129.349 148.76 128.954C148.816 128.192 148.873 127.486 148.929 126.836C149.014 125.622 149.042 124.888 148.986 124.874L149 124.888Z" fill="#EB996E"/>
<path d="M146.77 127.218C146.77 127.218 146.785 127.669 146.615 128.347C146.531 128.658 146.39 129.109 146.107 129.349C145.952 129.448 145.868 129.448 145.769 129.279C145.684 129.109 145.614 128.813 145.543 128.573C144.979 126.484 145.176 124.705 145.063 124.705C144.965 124.677 144.584 126.498 145.162 128.686C145.247 128.954 145.289 129.208 145.43 129.491C145.501 129.632 145.656 129.773 145.853 129.815C146.051 129.843 146.234 129.759 146.333 129.66C146.559 129.462 146.658 129.222 146.728 129.025C146.813 128.813 146.855 128.615 146.883 128.432C146.996 127.684 146.799 127.232 146.756 127.246L146.77 127.218Z" fill="#EB996E"/>
<path d="M154.953 162.765L173.209 177.997L172.927 178.308C170.81 180.623 167.241 180.821 164.871 178.76L154.77 169.936C153.034 168.412 152.738 165.814 154.093 163.936L154.939 162.765H154.953Z" fill="#263238"/>
<path d="M216.478 127.613L215.222 122.079C215.222 122.079 208.45 122.516 206.278 128.784C206.278 128.784 203.682 122.079 195.499 120.963L193.848 128.008L206.912 133.471L216.478 127.598" fill="#263238"/>
<path d="M242.38 184.265C242.492 184.449 245.963 182.585 250.308 180.439C254.653 178.294 258.251 176.67 258.166 176.472C258.096 176.289 254.357 177.616 249.984 179.776C245.61 181.936 242.281 184.096 242.38 184.265Z" fill="#455A64"/>
<path d="M156.039 162.553C155.969 162.609 156.561 163.668 157.718 165.249C158.875 166.83 160.653 168.906 162.868 170.924C165.083 172.943 167.312 174.524 168.976 175.541C170.655 176.557 171.77 177.051 171.812 176.981C171.925 176.783 167.721 174.397 163.361 170.388C158.974 166.407 156.223 162.426 156.039 162.553Z" fill="#455A64"/>
<path d="M206.292 128.785C206.292 128.785 206.235 129.081 206.221 129.66C206.207 130.309 206.179 131.142 206.151 132.159C206.122 134.432 206.066 137.551 206.01 141.363C205.953 149.226 205.897 159.927 205.812 171.744C205.812 183.574 205.826 194.275 205.84 202.124C205.883 205.936 205.911 209.055 205.925 211.328C205.953 212.345 205.967 213.178 205.981 213.827C206.01 214.406 206.024 214.702 206.052 214.702C206.08 214.702 206.108 214.406 206.122 213.827C206.136 213.178 206.165 212.345 206.193 211.328C206.221 209.055 206.278 205.936 206.334 202.124C206.39 194.261 206.447 183.56 206.531 171.744C206.531 159.927 206.517 149.226 206.503 141.363C206.461 137.551 206.433 134.417 206.419 132.159C206.39 131.128 206.376 130.309 206.362 129.66C206.334 129.081 206.32 128.785 206.292 128.785Z" fill="#455A64"/>
<path d="M207.618 126.695C207.618 126.695 207.83 126.61 208.154 126.695C208.478 126.766 208.789 127.133 209.099 127.726C209.748 128.869 210.425 130.592 210.51 132.596L210.538 133.443L211.131 132.836L211.159 132.808C214.023 129.843 216.689 127.796 216.562 127.613C216.464 127.458 213.557 129.265 210.637 132.286L210.609 132.314L211.244 132.554C211.159 130.394 210.341 128.559 209.537 127.443C209.184 126.893 208.676 126.385 208.182 126.399C207.717 126.399 207.576 126.667 207.618 126.681V126.695Z" fill="#455A64"/>
<path d="M195.344 121.091C195.203 121.062 194.469 123.773 193.566 127.712L193.51 127.923L193.707 128.05C194.864 128.855 196.19 129.716 197.629 130.549C199.125 131.424 200.592 132.201 201.904 132.85L202.398 133.09V132.554C202.37 130.662 203.089 129.123 203.71 128.192C204.345 127.246 204.867 126.794 204.81 126.737C204.782 126.695 204.147 127.034 203.385 127.966C202.638 128.883 201.763 130.479 201.721 132.568L202.2 132.271C200.916 131.594 199.492 130.803 197.996 129.942C196.585 129.109 195.259 128.276 194.088 127.514L194.229 127.867C195.034 123.914 195.499 121.133 195.358 121.105L195.344 121.091Z" fill="#455A64"/>
<path d="M204.147 144.412C204.091 144.497 204.218 144.694 204.133 144.991C204.049 145.301 203.795 145.499 203.47 145.287C203.146 145.062 203.23 144.765 203.484 144.553C203.724 144.37 203.964 144.398 204.006 144.313C204.077 144.243 203.809 143.918 203.258 144.087C203.019 144.172 202.708 144.37 202.581 144.765C202.454 145.174 202.68 145.669 203.047 145.894C203.4 146.134 203.936 146.163 204.274 145.894C204.599 145.626 204.669 145.273 204.641 145.005C204.571 144.44 204.176 144.313 204.133 144.412H204.147Z" fill="#455A64"/>
<path d="M203.625 168.496C203.569 168.581 203.696 168.779 203.611 169.075C203.527 169.386 203.273 169.583 202.948 169.371C202.624 169.146 202.708 168.849 202.962 168.637C203.202 168.454 203.442 168.482 203.484 168.397C203.555 168.341 203.287 168.002 202.737 168.172C202.497 168.256 202.186 168.454 202.059 168.849C201.932 169.259 202.158 169.753 202.525 169.979C202.878 170.219 203.414 170.247 203.752 169.979C204.077 169.71 204.147 169.357 204.119 169.089C204.049 168.524 203.654 168.397 203.611 168.496H203.625Z" fill="#455A64"/>
<path d="M203.498 195.206C203.442 195.291 203.569 195.489 203.484 195.785C203.4 196.096 203.146 196.293 202.821 196.081C202.497 195.856 202.581 195.559 202.835 195.347C203.075 195.164 203.315 195.192 203.357 195.107C203.428 195.051 203.16 194.712 202.61 194.881C202.37 194.966 202.059 195.164 201.932 195.559C201.805 195.968 202.031 196.463 202.398 196.688C202.751 196.928 203.287 196.957 203.625 196.688C203.95 196.42 204.02 196.067 203.992 195.799C203.922 195.234 203.527 195.107 203.484 195.206H203.498Z" fill="#455A64"/>
<path d="M247.684 175.145C247.882 175.188 248.263 174.115 248.545 172.76C248.813 171.404 248.883 170.261 248.686 170.218C248.488 170.176 248.107 171.249 247.825 172.604C247.557 173.96 247.487 175.103 247.684 175.145Z" fill="#F5F5F5"/>
<path d="M242.337 160.026C242.295 160.224 243.409 160.633 244.82 160.944C246.245 161.254 247.416 161.353 247.472 161.155C247.515 160.958 246.4 160.548 244.989 160.238C243.579 159.927 242.394 159.828 242.337 160.026Z" fill="#F5F5F5"/>
<path d="M238.627 168.623C238.472 168.765 238.937 169.485 239.643 170.247C240.348 171.009 241.053 171.517 241.194 171.376C241.335 171.235 240.884 170.515 240.179 169.753C239.473 168.99 238.768 168.496 238.627 168.623Z" fill="#F5F5F5"/>
<path d="M237.794 152.262C237.992 152.262 238.204 150.906 238.26 149.212C238.316 147.518 238.189 146.149 237.978 146.149C237.78 146.149 237.569 147.504 237.512 149.198C237.456 150.892 237.583 152.262 237.794 152.262Z" fill="#F5F5F5"/>
<path d="M226.988 138.582C226.988 138.779 228.314 138.935 229.951 138.935C231.587 138.935 232.899 138.751 232.899 138.539C232.899 138.342 231.573 138.187 229.937 138.187C228.3 138.187 226.988 138.37 226.988 138.582Z" fill="#F5F5F5"/>
<path d="M219.384 138.243C219.581 138.173 219.271 136.803 218.707 135.18C218.142 133.556 217.521 132.286 217.338 132.356C217.141 132.427 217.451 133.796 218.015 135.42C218.58 137.043 219.2 138.314 219.384 138.243Z" fill="#F5F5F5"/>
<path d="M222.233 155.212C222.417 155.311 223.165 154.224 223.912 152.812C224.66 151.386 225.126 150.158 224.942 150.059C224.759 149.96 224.011 151.033 223.263 152.459C222.516 153.885 222.05 155.113 222.233 155.212Z" fill="#F5F5F5"/>
<path d="M211.991 149.311C212.189 149.283 212.217 148.295 212.062 147.095C211.893 145.895 211.61 144.949 211.399 144.977C211.201 145.005 211.173 145.994 211.328 147.194C211.497 148.394 211.78 149.339 211.991 149.311Z" fill="#F5F5F5"/>
<path d="M213.19 159.588C213.162 159.786 214.122 160.082 215.307 160.223C216.506 160.379 217.493 160.336 217.522 160.139C217.55 159.941 216.59 159.645 215.405 159.503C214.206 159.348 213.219 159.39 213.19 159.588Z" fill="#F5F5F5"/>
<path d="M226.988 172.774C227.186 172.788 227.439 171.786 227.552 170.543C227.665 169.287 227.595 168.256 227.397 168.242C227.2 168.228 226.946 169.231 226.833 170.473C226.72 171.729 226.791 172.76 226.988 172.774Z" fill="#F5F5F5"/>
<path d="M215.589 176.698C215.433 176.825 216.139 177.955 217.169 179.197C218.199 180.454 219.158 181.357 219.327 181.23C219.482 181.103 218.777 179.974 217.747 178.731C216.717 177.475 215.758 176.571 215.603 176.698H215.589Z" fill="#F5F5F5"/>
<path d="M225.563 191.677C225.746 191.762 226.339 190.802 226.875 189.559C227.411 188.303 227.707 187.23 227.524 187.145C227.341 187.061 226.748 188.021 226.212 189.263C225.676 190.519 225.38 191.592 225.563 191.677Z" fill="#F5F5F5"/>
<path d="M212.612 193.272C212.414 193.315 212.471 194.486 212.753 195.898C213.035 197.31 213.416 198.425 213.614 198.383C213.811 198.34 213.755 197.169 213.472 195.757C213.19 194.345 212.809 193.23 212.612 193.272Z" fill="#F5F5F5"/>
<path d="M224.872 212.09C225.027 212.218 225.93 211.427 226.875 210.312C227.834 209.196 228.483 208.18 228.328 208.053C228.173 207.926 227.27 208.716 226.325 209.832C225.365 210.947 224.717 211.963 224.872 212.09Z" fill="#F5F5F5"/>
<path d="M224.237 219.262C224.209 219.46 225.323 219.798 226.734 220.024C228.145 220.25 229.316 220.264 229.358 220.067C229.386 219.869 228.272 219.53 226.861 219.304C225.45 219.078 224.279 219.064 224.237 219.262Z" fill="#F5F5F5"/>
<path d="M209.663 209.62C209.522 209.775 210.552 210.961 211.963 212.274C213.374 213.587 214.629 214.533 214.756 214.391C214.897 214.236 213.868 213.064 212.457 211.737C211.046 210.424 209.79 209.479 209.663 209.634V209.62Z" fill="#F5F5F5"/>
<path d="M221.514 199.187C221.317 199.216 221.246 199.893 221.359 200.712C221.472 201.531 221.726 202.166 221.923 202.138C222.121 202.11 222.191 201.432 222.078 200.613C221.966 199.794 221.712 199.159 221.514 199.187Z" fill="#F5F5F5"/>
<path d="M209.847 168.44C209.903 168.638 210.834 168.525 211.921 168.2C213.007 167.875 213.839 167.452 213.783 167.254C213.727 167.056 212.795 167.169 211.709 167.494C210.623 167.819 209.79 168.242 209.847 168.44Z" fill="#F5F5F5"/>
<path d="M200.014 160.943C200.211 160.915 200.155 159.56 199.887 157.922C199.618 156.285 199.238 154.986 199.026 155.028C198.828 155.057 198.885 156.412 199.153 158.049C199.421 159.687 199.802 160.986 200.014 160.943Z" fill="#F5F5F5"/>
<path d="M188.092 167.79C188.248 167.917 189.179 167.056 190.166 165.87C191.154 164.685 191.831 163.612 191.676 163.485C191.521 163.358 190.59 164.219 189.602 165.405C188.614 166.59 187.937 167.663 188.092 167.79Z" fill="#F5F5F5"/>
<path d="M195.457 173.565C195.273 173.635 195.598 174.892 196.204 176.36C196.797 177.828 197.446 178.957 197.629 178.887C197.813 178.816 197.488 177.56 196.882 176.092C196.289 174.623 195.64 173.494 195.457 173.565Z" fill="#F5F5F5"/>
<path d="M194.483 189.545C194.625 189.686 195.654 188.867 196.783 187.71C197.912 186.552 198.702 185.493 198.561 185.352C198.42 185.211 197.39 186.03 196.261 187.188C195.132 188.345 194.342 189.404 194.483 189.545Z" fill="#F5F5F5"/>
<path d="M185.44 190.308C185.638 190.265 185.539 189.037 185.2 187.569C184.876 186.101 184.438 184.943 184.241 184.986C184.043 185.028 184.142 186.256 184.481 187.724C184.805 189.192 185.243 190.35 185.44 190.308Z" fill="#F5F5F5"/>
<path d="M194.06 204.495C194.215 204.622 195.09 203.832 196.176 202.886C197.248 201.926 198.151 201.164 198.039 200.98C197.926 200.811 196.811 201.333 195.697 202.336C194.568 203.324 193.919 204.368 194.074 204.495H194.06Z" fill="#F5F5F5"/>
<path d="M193.482 213.192C193.355 213.347 194.215 214.293 195.556 215.069C196.896 215.86 198.151 216.142 198.208 215.944C198.278 215.747 197.206 215.182 195.922 214.434C194.639 213.686 193.609 213.036 193.482 213.192Z" fill="#F5F5F5"/>
<path d="M181.857 214.97C181.659 214.97 181.448 216.057 181.391 217.427C181.335 218.782 181.462 219.897 181.659 219.911C181.857 219.911 182.068 218.824 182.125 217.455C182.181 216.1 182.054 214.984 181.857 214.97Z" fill="#F5F5F5"/>
<path d="M186.117 204.523C186.315 204.523 186.442 202.745 186.4 200.571C186.357 198.396 186.16 196.632 185.948 196.632C185.751 196.632 185.624 198.411 185.666 200.585C185.708 202.759 185.906 204.523 186.117 204.523Z" fill="#F5F5F5"/>
<path d="M183.634 174.75C183.55 174.92 184.283 175.484 185.384 175.71C186.484 175.95 187.387 175.738 187.373 175.541C187.373 175.329 186.526 175.202 185.539 174.99C184.537 174.778 183.719 174.567 183.634 174.75Z" fill="#F5F5F5"/>
<path d="M187.683 144.596C187.486 144.624 187.514 146.05 187.74 147.8C187.98 149.537 188.318 150.934 188.53 150.906C188.727 150.878 188.699 149.452 188.473 147.701C188.234 145.965 187.895 144.567 187.683 144.596Z" fill="#F5F5F5"/>
<path d="M196.811 141.024C196.614 140.968 196.148 141.928 195.753 143.17C195.358 144.412 195.203 145.485 195.386 145.542C195.584 145.598 196.049 144.638 196.444 143.396C196.839 142.154 196.995 141.081 196.811 141.024Z" fill="#F5F5F5"/>
<path d="M192.72 133.302C192.635 133.486 193.75 134.206 195.302 134.657C196.853 135.123 198.194 135.123 198.208 134.926C198.236 134.714 196.995 134.403 195.499 133.951C194.004 133.514 192.79 133.104 192.706 133.302H192.72Z" fill="#F5F5F5"/>
<path d="M186.005 136.888C186.188 136.817 185.948 135.702 185.468 134.389C184.975 133.076 184.424 132.074 184.241 132.158C184.058 132.229 184.297 133.344 184.777 134.657C185.271 135.97 185.821 136.972 186.005 136.888Z" fill="#F5F5F5"/>
<path d="M172.376 144.751C172.503 144.907 173.66 144.201 174.972 143.17C176.284 142.14 177.243 141.18 177.116 141.01C176.989 140.855 175.833 141.561 174.521 142.591C173.209 143.622 172.249 144.582 172.376 144.751Z" fill="#F5F5F5"/>
<path d="M177.116 153.25C177.314 153.25 177.526 151.852 177.582 150.102C177.638 148.365 177.511 146.939 177.314 146.939C177.116 146.939 176.905 148.337 176.848 150.088C176.792 151.824 176.919 153.25 177.116 153.25Z" fill="#F5F5F5"/>
<path d="M172.405 163.569C172.419 163.767 173.491 163.837 174.803 163.725C176.115 163.612 177.145 163.343 177.131 163.146C177.117 162.948 176.044 162.877 174.732 162.99C173.434 163.103 172.39 163.372 172.405 163.569Z" fill="#F5F5F5"/>
<path d="M166.141 162.737C166.31 162.821 167.114 161.48 167.424 159.603C167.749 157.725 167.424 156.2 167.227 156.214C167.015 156.229 167.001 157.711 166.691 159.476C166.409 161.24 165.943 162.652 166.141 162.737Z" fill="#F5F5F5"/>
<path d="M167.297 171.743C167.255 171.941 168.158 172.28 169.301 172.506C170.443 172.732 171.403 172.746 171.445 172.548C171.487 172.35 170.585 172.012 169.442 171.786C168.299 171.56 167.34 171.546 167.311 171.743H167.297Z" fill="#F5F5F5"/>
<path d="M200.578 128.022C200.705 128.177 201.283 127.867 201.65 127.203C202.017 126.54 201.96 125.89 201.763 125.862C201.565 125.82 201.312 126.3 201.001 126.85C200.705 127.401 200.437 127.881 200.578 128.022Z" fill="#F5F5F5"/>
<path d="M196.642 126.836C196.825 126.921 197.277 126.385 197.658 125.622C198.039 124.86 198.194 124.168 198.024 124.083C197.841 123.999 197.39 124.535 197.009 125.298C196.628 126.06 196.473 126.752 196.642 126.836Z" fill="#F5F5F5"/>
<path d="M212.005 126.046C212.019 126.243 212.654 126.37 213.416 126.314C214.178 126.258 214.785 126.046 214.771 125.848C214.756 125.65 214.122 125.523 213.36 125.58C212.598 125.636 211.991 125.848 212.005 126.046Z" fill="#F5F5F5"/>
<path d="M187.049 101.354C187.049 101.354 187.204 101.354 187.472 101.284C187.74 101.199 188.121 101.058 188.572 100.776C189.447 100.239 190.674 99.0533 191.027 97.1051C191.196 96.1734 191.182 95.1287 191.507 94.1828C191.662 93.717 191.944 93.2935 192.367 92.997C192.776 92.7005 193.327 92.5452 193.905 92.3758C194.483 92.2064 195.132 92.0653 195.739 91.6841C196.36 91.3029 196.811 90.6535 197.065 90.0041C197.573 88.6912 197.601 87.2371 198.377 86.2631C200.084 84.2866 203.639 86.2066 205.671 83.9055C206.532 82.7902 206.56 81.5338 206.912 80.5738C207.223 79.5997 207.858 78.8374 208.563 78.315C210.002 77.2562 211.596 77.3551 212.542 77.6233C213.515 77.9056 213.966 78.2868 213.995 78.2303C213.995 78.2162 213.91 78.1033 213.698 77.9339C213.473 77.7645 213.134 77.5386 212.626 77.3551C211.667 76.988 209.917 76.7763 208.267 77.8915C207.463 78.428 206.729 79.275 206.334 80.3762C205.939 81.4208 205.84 82.6349 205.149 83.482C204.458 84.329 203.174 84.4702 201.876 84.4984C201.213 84.5266 200.522 84.5266 199.802 84.6819C199.083 84.8231 198.335 85.1901 197.813 85.8113C196.825 87.1101 196.868 88.6206 196.402 89.7641C196.19 90.3429 195.852 90.8229 195.386 91.1194C194.907 91.43 194.328 91.5853 193.736 91.7547C193.157 91.9241 192.537 92.1076 192 92.5029C191.464 92.8841 191.112 93.4629 190.942 94.0134C190.604 95.1428 190.674 96.1593 190.533 97.0487C190.293 98.8133 189.221 99.9709 188.431 100.564C187.627 101.171 187.049 101.312 187.077 101.383L187.049 101.354Z" fill="#455A64"/>
<path d="M215.448 404.848C215.448 404.848 215.476 404.692 215.49 404.382C215.504 404.043 215.532 403.591 215.56 403.027C215.603 401.798 215.673 400.048 215.758 397.845C215.913 393.286 216.125 386.792 216.393 378.773C216.957 362.623 217.719 340.388 218.565 315.838C219.37 291.246 219.877 268.983 219.99 252.861C220.061 244.8 220.061 238.278 219.99 233.775C219.962 231.558 219.934 229.822 219.92 228.579C219.906 228.015 219.892 227.577 219.877 227.224C219.877 226.914 219.849 226.758 219.835 226.758C219.835 226.758 219.807 226.914 219.793 227.224L219.765 228.579C219.75 229.808 219.722 231.558 219.694 233.775C219.638 238.334 219.553 244.843 219.454 252.861C219.2 268.969 218.622 291.232 217.818 315.81C217.014 340.388 216.266 362.637 215.857 378.759C215.645 386.82 215.518 393.342 215.448 397.845C215.419 400.062 215.405 401.798 215.391 403.041C215.391 403.605 215.391 404.043 215.391 404.396C215.391 404.706 215.391 404.862 215.419 404.862L215.448 404.848Z" fill="#263238"/>
<path d="M156.138 406.711C156.336 406.754 163.827 366.421 172.87 316.657C181.913 266.866 189.08 226.49 188.882 226.462C188.685 226.434 181.194 266.739 172.151 316.53C163.107 366.293 155.941 406.683 156.138 406.725V406.711Z" fill="#263238"/>
<path d="M203.667 238.109C203.667 238.109 203.95 238.292 204.514 238.236C205.078 238.179 205.897 237.84 206.531 237.022C207.194 236.217 207.547 235.045 207.801 233.803C208.069 232.56 208.323 231.191 208.535 229.751C208.972 226.857 209.17 224.203 209.212 222.297C209.268 220.377 209.184 219.191 209.085 219.191C208.873 219.191 208.676 223.907 207.801 229.638C207.589 231.078 207.364 232.433 207.138 233.676C206.926 234.904 206.644 235.977 206.122 236.711C205.614 237.445 204.937 237.812 204.458 237.953C203.964 238.094 203.667 238.038 203.667 238.109Z" fill="#263238"/>
<path d="M206.419 220.278C206.348 220.349 206.461 220.589 206.348 220.914C206.235 221.253 205.897 221.507 205.516 221.238C205.121 220.984 205.219 220.575 205.502 220.335C205.756 220.095 206.024 220.123 206.066 220.024C206.122 219.954 205.798 219.657 205.248 219.897C204.994 220.01 204.698 220.25 204.599 220.674C204.5 221.111 204.74 221.606 205.121 221.846C205.502 222.1 206.052 222.142 206.405 221.874C206.757 221.62 206.87 221.253 206.87 220.984C206.87 220.391 206.475 220.194 206.433 220.278H206.419Z" fill="#263238"/>
</g>
<defs>
<clipPath id="clip0_363_4306">
<rect width="387" height="428" fill="white" transform="translate(-20)"/>
</clipPath>
</defs>
</svg>
