<svg width="18" height="18" viewBox="0 0 18 18" fill="none" xmlns="http://www.w3.org/2000/svg">
<path fill-rule="evenodd" clip-rule="evenodd" d="M8.90065 2.61841C11.3585 2.61841 13.351 4.61089 13.351 7.06874V7.33679C13.351 8.32021 13.0437 9.27906 12.4721 10.0793L8.90944 15.067C8.90513 15.0731 8.89616 15.0731 8.89186 15.067L5.32919 10.0793C4.75759 9.27906 4.45032 8.32021 4.45032 7.33679V7.06874C4.45032 4.61089 6.4428 2.61841 8.90065 2.61841ZM9.19109 4.88914L8.90065 4.8701L8.6102 4.88914L8.32473 4.94592L8.04911 5.03948L7.78806 5.16822L7.54605 5.32993L7.32722 5.52184L7.1353 5.74067L6.9736 5.98269L6.84486 6.24374L6.7513 6.51935L6.69452 6.80483L6.67548 7.09527L6.69452 7.38571L6.7513 7.67118L6.84486 7.9468L6.9736 8.20785L7.1353 8.44986L7.32722 8.6687L7.54605 8.86061L7.78806 9.02232L8.04911 9.15105L8.32473 9.24461L8.6102 9.3014L8.90065 9.32043L9.19109 9.3014L9.47656 9.24461L9.75218 9.15105L10.0132 9.02232L10.2552 8.86061L10.4741 8.6687L10.666 8.44986L10.8277 8.20785L10.9564 7.9468L11.05 7.67118L11.1068 7.38571L11.1258 7.09527L11.1068 6.80483L11.05 6.51935L10.9564 6.24374L10.8277 5.98269L10.666 5.74067L10.4741 5.52184L10.2552 5.32993L10.0132 5.16822L9.75218 5.03948L9.47656 4.94592L9.19109 4.88914Z" fill="#F9F9F9"/>
<path d="M12.4721 10.0793L11.2515 9.20744L11.2515 9.20744L12.4721 10.0793ZM8.90944 15.067L10.13 15.9389L10.13 15.9389L8.90944 15.067ZM8.89186 15.067L7.67126 15.9389L7.67127 15.9389L8.89186 15.067ZM5.32919 10.0793L4.10859 10.9512L4.10859 10.9512L5.32919 10.0793ZM8.90065 4.8701L8.99875 3.37332L8.90065 3.36689L8.80254 3.37332L8.90065 4.8701ZM9.19109 4.88914L9.48373 3.41796L9.3873 3.39878L9.28919 3.39235L9.19109 4.88914ZM8.6102 4.88914L8.5121 3.39235L8.414 3.39878L8.31757 3.41796L8.6102 4.88914ZM8.32473 4.94592L8.0321 3.47475L7.93567 3.49393L7.84257 3.52553L8.32473 4.94592ZM8.04911 5.03948L7.56695 3.61909L7.47386 3.65069L7.38568 3.69418L8.04911 5.03948ZM7.78806 5.16822L7.12463 3.82291L7.03646 3.86639L6.95471 3.92102L7.78806 5.16822ZM7.54605 5.32993L6.7127 4.08272L6.63095 4.13734L6.55703 4.20217L7.54605 5.32993ZM7.32722 5.52184L6.3382 4.39408L6.26428 4.4589L6.19946 4.53282L7.32722 5.52184ZM7.1353 5.74067L6.00754 4.75166L5.94272 4.82557L5.8881 4.90732L7.1353 5.74067ZM6.9736 5.98269L5.72639 5.14933L5.67177 5.23108L5.62829 5.31925L6.9736 5.98269ZM6.84486 6.24374L5.49955 5.5803L5.45607 5.66848L5.42447 5.76158L6.84486 6.24374ZM6.7513 6.51935L5.33091 6.03719L5.2993 6.13029L5.28012 6.22672L6.7513 6.51935ZM6.69452 6.80483L5.22334 6.51219L5.20416 6.60862L5.19773 6.70672L6.69452 6.80483ZM6.67548 7.09527L5.17869 6.99716L5.17226 7.09527L5.17869 7.19337L6.67548 7.09527ZM6.69452 7.38571L5.19773 7.48382L5.20416 7.58192L5.22334 7.67835L6.69452 7.38571ZM6.7513 7.67118L5.28012 7.96382L5.2993 8.06025L5.33091 8.15334L6.7513 7.67118ZM6.84486 7.9468L5.42447 8.42896L5.45607 8.52206L5.49955 8.61024L6.84486 7.9468ZM6.9736 8.20785L5.62829 8.87128L5.67177 8.95946L5.72639 9.04121L6.9736 8.20785ZM7.1353 8.44986L5.8881 9.28322L5.94272 9.36497L6.00755 9.43888L7.1353 8.44986ZM7.32722 8.6687L6.19946 9.65772L6.26428 9.73163L6.3382 9.79646L7.32722 8.6687ZM7.54605 8.86061L6.55703 9.98837L6.63095 10.0532L6.7127 10.1078L7.54605 8.86061ZM7.78806 9.02232L6.95471 10.2695L7.03646 10.3241L7.12463 10.3676L7.78806 9.02232ZM8.04911 9.15105L7.38568 10.4964L7.47386 10.5398L7.56695 10.5714L8.04911 9.15105ZM8.32473 9.24461L7.84257 10.665L7.93567 10.6966L8.03209 10.7158L8.32473 9.24461ZM8.6102 9.3014L8.31757 10.7726L8.41399 10.7918L8.5121 10.7982L8.6102 9.3014ZM8.90065 9.32043L8.80254 10.8172L8.90065 10.8237L8.99875 10.8172L8.90065 9.32043ZM9.19109 9.3014L9.28919 10.7982L9.3873 10.7918L9.48373 10.7726L9.19109 9.3014ZM9.47656 9.24461L9.7692 10.7158L9.86563 10.6966L9.95872 10.665L9.47656 9.24461ZM9.75218 9.15105L10.2343 10.5714L10.3274 10.5398L10.4156 10.4964L9.75218 9.15105ZM10.0132 9.02232L10.6767 10.3676L10.7648 10.3241L10.8466 10.2695L10.0132 9.02232ZM10.2552 8.86061L11.0886 10.1078L11.1703 10.0532L11.2443 9.98837L10.2552 8.86061ZM10.4741 8.6687L11.4631 9.79646L11.537 9.73163L11.6018 9.65772L10.4741 8.6687ZM10.666 8.44986L11.7937 9.43888L11.8586 9.36497L11.9132 9.28322L10.666 8.44986ZM10.8277 8.20785L12.0749 9.04121L12.1295 8.95946L12.173 8.87128L10.8277 8.20785ZM10.9564 7.9468L12.3017 8.61024L12.3452 8.52206L12.3768 8.42896L10.9564 7.9468ZM11.05 7.67118L12.4704 8.15334L12.502 8.06025L12.5212 7.96382L11.05 7.67118ZM11.1068 7.38571L12.578 7.67835L12.5971 7.58192L12.6036 7.48381L11.1068 7.38571ZM11.1258 7.09527L12.6226 7.19337L12.629 7.09527L12.6226 6.99717L11.1258 7.09527ZM11.1068 6.80483L12.6036 6.70672L12.5971 6.60862L12.578 6.51219L11.1068 6.80483ZM11.05 6.51935L12.5212 6.22672L12.502 6.13029L12.4704 6.0372L11.05 6.51935ZM10.9564 6.24374L12.3768 5.76158L12.3452 5.66848L12.3017 5.5803L10.9564 6.24374ZM10.8277 5.98269L12.173 5.31925L12.1295 5.23108L12.0749 5.14933L10.8277 5.98269ZM10.666 5.74067L11.9132 4.90732L11.8586 4.82557L11.7938 4.75166L10.666 5.74067ZM10.4741 5.52184L11.6018 4.53282L11.537 4.4589L11.4631 4.39408L10.4741 5.52184ZM10.2552 5.32993L11.2443 4.20217L11.1703 4.13734L11.0886 4.08272L10.2552 5.32993ZM10.0132 5.16822L10.8466 3.92102L10.7648 3.86639L10.6767 3.82291L10.0132 5.16822ZM9.75218 5.03948L10.4156 3.69417L10.3274 3.65069L10.2343 3.61909L9.75218 5.03948ZM9.47656 4.94592L9.95872 3.52553L9.86562 3.49393L9.7692 3.47475L9.47656 4.94592ZM13.351 7.06874H14.851C14.851 3.78246 12.1869 1.11841 8.90065 1.11841V2.61841V4.11841C10.5301 4.11841 11.851 5.43932 11.851 7.06874L13.351 7.06874ZM13.351 7.33679H14.851V7.06874H13.351L11.851 7.06874V7.33679L13.351 7.33679ZM12.4721 10.0793L13.6927 10.9512C14.446 9.89651 14.851 8.63285 14.851 7.33679H13.351L11.851 7.33679C11.851 8.00758 11.6414 8.6616 11.2515 9.20744L12.4721 10.0793ZM8.90944 15.067L10.13 15.9389L13.6927 10.9512L12.4721 10.0793L11.2515 9.20744L7.68884 14.1952L8.90944 15.067ZM8.89186 15.067L7.67127 15.9389C8.27381 16.7824 9.52748 16.7824 10.13 15.9389L8.90944 15.067L7.68885 14.1952C8.28278 13.3637 9.51852 13.3637 10.1124 14.1952L8.89186 15.067ZM5.32919 10.0793L4.10859 10.9512L7.67126 15.9389L8.89186 15.067L10.1125 14.1952L6.5498 9.20744L5.32919 10.0793ZM4.45032 7.33679H2.95032C2.95032 8.63285 3.35528 9.89651 4.10859 10.9512L5.32919 10.0793L6.5498 9.20744C6.15991 8.6616 5.95032 8.00758 5.95032 7.33679H4.45032ZM4.45032 7.06874H2.95032V7.33679H4.45032H5.95032V7.06874H4.45032ZM8.90065 2.61841V1.11841C5.61437 1.11841 2.95032 3.78246 2.95032 7.06874H4.45032H5.95032C5.95032 5.43932 7.27122 4.11841 8.90065 4.11841V2.61841ZM8.90065 4.8701L8.80254 6.36689L9.09299 6.38593L9.19109 4.88914L9.28919 3.39235L8.99875 3.37332L8.90065 4.8701ZM8.6102 4.88914L8.70831 6.38593L8.99875 6.36689L8.90065 4.8701L8.80254 3.37332L8.5121 3.39235L8.6102 4.88914ZM8.32473 4.94592L8.61737 6.4171L8.90284 6.36032L8.6102 4.88914L8.31757 3.41796L8.0321 3.47475L8.32473 4.94592ZM8.04911 5.03948L8.53127 6.45988L8.80689 6.36632L8.32473 4.94592L7.84257 3.52553L7.56695 3.61909L8.04911 5.03948ZM7.78806 5.16822L8.4515 6.51353L8.71255 6.38479L8.04911 5.03948L7.38568 3.69418L7.12463 3.82291L7.78806 5.16822ZM7.54605 5.32993L8.37941 6.57713L8.62142 6.41542L7.78806 5.16822L6.95471 3.92102L6.7127 4.08272L7.54605 5.32993ZM7.32722 5.52184L8.31624 6.6496L8.53507 6.45769L7.54605 5.32993L6.55703 4.20217L6.3382 4.39408L7.32722 5.52184ZM7.1353 5.74067L8.26306 6.72969L8.45498 6.51086L7.32722 5.52184L6.19946 4.53282L6.00754 4.75166L7.1353 5.74067ZM6.9736 5.98269L8.2208 6.81604L8.38251 6.57403L7.1353 5.74067L5.8881 4.90732L5.72639 5.14933L6.9736 5.98269ZM6.84486 6.24374L8.19017 6.90717L8.31891 6.64612L6.9736 5.98269L5.62829 5.31925L5.49955 5.5803L6.84486 6.24374ZM6.7513 6.51935L8.1717 7.00151L8.26526 6.72589L6.84486 6.24374L5.42447 5.76158L5.33091 6.03719L6.7513 6.51935ZM6.69452 6.80483L8.1657 7.09746L8.22248 6.81199L6.7513 6.51935L5.28012 6.22672L5.22334 6.51219L6.69452 6.80483ZM6.67548 7.09527L8.17227 7.19337L8.19131 6.90293L6.69452 6.80483L5.19773 6.70672L5.17869 6.99716L6.67548 7.09527ZM6.69452 7.38571L8.19131 7.28761L8.17227 6.99716L6.67548 7.09527L5.17869 7.19337L5.19773 7.48382L6.69452 7.38571ZM6.7513 7.67118L8.22248 7.37855L8.1657 7.09308L6.69452 7.38571L5.22334 7.67835L5.28012 7.96382L6.7513 7.67118ZM6.84486 7.9468L8.26526 7.46464L8.1717 7.18902L6.7513 7.67118L5.33091 8.15334L5.42447 8.42896L6.84486 7.9468ZM6.9736 8.20785L8.31891 7.54442L8.19017 7.28337L6.84486 7.9468L5.49955 8.61024L5.62829 8.87128L6.9736 8.20785ZM7.1353 8.44986L8.38251 7.61651L8.2208 7.3745L6.9736 8.20785L5.72639 9.04121L5.8881 9.28322L7.1353 8.44986ZM7.32722 8.6687L8.45498 7.67968L8.26306 7.46084L7.1353 8.44986L6.00755 9.43888L6.19946 9.65772L7.32722 8.6687ZM7.54605 8.86061L8.53507 7.73285L8.31624 7.54094L7.32722 8.6687L6.3382 9.79646L6.55703 9.98837L7.54605 8.86061ZM7.78806 9.02232L8.62142 7.77511L8.37941 7.61341L7.54605 8.86061L6.7127 10.1078L6.95471 10.2695L7.78806 9.02232ZM8.04911 9.15105L8.71255 7.80574L8.4515 7.67701L7.78806 9.02232L7.12463 10.3676L7.38568 10.4964L8.04911 9.15105ZM8.32473 9.24461L8.80689 7.82422L8.53127 7.73066L8.04911 9.15105L7.56695 10.5714L7.84257 10.665L8.32473 9.24461ZM8.6102 9.3014L8.90284 7.83022L8.61737 7.77344L8.32473 9.24461L8.03209 10.7158L8.31757 10.7726L8.6102 9.3014ZM8.90065 9.32043L8.99875 7.82365L8.70831 7.80461L8.6102 9.3014L8.5121 10.7982L8.80254 10.8172L8.90065 9.32043ZM9.19109 9.3014L9.09299 7.80461L8.80254 7.82365L8.90065 9.32043L8.99875 10.8172L9.28919 10.7982L9.19109 9.3014ZM9.47656 9.24461L9.18392 7.77344L8.89845 7.83022L9.19109 9.3014L9.48373 10.7726L9.7692 10.7158L9.47656 9.24461ZM9.75218 9.15105L9.27002 7.73066L8.9944 7.82422L9.47656 9.24461L9.95872 10.665L10.2343 10.5714L9.75218 9.15105ZM10.0132 9.02232L9.3498 7.67701L9.08875 7.80574L9.75218 9.15105L10.4156 10.4964L10.6767 10.3676L10.0132 9.02232ZM10.2552 8.86061L9.42189 7.6134L9.17988 7.77511L10.0132 9.02232L10.8466 10.2695L11.0886 10.1078L10.2552 8.86061ZM10.4741 8.6687L9.48506 7.54094L9.26622 7.73285L10.2552 8.86061L11.2443 9.98837L11.4631 9.79646L10.4741 8.6687ZM10.666 8.44986L9.53823 7.46084L9.34632 7.67968L10.4741 8.6687L11.6018 9.65772L11.7937 9.43888L10.666 8.44986ZM10.8277 8.20785L9.58049 7.3745L9.41879 7.61651L10.666 8.44986L11.9132 9.28322L12.0749 9.04121L10.8277 8.20785ZM10.9564 7.9468L9.61112 7.28337L9.48239 7.54442L10.8277 8.20785L12.173 8.87128L12.3017 8.61024L10.9564 7.9468ZM11.05 7.67118L9.6296 7.18903L9.53604 7.46464L10.9564 7.9468L12.3768 8.42896L12.4704 8.15334L11.05 7.67118ZM11.1068 7.38571L9.6356 7.09307L9.57881 7.37855L11.05 7.67118L12.5212 7.96382L12.578 7.67835L11.1068 7.38571ZM11.1258 7.09527L9.62902 6.99717L9.60999 7.28761L11.1068 7.38571L12.6036 7.48381L12.6226 7.19337L11.1258 7.09527ZM11.1068 6.80483L9.60999 6.90293L9.62902 7.19337L11.1258 7.09527L12.6226 6.99717L12.6036 6.70672L11.1068 6.80483ZM11.05 6.51935L9.57881 6.81199L9.6356 7.09746L11.1068 6.80483L12.578 6.51219L12.5212 6.22672L11.05 6.51935ZM10.9564 6.24374L9.53604 6.72589L9.6296 7.00151L11.05 6.51935L12.4704 6.0372L12.3768 5.76158L10.9564 6.24374ZM10.8277 5.98269L9.48239 6.64612L9.61112 6.90717L10.9564 6.24374L12.3017 5.5803L12.173 5.31925L10.8277 5.98269ZM10.666 5.74067L9.41879 6.57403L9.58049 6.81604L10.8277 5.98269L12.0749 5.14933L11.9132 4.90732L10.666 5.74067ZM10.4741 5.52184L9.34632 6.51086L9.53823 6.72969L10.666 5.74067L11.7938 4.75166L11.6018 4.53282L10.4741 5.52184ZM10.2552 5.32993L9.26622 6.45769L9.48506 6.6496L10.4741 5.52184L11.4631 4.39408L11.2443 4.20217L10.2552 5.32993ZM10.0132 5.16822L9.17987 6.41542L9.42189 6.57713L10.2552 5.32993L11.0886 4.08272L10.8466 3.92102L10.0132 5.16822ZM9.75218 5.03948L9.08875 6.38479L9.3498 6.51353L10.0132 5.16822L10.6767 3.82291L10.4156 3.69417L9.75218 5.03948ZM9.47656 4.94592L8.9944 6.36632L9.27002 6.45988L9.75218 5.03948L10.2343 3.61909L9.95872 3.52553L9.47656 4.94592ZM9.19109 4.88914L8.89845 6.36032L9.18393 6.4171L9.47656 4.94592L9.7692 3.47475L9.48373 3.41796L9.19109 4.88914Z" fill="#F9F9F9"/>
</svg>
