<svg width="24" height="24" viewBox="0 0 24 24" fill="none" xmlns="http://www.w3.org/2000/svg">
<path d="M20.1901 14.06L19.0601 12.18C18.8101 11.77 18.5901 10.98 18.5901 10.5V8.63005C18.5901 5.00005 15.6401 2.05005 12.0201 2.05005C8.39008 2.06005 5.44008 5.00005 5.44008 8.63005V10.49C5.44008 10.97 5.22008 11.76 4.98008 12.17L3.85008 14.05C3.42008 14.78 3.32008 15.61 3.59008 16.33C3.86008 17.06 4.47008 17.64 5.27008 17.9C6.35008 18.26 7.44008 18.52 8.55008 18.71C8.66008 18.73 8.77008 18.74 8.88008 18.76C9.02008 18.7801 9.17008 18.8 9.32008 18.82C9.58008 18.8601 9.84008 18.89 10.1101 18.91C10.7401 18.97 11.3801 19 12.0201 19C12.6501 19 13.2801 18.97 13.9001 18.91C14.1301 18.89 14.3601 18.8701 14.5801 18.84C14.7601 18.82 14.9401 18.8001 15.1201 18.7701C15.2301 18.76 15.3401 18.74 15.4501 18.72C16.5701 18.54 17.6801 18.26 18.7601 17.9C19.5301 17.64 20.1201 17.06 20.4001 16.32C20.6801 15.57 20.6001 14.75 20.1901 14.06ZM12.7501 10C12.7501 10.42 12.4101 10.76 11.9901 10.76C11.5701 10.76 11.2301 10.42 11.2301 10V6.90005C11.2301 6.48005 11.5701 6.14005 11.9901 6.14005C12.4101 6.14005 12.7501 6.48005 12.7501 6.90005V10Z" fill="#F9F9F9"/>
<path d="M14.8298 20.01C14.4098 21.17 13.2998 22 11.9998 22C11.2098 22 10.4298 21.68 9.87981 21.11C9.55981 20.81 9.31981 20.41 9.17981 20C9.30981 20.02 9.43981 20.03 9.57981 20.05C9.80981 20.08 10.0498 20.11 10.2898 20.13C10.8598 20.18 11.4398 20.21 12.0198 20.21C12.5898 20.21 13.1598 20.18 13.7198 20.13C13.9298 20.11 14.1398 20.1 14.3398 20.07C14.4998 20.05 14.6598 20.03 14.8298 20.01Z" fill="#F9F9F9"/>
</svg>
