<svg width="45" height="35" viewBox="0 0 45 35" fill="none" xmlns="http://www.w3.org/2000/svg">
<mask id="path-1-inside-1_363_3067" fill="white">
<path d="M38.3144 2.63911C35.8557 0.791931 31.4111 0 25.7251 0H9.223C8.66043 1.37299e-05 8.11632 0.132303 7.68849 0.373085C7.26067 0.613866 6.97719 0.947345 6.88902 1.31357L0.0178308 30.0374C-0.118746 30.6038 0.546669 31.1168 1.41765 31.1168H11.6055L14.1641 20.4199L14.0847 20.7549C14.267 19.9988 15.2481 19.4411 16.4099 19.4411H21.2511C30.7617 19.4411 38.2087 16.8949 40.384 9.52934C40.4486 9.3115 40.5046 9.09947 40.5529 8.89233C40.2783 8.79649 40.2783 8.79649 40.5529 8.89233C41.2007 6.16994 40.5485 4.31683 38.3144 2.63911"/>
</mask>
<path d="M38.3144 2.63911C35.8557 0.791931 31.4111 0 25.7251 0H9.223C8.66043 1.37299e-05 8.11632 0.132303 7.68849 0.373085C7.26067 0.613866 6.97719 0.947345 6.88902 1.31357L0.0178308 30.0374C-0.118746 30.6038 0.546669 31.1168 1.41765 31.1168H11.6055L14.1641 20.4199L14.0847 20.7549C14.267 19.9988 15.2481 19.4411 16.4099 19.4411H21.2511C30.7617 19.4411 38.2087 16.8949 40.384 9.52934C40.4486 9.3115 40.5046 9.09947 40.5529 8.89233C40.2783 8.79649 40.2783 8.79649 40.5529 8.89233C41.2007 6.16994 40.5485 4.31683 38.3144 2.63911" fill="#27346A"/>
<path d="M9.223 0V-1L9.22298 -1L9.223 0ZM6.88902 1.31357L5.9168 1.0795L5.91646 1.08091L6.88902 1.31357ZM0.0178308 30.0374L0.989971 30.2718L0.990391 30.2701L0.0178308 30.0374ZM11.6055 31.1168V32.1168H12.3945L12.5781 31.3494L11.6055 31.1168ZM14.1641 20.4199L15.1371 20.6506L13.1916 20.1873L14.1641 20.4199ZM14.0847 20.7549L13.1117 20.5242L15.0569 20.9893L14.0847 20.7549ZM40.384 9.52934L39.4253 9.2451L39.425 9.2461L40.384 9.52934ZM40.5529 8.89233L41.5267 9.11963L41.731 8.24438L40.8825 7.94819L40.5529 8.89233ZM40.5529 8.89233L40.2234 9.83647L41.2693 10.2016L41.5257 9.12381L40.5529 8.89233ZM38.3144 2.63911L38.915 1.8396C37.5199 0.791438 35.6323 0.0906715 33.4274 -0.353448C31.2123 -0.799622 28.6091 -1 25.7251 -1V0V1C28.5271 1 30.9891 1.19559 33.0325 1.60717C35.0861 2.02081 36.6502 2.6396 37.7137 3.43862L38.3144 2.63911ZM25.7251 0V-1H9.223V0V1H25.7251V0ZM9.223 0L9.22298 -1C8.514 -0.999983 7.79626 -0.83506 7.19803 -0.498379L7.68849 0.373085L8.17895 1.24455C8.43638 1.09967 8.80687 1.00001 9.22302 1L9.223 0ZM7.68849 0.373085L7.19803 -0.498379C6.60542 -0.164854 6.08823 0.367428 5.9168 1.0795L6.88902 1.31357L7.86124 1.54763C7.86614 1.52726 7.91592 1.39259 8.17895 1.24455L7.68849 0.373085ZM6.88902 1.31357L5.91646 1.08091L-0.954729 29.8048L0.0178308 30.0374L0.990391 30.2701L7.86158 1.54622L6.88902 1.31357ZM0.0178308 30.0374L-0.954308 29.803C-1.14287 30.585 -0.734998 31.2235 -0.270669 31.5815C0.190694 31.9372 0.799784 32.1168 1.41765 32.1168V31.1168V30.1168C1.16454 30.1168 1.00543 30.0399 0.950482 29.9975C0.925746 29.9785 0.946856 29.9862 0.970228 30.0388C0.997798 30.1008 1.01034 30.1874 0.989969 30.2718L0.0178308 30.0374ZM1.41765 31.1168V32.1168H11.6055V31.1168V30.1168H1.41765V31.1168ZM11.6055 31.1168L12.5781 31.3494L15.1367 20.6526L14.1641 20.4199L13.1916 20.1873L10.6329 30.8841L11.6055 31.1168ZM14.1641 20.4199L13.1911 20.1893L13.1117 20.5242L14.0847 20.7549L15.0577 20.9856L15.1371 20.6506L14.1641 20.4199ZM14.0847 20.7549L15.0569 20.9893C15.0636 20.9615 15.1166 20.8296 15.3726 20.6847C15.619 20.5452 15.9815 20.4411 16.4099 20.4411V19.4411V18.4411C15.6765 18.4411 14.9675 18.6158 14.3874 18.9442C13.8168 19.2672 13.2881 19.7922 13.1126 20.5205L14.0847 20.7549ZM16.4099 19.4411V20.4411H21.2511V19.4411V18.4411H16.4099V19.4411ZM21.2511 19.4411V20.4411C26.0774 20.4411 30.4827 19.7979 33.9927 18.1528C37.5396 16.4904 40.1642 13.8043 41.3431 9.81259L40.384 9.52934L39.425 9.2461C38.4286 12.6199 36.242 14.8898 33.1439 16.3418C30.009 17.8112 25.9354 18.4411 21.2511 18.4411V19.4411ZM40.384 9.52934L41.3428 9.81358C41.4129 9.57701 41.4739 9.346 41.5267 9.11963L40.5529 8.89233L39.5791 8.66503C39.5352 8.85295 39.4843 9.04599 39.4253 9.2451L40.384 9.52934ZM40.5529 8.89233L40.8825 7.94819C40.8063 7.92161 40.7698 7.90889 40.728 7.89428C40.7099 7.88797 40.6989 7.88412 40.6894 7.88081C40.6838 7.87884 40.6833 7.87866 40.6797 7.87744C40.6749 7.87575 40.683 7.87859 40.6783 7.87695C40.6775 7.87665 40.6781 7.87685 40.6773 7.8766C40.676 7.87613 40.6779 7.87681 40.6767 7.87639C40.6766 7.87633 40.6767 7.87638 40.6766 7.87633C40.6766 7.87633 40.6766 7.87632 40.6765 7.87632C40.6765 7.87632 40.6765 7.87632 40.6765 7.87632C40.6765 7.87632 40.6765 7.87631 40.347 8.82045C40.0174 9.76459 40.0174 9.76459 40.0174 9.76459C40.0174 9.76459 40.0174 9.76459 40.0174 9.7646C40.0174 9.7646 40.0175 9.7646 40.0175 9.7646C40.0175 9.7646 40.0175 9.76461 40.0175 9.76461C40.0176 9.76466 40.0175 9.7646 40.0176 9.76466C40.0177 9.76469 40.0178 9.76471 40.0179 9.76475C40.0182 9.76486 40.0179 9.76475 40.0182 9.76487C40.0199 9.76544 40.017 9.76445 40.0187 9.76503C40.0187 9.76504 40.0189 9.76511 40.019 9.76512C40.019 9.76514 40.019 9.76515 40.0191 9.76517C40.0191 9.76519 40.0192 9.76521 40.0192 9.76522C40.0198 9.7654 40.02 9.76549 40.0206 9.76571C40.0263 9.76769 40.0185 9.76495 40.0247 9.76712C40.0441 9.77388 40.0104 9.76213 40.0303 9.76908C40.0359 9.77103 40.0314 9.76948 40.0375 9.77161C40.0431 9.77356 40.0403 9.77256 40.0464 9.7747C40.0742 9.7844 40.0285 9.76846 40.0568 9.77835C40.0578 9.77867 40.0675 9.78205 40.0689 9.78256C40.0703 9.78304 40.1877 9.82401 40.2234 9.83647L40.5529 8.89233L40.8825 7.94819C40.8063 7.92161 40.7698 7.90889 40.728 7.89428C40.7099 7.88797 40.6989 7.88412 40.6894 7.88081C40.6838 7.87884 40.6833 7.87866 40.6797 7.87744C40.6749 7.87575 40.683 7.87859 40.6783 7.87695C40.6775 7.87665 40.6781 7.87685 40.6773 7.8766C40.676 7.87613 40.6779 7.87681 40.6767 7.87639C40.6766 7.87633 40.6767 7.87638 40.6766 7.87633C40.6766 7.87633 40.6766 7.87632 40.6765 7.87632C40.6765 7.87632 40.6765 7.87632 40.6765 7.87632C40.6765 7.87632 40.6765 7.87631 40.347 8.82045C40.0174 9.76459 40.0174 9.76459 40.0174 9.76459C40.0174 9.76459 40.0174 9.76459 40.0174 9.7646C40.0174 9.7646 40.0175 9.7646 40.0175 9.7646C40.0175 9.7646 40.0175 9.76461 40.0175 9.76461C40.0176 9.76466 40.0175 9.7646 40.0176 9.76466C40.0177 9.76469 40.0178 9.76471 40.0179 9.76475C40.0182 9.76486 40.0179 9.76475 40.0182 9.76487C40.0199 9.76544 40.017 9.76445 40.0187 9.76503C40.0187 9.76504 40.0189 9.76511 40.019 9.76512C40.019 9.76514 40.019 9.76515 40.0191 9.76517C40.0191 9.76519 40.0192 9.76521 40.0192 9.76522C40.0198 9.7654 40.02 9.76549 40.0206 9.76571C40.0263 9.76769 40.0185 9.76495 40.0247 9.76712C40.0441 9.77388 40.0104 9.76213 40.0303 9.76908C40.0359 9.77103 40.0314 9.76948 40.0375 9.77161C40.0431 9.77356 40.0403 9.77256 40.0464 9.7747C40.0742 9.7844 40.0285 9.76846 40.0568 9.77835C40.0578 9.77867 40.0675 9.78205 40.0689 9.78256C40.0703 9.78304 40.1877 9.82401 40.2234 9.83647L40.5529 8.89233ZM40.5529 8.89233L41.5257 9.12381C41.8785 7.64147 41.9023 6.28905 41.4563 5.03809C41.0097 3.78579 40.1352 2.75592 38.9149 1.83948L38.3144 2.63911L37.7139 3.43874C38.7276 4.20002 39.2963 4.93557 39.5724 5.70985C39.849 6.48548 39.8751 7.42081 39.5801 8.66085L40.5529 8.89233Z" fill="#E8E8E8" mask="url(#path-1-inside-1_363_3067)"/>
<path d="M9.22168 0.5H25.7256C28.5479 0.50002 31.0448 0.696977 33.1309 1.11719C35.2215 1.53835 36.8665 2.177 38.0137 3.03809V3.03906C39.0791 3.83917 39.7242 4.64836 40.043 5.54199C40.3171 6.31086 40.3642 7.18658 40.1758 8.24414C39.7612 8.11823 39.3256 8.00533 38.8711 7.90527H38.8691C38.3599 7.79544 37.843 7.70201 37.3203 7.62598H37.3213C36.9535 7.57176 36.583 7.52544 36.2109 7.48633C34.8843 7.34559 33.4373 7.2793 31.8916 7.2793H18.9541L18.6875 7.28906C18.4219 7.30852 18.1603 7.35703 17.9131 7.43457L18.0488 7.86816L17.9121 7.43457C17.5556 7.54722 17.2281 7.72094 16.9668 7.95215C16.7049 8.1839 16.5082 8.47575 16.4277 8.81152L11.2109 30.6162H1.41602C1.07257 30.6162 0.801825 30.5131 0.645508 30.3926C0.490829 30.2733 0.495566 30.188 0.503906 30.1533V30.1523L7.375 1.43066C7.42353 1.22919 7.59635 0.998601 7.93359 0.808594C8.26565 0.621605 8.71703 0.5 9.22168 0.5Z" fill="#27346A" stroke="#E8E8E8"/>
<path d="M40.8953 9.5564C41.5622 9.82582 42.1339 10.1352 42.6042 10.488C43.5701 11.2136 44.1273 12.0741 44.364 13.0486C44.6031 14.0333 44.5243 15.1746 44.1433 16.4656C43.2371 19.5326 41.2422 21.5963 38.448 22.906C35.6355 24.2242 32.0103 24.778 27.8865 24.7781H26.6003C26.0353 24.7782 25.4726 24.9101 25.0134 25.1687C24.5626 25.4227 24.2017 25.8079 24.0789 26.2927L23.9744 26.6667L23.9724 26.6755L23.9695 26.6843L22.3572 33.4236L22.2742 33.7117L22.2703 33.7224L22.2673 33.7341C22.232 33.8813 22.1018 34.0739 21.8103 34.238C21.5215 34.4007 21.1323 34.4997 20.7136 34.4998H12.1257C11.8368 34.4998 11.6131 34.4139 11.489 34.3181C11.4284 34.2713 11.403 34.2306 11.3933 34.2087L11.3884 34.1716L14.571 20.8708C14.6193 20.6687 14.7907 20.4391 15.1248 20.2498C15.4544 20.0631 15.9043 19.9412 16.4089 19.9412H21.2517C26.0425 19.9411 30.3649 19.3012 33.781 17.7C37.2156 16.09 39.7307 13.5073 40.864 9.67065L40.863 9.66968C40.8743 9.63173 40.8846 9.59386 40.8953 9.5564Z" fill="#2790C3" stroke="#E8E8E8"/>
<mask id="path-5-inside-2_363_3067" fill="white">
<path d="M38.2763 8.29393C37.9371 8.22865 37.5947 8.17085 37.2497 8.12064C36.8884 8.06828 36.525 8.02275 36.1597 7.98409C34.8526 7.84464 33.4247 7.77881 31.8913 7.77881H18.9555C18.6468 7.77835 18.3419 7.82404 18.0638 7.91245C17.7615 8.00759 17.4988 8.14989 17.2986 8.32701C17.0985 8.50414 16.9668 8.71075 16.9151 8.92897L14.1656 20.4198L14.0862 20.7548C14.267 19.9987 15.2481 19.441 16.4101 19.441H21.2528C30.7634 19.441 38.2102 16.8948 40.3855 9.52923C40.4503 9.31138 40.5046 9.10029 40.5546 8.89221C40.0037 8.70054 39.4074 8.53492 38.7653 8.39454C38.6033 8.35913 38.4403 8.32559 38.2765 8.29393"/>
</mask>
<path d="M38.2763 8.29393C37.9371 8.22865 37.5947 8.17085 37.2497 8.12064C36.8884 8.06828 36.525 8.02275 36.1597 7.98409C34.8526 7.84464 33.4247 7.77881 31.8913 7.77881H18.9555C18.6468 7.77835 18.3419 7.82404 18.0638 7.91245C17.7615 8.00759 17.4988 8.14989 17.2986 8.32701C17.0985 8.50414 16.9668 8.71075 16.9151 8.92897L14.1656 20.4198L14.0862 20.7548C14.267 19.9987 15.2481 19.441 16.4101 19.441H21.2528C30.7634 19.441 38.2102 16.8948 40.3855 9.52923C40.4503 9.31138 40.5046 9.10029 40.5546 8.89221C40.0037 8.70054 39.4074 8.53492 38.7653 8.39454C38.6033 8.35913 38.4403 8.32559 38.2765 8.29393" fill="#1F264F"/>
<path d="M37.2497 8.12064L37.3937 7.13106L37.3931 7.13098L37.2497 8.12064ZM36.1597 7.98409L36.0537 8.97845L36.0545 8.97854L36.1597 7.98409ZM18.9555 7.77881L18.954 8.77881H18.9555V7.77881ZM18.0638 7.91245L18.364 8.86635L18.3668 8.86544L18.0638 7.91245ZM16.9151 8.92897L17.8877 9.16168L17.8882 9.1596L16.9151 8.92897ZM14.1656 20.4198L13.193 20.1871L13.1926 20.1892L14.1656 20.4198ZM14.0862 20.7548L13.1131 20.5241L15.0587 20.9874L14.0862 20.7548ZM40.3855 9.52923L39.427 9.24427L39.4265 9.24598L40.3855 9.52923ZM40.5546 8.89221L41.5269 9.12559L41.7382 8.24525L40.8832 7.94775L40.5546 8.89221ZM38.7653 8.39454L38.9789 7.41761L38.9788 7.41759L38.7653 8.39454ZM38.2763 8.29393L38.4653 7.31196C38.1111 7.24377 37.7537 7.18345 37.3937 7.13106L37.2497 8.12064L37.1057 9.11021C37.4358 9.15826 37.7632 9.21353 38.0873 9.27591L38.2763 8.29393ZM37.2497 8.12064L37.3931 7.13098C37.0191 7.07677 36.6429 7.02964 36.265 6.98965L36.1597 7.98409L36.0545 8.97854C36.407 9.01585 36.7578 9.05979 37.1063 9.1103L37.2497 8.12064ZM36.1597 7.98409L36.2658 6.98974C34.9164 6.84578 33.4523 6.77881 31.8913 6.77881V7.77881V8.77881C33.3971 8.77881 34.7887 8.84351 36.0537 8.97845L36.1597 7.98409ZM31.8913 7.77881V6.77881H18.9555V7.77881V8.77881H31.8913V7.77881ZM18.9555 7.77881L18.957 6.77881C18.551 6.77821 18.1429 6.83797 17.7609 6.95946L18.0638 7.91245L18.3668 8.86544C18.5409 8.81011 18.7426 8.77849 18.954 8.77881L18.9555 7.77881ZM18.0638 7.91245L17.7637 6.95855C17.352 7.0881 16.9589 7.2923 16.6359 7.57813L17.2986 8.32701L17.9613 9.0759C18.0387 9.00748 18.1709 8.92709 18.364 8.86634L18.0638 7.91245ZM17.2986 8.32701L16.6359 7.57813C16.3117 7.86506 16.0499 8.24343 15.9421 8.69834L16.9151 8.92897L17.8882 9.1596C17.8838 9.17807 17.8853 9.14322 17.9613 9.0759L17.2986 8.32701ZM16.9151 8.92897L15.9426 8.69626L13.193 20.1871L14.1656 20.4198L15.1381 20.6525L17.8877 9.16168L16.9151 8.92897ZM14.1656 20.4198L13.1926 20.1892L13.1131 20.5241L14.0862 20.7548L15.0592 20.9854L15.1386 20.6505L14.1656 20.4198ZM14.0862 20.7548L15.0587 20.9874C15.0651 20.9607 15.1173 20.8293 15.373 20.6845C15.6191 20.5451 15.9816 20.441 16.4101 20.441V19.441V18.441C15.6767 18.441 14.9676 18.6157 14.3875 18.9442C13.817 19.2672 13.2881 19.7928 13.1136 20.5221L14.0862 20.7548ZM16.4101 19.441V20.441H21.2528V19.441V18.441H16.4101V19.441ZM21.2528 19.441V20.441C26.0791 20.441 30.4843 19.7978 33.9943 18.1527C37.5411 16.4902 40.1656 13.8042 41.3446 9.81247L40.3855 9.52923L39.4265 9.24598C38.43 12.6198 36.2435 14.8897 33.1455 16.3417C30.0106 17.8111 25.937 18.441 21.2528 18.441V19.441ZM40.3855 9.52923L41.344 9.81418C41.4155 9.57379 41.4744 9.34435 41.5269 9.12559L40.5546 8.89221L39.5822 8.65884C39.5348 8.85623 39.485 9.04897 39.427 9.24427L40.3855 9.52923ZM40.5546 8.89221L40.8832 7.94775C40.2899 7.74134 39.6548 7.56538 38.9789 7.41761L38.7653 8.39454L38.5517 9.37146C39.16 9.50446 39.7174 9.65974 40.2259 9.83668L40.5546 8.89221ZM38.7653 8.39454L38.9788 7.41759C38.8088 7.38045 38.6379 7.34529 38.4663 7.31211L38.2765 8.29393L38.0867 9.27576C38.2427 9.3059 38.3977 9.33782 38.5518 9.37149L38.7653 8.39454Z" fill="#E8E8E8" mask="url(#path-5-inside-2_363_3067)"/>
</svg>
