<svg width="23" height="12" viewBox="0 0 23 12" fill="none" xmlns="http://www.w3.org/2000/svg">
<path fill-rule="evenodd" clip-rule="evenodd" d="M22.9044 8.57653L22.7773 2.78114C22.7436 1.24493 21.0418 0.0367311 19.5363 0.0697541L2.72603 0.438485C1.22101 0.471497 0.0273011 1.74321 0.0609976 3.27942L0.188119 9.07481C0.221804 10.6105 1.46967 11.8297 2.97517 11.7966L19.7854 11.4279C21.2909 11.3939 22.9381 10.1122 22.9044 8.57653ZM16.102 11.0212L10.4679 11.1447L10.2688 9.80348L12.5901 9.75256L16.102 11.0212ZM13.6017 9.27556C13.6017 9.27556 15.8413 9.81962 17.736 10.279C19.0829 5.68517 17.5617 1.36899 17.5394 1.30548L17.5391 1.30478L13.4528 2.49004L13.6017 9.27556ZM12.2695 2.07718L10.0999 2.12477L10.2389 0.775597L15.7229 0.655307L12.2695 2.07718ZM9.40676 0.793827L4.40339 0.903575L5.31196 2.22977L9.2706 2.14293L9.40676 0.793827ZM2.99828 1.70233L4.63354 2.76012L4.78241 9.54712L3.19512 10.6761L2.99828 1.70233ZM9.4337 9.82164L5.63155 9.90504L4.78151 11.2693L9.63466 11.1629L9.4337 9.82164Z" fill="#FFBB00"/>
</svg>
