<svg width="24" height="24" viewBox="0 0 24 24" fill="none" xmlns="http://www.w3.org/2000/svg">
<path d="M17 7C17 7.98891 16.7068 8.95561 16.1573 9.77785C15.6079 10.6001 14.8271 11.241 13.9134 11.6194C12.9998 11.9978 11.9945 12.0969 11.0246 11.9039C10.0546 11.711 9.16373 11.2348 8.46447 10.5355C7.76521 9.83627 7.289 8.94536 7.09608 7.97545C6.90315 7.00555 7.00217 6.00021 7.3806 5.08658C7.75904 4.17295 8.39991 3.39206 9.22215 2.84265C10.0444 2.29324 11.0111 2 12 2C13.3261 2 14.5979 2.52678 15.5355 3.46447C16.4732 4.40215 17 5.67392 17 7Z" fill="#F9F9F9"/>
<path d="M12.0002 14.5C6.99016 14.5 2.91016 17.86 2.91016 22C2.91016 22.1326 2.96283 22.2598 3.0566 22.3536C3.15037 22.4473 3.27755 22.5 3.41016 22.5H20.5902C20.7228 22.5 20.8499 22.4473 20.9437 22.3536C21.0375 22.2598 21.0902 22.1326 21.0902 22C21.0902 17.86 17.0102 14.5 12.0002 14.5Z" fill="#F9F9F9"/>
</svg>
