<svg width="26" height="27" viewBox="0 0 26 27" fill="none" xmlns="http://www.w3.org/2000/svg">
<path d="M12.935 2.73269L10.3241 8.81019H7.7133C7.27997 8.81019 6.85747 8.84269 6.4458 8.92935L7.52913 6.32935L7.57247 6.23185L7.63747 6.05852C7.66997 5.98269 7.69163 5.91769 7.72413 5.86352C8.9808 2.94935 10.3891 2.03935 12.935 2.73269Z" fill="#BBBDC1"/>
<path d="M20.2907 9.10277L20.269 9.09194C19.619 8.90777 18.9582 8.81027 18.2865 8.81027H11.5049L13.9424 3.14444L13.9749 3.0686C14.1265 3.12277 14.289 3.1986 14.4515 3.25277L16.8457 4.26027C18.1782 4.81277 19.1099 5.38694 19.684 6.08027C19.7815 6.21027 19.8682 6.32944 19.9549 6.47027C20.0524 6.62194 20.1282 6.7736 20.1715 6.9361C20.2149 7.0336 20.2474 7.12027 20.269 7.21777C20.4315 7.77027 20.4424 8.3986 20.2907 9.10277Z" fill="#BBBDC1"/>
<path d="M13.5632 19.4704H13.8341C14.1591 19.4704 14.4299 19.1779 14.4299 18.8204C14.4299 18.3654 14.2999 18.3004 14.0182 18.192L13.5632 18.0295V19.4704Z" fill="#BBBDC1"/>
<path d="M19.8143 10.652C19.3268 10.5111 18.8176 10.4353 18.2868 10.4353H7.71342C6.97676 10.4353 6.28342 10.5761 5.63342 10.8578C3.74842 11.6703 2.42676 13.5445 2.42676 15.722V17.8345C2.42676 18.0945 2.44842 18.3436 2.48092 18.6036C2.71926 22.0486 4.56092 23.8903 8.00592 24.1178C8.25509 24.1503 8.50426 24.172 8.77509 24.172H17.2251C21.2334 24.172 23.3459 22.2653 23.5518 18.4736C23.5626 18.2678 23.5734 18.0511 23.5734 17.8345V15.722C23.5734 13.3278 21.9809 11.3128 19.8143 10.652ZM14.3868 17.1303C14.8851 17.3036 15.5568 17.672 15.5568 18.8203C15.5568 19.8061 14.7876 20.597 13.8343 20.597H13.5634V20.8353C13.5634 21.1495 13.3143 21.3986 13.0001 21.3986C12.6859 21.3986 12.4368 21.1495 12.4368 20.8353V20.597H12.3393C11.2993 20.597 10.4434 19.7195 10.4434 18.6361C10.4434 18.322 10.6926 18.0728 11.0068 18.0728C11.3209 18.0728 11.5701 18.322 11.5701 18.6361C11.5701 19.0911 11.9168 19.4703 12.3393 19.4703H12.4368V17.6395L11.6134 17.347C11.1151 17.1736 10.4434 16.8053 10.4434 15.657C10.4434 14.6711 11.2126 13.8803 12.1659 13.8803H12.4368V13.642C12.4368 13.3278 12.6859 13.0786 13.0001 13.0786C13.3143 13.0786 13.5634 13.3278 13.5634 13.642V13.8803H13.6609C14.7009 13.8803 15.5568 14.7578 15.5568 15.8411C15.5568 16.1553 15.3076 16.4045 14.9934 16.4045C14.6793 16.4045 14.4301 16.1553 14.4301 15.8411C14.4301 15.3861 14.0834 15.007 13.6609 15.007H13.5634V16.8378L14.3868 17.1303Z" fill="#BBBDC1"/>
<path d="M11.5701 15.6568C11.5701 16.1118 11.7001 16.1768 11.9817 16.2852L12.4367 16.4477V15.0068H12.1659C11.8301 15.0068 11.5701 15.2993 11.5701 15.6568Z" fill="#BBBDC1"/>
</svg>
